# Blender v2.82 (sub 7) OBJ File: 'hanging_cable.blend'
# www.blender.org
g Catenary.012_Catenary.074
v 15.935997 0.047823 0.211053
v 16.003120 -0.002333 0.481199
v 16.219526 -0.164036 0.397405
v 16.152401 -0.113879 0.127260
v 12.652523 -4.157412 -0.116292
v 12.438424 -3.975779 -0.082074
v 12.464518 -3.997915 0.198692
v 12.678617 -4.179548 0.164473
v 9.691062 -7.716708 -0.178768
v 9.689900 -7.715390 -0.461605
v 9.502897 -7.503195 -0.459848
v 9.504059 -7.504514 -0.177011
v 6.506968 -10.175351 0.077925
v 6.643011 -10.407824 -0.008386
v 6.599418 -10.333330 -0.277738
v 6.463376 -10.100859 -0.191427
v 3.204277 -11.434742 0.225152
v 3.257082 -11.615914 0.435837
v 3.316037 -11.818183 0.247126
v 3.263231 -11.637011 0.036441
v 0.000000 -11.699037 0.110317
v 0.000000 -11.589577 0.371121
v 0.000000 -11.850381 0.480580
v 0.000000 -11.959841 0.219777
v -3.149552 -11.246984 -0.135734
v -3.070417 -10.975481 -0.130834
v -3.071788 -10.980185 0.151966
v -3.150923 -11.251688 0.147067
v -6.432670 -10.048388 -0.216201
v -6.380752 -9.959668 -0.479703
v -6.247664 -9.732245 -0.376909
v -6.299583 -9.820965 -0.113407
v -9.748878 -7.782311 0.014988
v -9.903622 -7.957901 -0.143828
v -9.798617 -7.838752 -0.377874
v -9.643873 -7.663162 -0.219058
v -12.740566 -4.232104 0.211784
v -12.806367 -4.287928 0.481142
v -13.011768 -4.462182 0.394852
v -12.945967 -4.406359 0.125494
v -15.934558 0.048899 -0.210364
v -15.739957 0.194309 -0.355230
v -15.623910 0.281023 -0.112302
v -15.818511 0.135612 0.032563
v 16.100864 -0.075369 -0.186826
v 16.167988 -0.125526 0.083320
v 16.384394 -0.287228 -0.000473
v 16.317268 -0.237071 -0.270618
v 12.923035 -4.386904 0.157243
v 12.708937 -4.205271 0.191462
v 12.735029 -4.227407 0.472227
v 12.949128 -4.409040 0.438008
v 9.484475 -7.482292 0.142225
v 9.483314 -7.480974 -0.140612
v 9.296310 -7.268780 -0.138856
v 9.297472 -7.270098 0.143981
v 6.305051 -9.830309 -0.124164
v 6.441092 -10.062780 -0.210474
v 6.397500 -9.988288 -0.479826
v 6.261458 -9.755816 -0.393516
v 3.210253 -11.455248 -0.222295
v 3.263059 -11.636419 -0.011611
v 3.322014 -11.838688 -0.200321
v 3.269208 -11.657516 -0.411006
v 0.000000 -12.112450 -0.062179
v 0.000000 -12.002991 0.198624
v 0.000000 -12.263794 0.308084
v 0.000000 -12.373253 0.047280
v -3.240339 -11.558468 0.173137
v -3.161205 -11.286964 0.178036
v -3.162575 -11.291668 0.460836
v -3.241709 -11.563170 0.455937
v -6.343277 -9.895632 0.195308
v -6.291359 -9.806911 -0.068194
v -6.158272 -9.579489 0.034600
v -6.210191 -9.668209 0.298102
v -9.457590 -7.451785 -0.066064
v -9.612334 -7.627375 -0.224880
v -9.507330 -7.508225 -0.458926
v -9.352586 -7.332637 -0.300109
v -12.894692 -4.362860 -0.187983
v -12.960494 -4.418683 0.081375
v -13.165895 -4.592937 -0.004914
v -13.100093 -4.537114 -0.274272
v -16.025055 -0.018723 0.223113
v -15.830454 0.126688 0.078248
v -15.714406 0.213402 0.321175
v -15.909008 0.067991 0.466040
v 15.717584 0.211027 -0.185877
v 15.784708 0.160870 0.084268
v 16.001112 -0.000833 0.000475
v 15.933989 0.049324 -0.269671
v 12.987460 -4.441560 -0.313702
v 12.773361 -4.259926 -0.279483
v 12.799455 -4.282063 0.001282
v 13.013554 -4.463697 -0.032937
v 9.787378 -7.825998 0.280223
v 9.786217 -7.824680 -0.002615
v 9.599213 -7.612486 -0.000858
v 9.600374 -7.613804 0.281980
v 6.307784 -9.834980 0.354269
v 6.443826 -10.067451 0.267959
v 6.400233 -9.992959 -0.001394
v 6.264192 -9.760487 0.084917
v 3.088649 -11.038031 -0.022121
v 3.141454 -11.219204 0.188564
v 3.200409 -11.421472 -0.000147
v 3.147603 -11.240299 -0.210832
v 0.000000 -11.745319 -0.369007
v 0.000000 -11.635860 -0.108203
v 0.000000 -11.896664 0.001257
v 0.000000 -12.006124 -0.259547
v -3.277527 -11.686058 -0.286499
v -3.198393 -11.414555 -0.281599
v -3.199764 -11.419258 0.001201
v -3.278898 -11.690762 -0.003698
v -6.584289 -10.307478 0.160333
v -6.532370 -10.218758 -0.103170
v -6.399283 -9.991335 -0.000375
v -6.451202 -10.080055 0.263127
v -9.550293 -7.556976 0.391395
v -9.705038 -7.732566 0.232579
v -9.600034 -7.613417 -0.001467
v -9.445289 -7.437827 0.157349
v -12.529861 -4.053350 -0.182607
v -12.595662 -4.109173 0.086752
v -12.801063 -4.283427 0.000462
v -12.735262 -4.227604 -0.268897
v -16.309566 -0.231316 -0.097486
v -16.114965 -0.085905 -0.242352
v -15.998919 0.000807 0.000576
v -16.193520 -0.144604 0.145442
vt 0.000000 0.000000
vt 1.000000 0.000000
vt 1.000000 1.000000
vt 0.000000 0.000000
vt 1.000000 0.000000
vt 1.000000 1.000000
vt 0.000000 0.000000
vt 1.000000 0.000000
vt 1.000000 1.000000
vt 0.000000 0.000000
vt 1.000000 0.000000
vt 1.000000 1.000000
vt 0.000000 0.000000
vt 1.000000 0.000000
vt 1.000000 1.000000
vt 0.000000 0.000000
vt 1.000000 0.000000
vt 1.000000 1.000000
vt 0.000000 0.000000
vt 1.000000 0.000000
vt 1.000000 1.000000
vt 0.000000 0.000000
vt 1.000000 0.000000
vt 1.000000 1.000000
vt 0.000000 0.000000
vt 1.000000 0.000000
vt 1.000000 1.000000
vt 0.000000 0.000000
vt 1.000000 0.000000
vt 1.000000 1.000000
vt 0.000000 0.000000
vt 1.000000 0.000000
vt 1.000000 1.000000
vt 0.000000 0.000000
vt 1.000000 0.000000
vt 1.000000 1.000000
vt 0.000000 0.000000
vt 1.000000 0.000000
vt 1.000000 1.000000
vt 0.000000 0.000000
vt 1.000000 0.000000
vt 1.000000 1.000000
vt 0.000000 0.000000
vt 1.000000 0.000000
vt 1.000000 1.000000
vt 0.000000 0.000000
vt 1.000000 0.000000
vt 1.000000 1.000000
vt 0.000000 0.000000
vt 1.000000 0.000000
vt 1.000000 1.000000
vt 0.000000 0.000000
vt 1.000000 0.000000
vt 1.000000 1.000000
vt 0.000000 0.000000
vt 1.000000 0.000000
vt 1.000000 1.000000
vt 0.000000 0.000000
vt 1.000000 0.000000
vt 1.000000 1.000000
vt 0.000000 0.000000
vt 1.000000 0.000000
vt 1.000000 1.000000
vt 0.000000 0.000000
vt 1.000000 0.000000
vt 1.000000 1.000000
vt 0.000000 0.000000
vt 1.000000 0.000000
vt 1.000000 1.000000
vt 0.000000 0.000000
vt 1.000000 0.000000
vt 1.000000 1.000000
vt 0.000000 0.000000
vt 1.000000 0.000000
vt 1.000000 1.000000
vt 0.000000 0.000000
vt 1.000000 0.000000
vt 1.000000 1.000000
vt 0.000000 0.000000
vt 1.000000 0.000000
vt 1.000000 1.000000
vt 0.000000 0.000000
vt 1.000000 0.000000
vt 1.000000 1.000000
vt 0.000000 0.000000
vt 1.000000 0.000000
vt 1.000000 1.000000
vt 0.000000 0.000000
vt 1.000000 0.000000
vt 1.000000 1.000000
vt 0.000000 0.000000
vt 1.000000 0.000000
vt 1.000000 1.000000
vt 0.000000 0.000000
vt 1.000000 0.000000
vt 1.000000 1.000000
vt 0.000000 0.000000
vt 1.000000 0.000000
vt 1.000000 1.000000
vt 0.000000 0.000000
vt 1.000000 0.000000
vt 1.000000 1.000000
vt 0.000000 0.000000
vt 1.000000 0.000000
vt 1.000000 1.000000
vt 0.000000 0.000000
vt 1.000000 0.000000
vt 1.000000 1.000000
vt 0.000000 0.000000
vt 1.000000 0.000000
vt 1.000000 1.000000
vt 0.000000 0.000000
vt 1.000000 0.000000
vt 1.000000 1.000000
vt 0.000000 0.000000
vt 1.000000 0.000000
vt 1.000000 1.000000
vt 0.000000 0.000000
vt 1.000000 0.000000
vt 1.000000 1.000000
vt 0.000000 0.000000
vt 1.000000 0.000000
vt 1.000000 1.000000
vt 0.000000 0.000000
vt 1.000000 0.000000
vt 1.000000 1.000000
vt 0.000000 0.000000
vt 1.000000 0.000000
vt 1.000000 1.000000
vt 0.000000 0.000000
vt 1.000000 0.000000
vt 1.000000 1.000000
vt 0.000000 0.000000
vt 1.000000 0.000000
vt 1.000000 1.000000
vt 0.000000 0.000000
vt 1.000000 0.000000
vt 1.000000 1.000000
vt 0.000000 0.000000
vt 1.000000 0.000000
vt 1.000000 1.000000
vt 0.000000 0.000000
vt 1.000000 0.000000
vt 1.000000 1.000000
vt 0.000000 0.000000
vt 1.000000 0.000000
vt 1.000000 1.000000
vt 0.000000 0.000000
vt 1.000000 0.000000
vt 1.000000 1.000000
vt 0.000000 0.000000
vt 1.000000 0.000000
vt 1.000000 1.000000
vt 0.000000 0.000000
vt 1.000000 0.000000
vt 1.000000 1.000000
vt 0.000000 0.000000
vt 1.000000 0.000000
vt 1.000000 1.000000
vt 0.000000 0.000000
vt 1.000000 0.000000
vt 1.000000 1.000000
vt 0.000000 0.000000
vt 1.000000 0.000000
vt 1.000000 1.000000
vt 0.000000 0.000000
vt 1.000000 0.000000
vt 1.000000 1.000000
vt 0.000000 0.000000
vt 1.000000 0.000000
vt 1.000000 1.000000
vt 0.000000 0.000000
vt 1.000000 0.000000
vt 1.000000 1.000000
vt 0.000000 0.000000
vt 1.000000 0.000000
vt 1.000000 1.000000
vt 0.000000 0.000000
vt 1.000000 0.000000
vt 1.000000 1.000000
vt 0.000000 0.000000
vt 1.000000 0.000000
vt 1.000000 1.000000
vt 0.000000 0.000000
vt 1.000000 0.000000
vt 1.000000 1.000000
vt 0.000000 0.000000
vt 1.000000 0.000000
vt 1.000000 1.000000
vt 0.000000 0.000000
vt 1.000000 0.000000
vt 1.000000 1.000000
vt 0.000000 0.000000
vt 1.000000 0.000000
vt 1.000000 1.000000
vt 0.000000 0.000000
vt 1.000000 0.000000
vt 1.000000 1.000000
vt 0.000000 0.000000
vt 1.000000 0.000000
vt 1.000000 1.000000
vt 0.000000 0.000000
vt 1.000000 0.000000
vt 1.000000 1.000000
vt 0.000000 0.000000
vt 1.000000 0.000000
vt 1.000000 1.000000
vt 0.000000 0.000000
vt 1.000000 0.000000
vt 1.000000 1.000000
vt 0.000000 0.000000
vt 1.000000 0.000000
vt 1.000000 1.000000
vt 0.000000 0.000000
vt 1.000000 0.000000
vt 1.000000 1.000000
vt 0.000000 0.000000
vt 1.000000 0.000000
vt 1.000000 1.000000
vt 0.000000 0.000000
vt 1.000000 0.000000
vt 1.000000 1.000000
vt 0.000000 0.000000
vt 1.000000 0.000000
vt 1.000000 1.000000
vt 0.000000 0.000000
vt 1.000000 0.000000
vt 1.000000 1.000000
vt 0.000000 0.000000
vt 1.000000 0.000000
vt 1.000000 1.000000
vt 0.000000 0.000000
vt 1.000000 0.000000
vt 1.000000 1.000000
vt 0.000000 0.000000
vt 1.000000 0.000000
vt 1.000000 1.000000
vt 0.000000 0.000000
vt 1.000000 0.000000
vt 1.000000 1.000000
vt 0.000000 0.000000
vt 1.000000 0.000000
vt 1.000000 1.000000
vt 0.000000 0.000000
vt 1.000000 0.000000
vt 1.000000 1.000000
vt 0.000000 0.000000
vt 1.000000 0.000000
vt 1.000000 1.000000
vt 0.000000 0.000000
vt 1.000000 0.000000
vt 1.000000 1.000000
vt 0.000000 0.000000
vt 1.000000 0.000000
vt 1.000000 1.000000
vt 0.000000 0.000000
vt 1.000000 0.000000
vt 1.000000 1.000000
vt 0.000000 0.000000
vt 1.000000 0.000000
vt 1.000000 1.000000
vt 0.000000 0.000000
vt 1.000000 0.000000
vt 1.000000 1.000000
vt 0.000000 0.000000
vt 1.000000 0.000000
vt 1.000000 1.000000
vt 0.000000 0.000000
vt 1.000000 0.000000
vt 1.000000 1.000000
vt 0.000000 0.000000
vt 1.000000 0.000000
vt 1.000000 1.000000
vt 0.000000 0.000000
vt 1.000000 0.000000
vt 1.000000 1.000000
vt 0.000000 0.000000
vt 1.000000 0.000000
vt 1.000000 1.000000
vt 0.000000 0.000000
vt 1.000000 0.000000
vt 1.000000 1.000000
vt 0.000000 0.000000
vt 1.000000 0.000000
vt 1.000000 1.000000
vt 0.000000 0.000000
vt 1.000000 0.000000
vt 1.000000 1.000000
vt 0.000000 0.000000
vt 1.000000 0.000000
vt 1.000000 1.000000
vt 0.000000 0.000000
vt 1.000000 0.000000
vt 1.000000 1.000000
vt 0.000000 0.000000
vt 1.000000 0.000000
vt 1.000000 1.000000
vt 0.000000 0.000000
vt 1.000000 0.000000
vt 1.000000 1.000000
vt 0.000000 0.000000
vt 1.000000 0.000000
vt 1.000000 1.000000
vt 0.000000 0.000000
vt 1.000000 0.000000
vt 1.000000 1.000000
vt 0.000000 0.000000
vt 1.000000 0.000000
vt 1.000000 1.000000
vt 0.000000 0.000000
vt 1.000000 0.000000
vt 1.000000 1.000000
vt 0.000000 0.000000
vt 1.000000 0.000000
vt 1.000000 1.000000
vt 0.000000 0.000000
vt 1.000000 0.000000
vt 1.000000 1.000000
vt 0.000000 0.000000
vt 1.000000 0.000000
vt 1.000000 1.000000
vt 0.000000 0.000000
vt 1.000000 0.000000
vt 1.000000 1.000000
vt 0.000000 0.000000
vt 1.000000 0.000000
vt 1.000000 1.000000
vt 0.000000 0.000000
vt 1.000000 0.000000
vt 1.000000 1.000000
vt 0.000000 0.000000
vt 1.000000 0.000000
vt 1.000000 1.000000
vt 0.000000 0.000000
vt 1.000000 0.000000
vt 1.000000 1.000000
vt 0.000000 0.000000
vt 1.000000 0.000000
vt 1.000000 1.000000
vt 0.000000 0.000000
vt 1.000000 0.000000
vt 1.000000 1.000000
vt 0.000000 0.000000
vt 1.000000 0.000000
vt 1.000000 1.000000
vt 0.000000 0.000000
vt 1.000000 0.000000
vt 1.000000 1.000000
vt 0.000000 0.000000
vt 1.000000 0.000000
vt 1.000000 1.000000
vt 0.000000 0.000000
vt 1.000000 0.000000
vt 1.000000 1.000000
vt 0.000000 0.000000
vt 1.000000 0.000000
vt 1.000000 1.000000
vt 0.000000 0.000000
vt 1.000000 0.000000
vt 1.000000 1.000000
vt 1.000000 1.000000
vt 1.000000 1.000000
vt 1.000000 1.000000
vt 1.000000 1.000000
vt 1.000000 1.000000
vt 1.000000 1.000000
vt 1.000000 1.000000
vt 1.000000 1.000000
vt 1.000000 1.000000
vt 1.000000 1.000000
vt 1.000000 1.000000
vt 1.000000 1.000000
vn 0.4000 -0.3030 -0.8650
vn 0.5013 -0.3622 -0.7858
vn -0.6572 0.5962 -0.4611
vn -0.5764 0.5453 -0.6086
vn -0.3550 0.2423 0.9029
vn -0.4996 0.3638 0.7861
vn 0.6453 -0.6049 0.4664
vn 0.5689 -0.5388 0.6213
vn 0.5317 -0.5188 0.6694
vn 0.5133 -0.4848 -0.7082
vn -0.4693 0.4890 -0.7353
vn -0.5008 0.4886 0.7144
vn -0.1448 0.3790 0.9140
vn 0.5021 -0.7550 0.4217
vn 0.2189 -0.4606 -0.8602
vn -0.4921 0.7161 -0.4949
vn -0.2120 0.9763 -0.0423
vn 0.0558 -0.0099 0.9984
vn 0.2270 -0.9715 0.0679
vn -0.0283 -0.1477 -0.9886
vn 0.0625 0.3316 -0.9413
vn 0.0595 0.9040 0.4232
vn -0.0667 -0.4136 0.9080
vn -0.0646 -0.9381 -0.3403
vn -0.1444 -0.6994 -0.7000
vn 0.2606 0.6546 -0.7097
vn 0.1229 0.6685 0.7335
vn -0.2640 -0.6891 0.6748
vn -0.4194 -0.8306 0.3664
vn -0.1656 -0.3931 -0.9044
vn 0.4024 0.8021 -0.4412
vn 0.1359 0.3523 0.9259
vn 0.1238 0.0577 0.9906
vn -0.6330 -0.7572 0.1610
vn -0.2108 -0.1433 -0.9669
vn 0.5986 0.7710 -0.2173
vn 0.7061 0.5571 -0.4371
vn 0.3238 0.2575 0.9104
vn -0.7028 -0.5292 0.4754
vn -0.4149 -0.2867 -0.8635
vn -0.7680 -0.5715 -0.2891
vn 0.2934 0.0432 -0.9550
vn 0.8354 0.5109 0.2025
vn -0.2150 -0.0856 0.9728
vn 0.3157 -0.3572 -0.8790
vn 0.4670 -0.4558 -0.7577
vn -0.6945 0.5159 -0.5014
vn -0.5687 0.5490 -0.6125
vn -0.3192 0.3426 0.8836
vn -0.4162 0.4030 0.8151
vn 0.7118 -0.5554 0.4298
vn 0.5691 -0.5401 0.6200
vn 0.4353 -0.5683 0.6983
vn 0.5064 -0.4969 -0.7047
vn -0.4175 0.5759 -0.7028
vn -0.4889 0.4997 0.7150
vn -0.2646 0.3445 0.9007
vn 0.5077 -0.7500 0.4240
vn 0.2924 -0.3818 -0.8768
vn -0.4809 0.7241 -0.4943
vn -0.3420 0.9365 -0.0770
vn 0.0749 -0.0028 0.9972
vn 0.3301 -0.9433 0.0342
vn -0.0109 -0.1402 -0.9901
vn -0.0741 0.2994 -0.9512
vn 0.0743 0.9046 0.4198
vn 0.0490 -0.4477 0.8928
vn -0.0540 -0.9387 -0.3405
vn -0.2695 -0.6862 -0.6756
vn 0.2553 0.6529 -0.7131
vn 0.2310 0.6039 0.7628
vn -0.2640 -0.6850 0.6790
vn -0.5122 -0.7610 0.3980
vn -0.1685 -0.3942 -0.9034
vn 0.5098 0.7610 -0.4012
vn 0.1358 0.3602 0.9229
vn 0.0732 0.1634 0.9838
vn -0.6147 -0.7729 0.1572
vn -0.1093 -0.1713 -0.9791
vn 0.5915 0.7751 -0.2219
vn 0.6298 0.6004 -0.4928
vn 0.3287 0.2345 0.9149
vn -0.6807 -0.5959 0.4260
vn -0.4175 -0.2899 -0.8612
vn -0.8150 -0.5344 -0.2240
vn 0.2308 0.1737 -0.9573
vn 0.8490 0.4597 0.2604
vn -0.1093 -0.1927 0.9751
vn 0.3758 -0.2453 -0.8936
vn 0.4819 -0.4081 -0.7753
vn -0.7445 0.4921 -0.4512
vn -0.6067 0.4634 -0.6458
vn -0.4129 0.2531 0.8749
vn -0.4538 0.3914 0.8005
vn 0.7235 -0.4958 0.4803
vn 0.6422 -0.4932 0.5867
vn 0.4912 -0.5393 0.6840
vn 0.4581 -0.5726 -0.6798
vn -0.4569 0.5179 -0.7232
vn -0.3996 0.5376 0.7425
vn -0.2116 0.3587 0.9091
vn 0.4112 -0.7921 0.4511
vn 0.2494 -0.4299 -0.8677
vn -0.3990 0.7910 -0.4637
vn -0.2791 0.9585 -0.0576
vn -0.0538 -0.0067 0.9985
vn 0.2812 -0.9582 0.0525
vn 0.0811 -0.0812 -0.9934
vn 0.0056 0.3195 -0.9475
vn -0.0607 0.9202 0.3868
vn 0.0061 -0.4343 0.9007
vn 0.0519 -0.9275 -0.3701
vn -0.2001 -0.6956 -0.6899
vn 0.1317 0.6621 -0.7377
vn 0.1877 0.6312 0.7525
vn -0.1632 -0.7397 0.6528
vn -0.4704 -0.7936 0.3859
vn -0.2755 -0.3672 -0.8884
vn 0.4546 0.7851 -0.4206
vn 0.2144 0.2705 0.9385
vn 0.0852 0.1310 0.9877
vn -0.6873 -0.6981 0.2007
vn -0.1520 -0.1633 -0.9748
vn 0.6764 0.7159 -0.1732
vn 0.6613 0.5828 -0.4722
vn 0.3201 0.3323 0.8872
vn -0.6882 -0.5745 0.4430
vn -0.3349 -0.3094 -0.8900
vn -0.7115 -0.6626 -0.2338
vn 0.1842 0.1159 -0.9760
vn 0.7594 0.5981 0.2560
vn -0.1778 -0.2157 0.9601
s 1
f 4/1/1 5/2/2 1/3/3
f 1/4/3 6/5/4 2/6/5
f 2/7/5 7/8/6 3/9/7
f 3/10/7 8/11/8 4/12/1
f 8/13/8 9/14/9 5/15/2
f 5/16/2 10/17/10 6/18/4
f 6/19/4 11/20/11 7/21/6
f 7/22/6 12/23/12 8/24/8
f 12/25/12 13/26/13 9/27/9
f 9/28/9 14/29/14 10/30/10
f 10/31/10 15/32/15 11/33/11
f 11/34/11 16/35/16 12/36/12
f 16/37/16 17/38/17 13/39/13
f 13/40/13 18/41/18 14/42/14
f 14/43/14 19/44/19 15/45/15
f 15/46/15 20/47/20 16/48/16
f 20/49/20 21/50/21 17/51/17
f 17/52/17 22/53/22 18/54/18
f 18/55/18 23/56/23 19/57/19
f 19/58/19 24/59/24 20/60/20
f 24/61/24 25/62/25 21/63/21
f 21/64/21 26/65/26 22/66/22
f 22/67/22 27/68/27 23/69/23
f 23/70/23 28/71/28 24/72/24
f 28/73/28 29/74/29 25/75/25
f 25/76/25 30/77/30 26/78/26
f 26/79/26 31/80/31 27/81/27
f 27/82/27 32/83/32 28/84/28
f 32/85/32 33/86/33 29/87/29
f 29/88/29 34/89/34 30/90/30
f 30/91/30 35/92/35 31/93/31
f 31/94/31 36/95/36 32/96/32
f 36/97/36 37/98/37 33/99/33
f 33/100/33 38/101/38 34/102/34
f 34/103/34 39/104/39 35/105/35
f 35/106/35 40/107/40 36/108/36
f 40/109/40 41/110/41 37/111/37
f 37/112/37 42/113/42 38/114/38
f 38/115/38 43/116/43 39/117/39
f 39/118/39 44/119/44 40/120/40
f 48/121/45 49/122/46 45/123/47
f 45/124/47 50/125/48 46/126/49
f 46/127/49 51/128/50 47/129/51
f 47/130/51 52/131/52 48/132/45
f 52/133/52 53/134/53 49/135/46
f 49/136/46 54/137/54 50/138/48
f 50/139/48 55/140/55 51/141/50
f 51/142/50 56/143/56 52/144/52
f 56/145/56 57/146/57 53/147/53
f 53/148/53 58/149/58 54/150/54
f 54/151/54 59/152/59 55/153/55
f 55/154/55 60/155/60 56/156/56
f 60/157/60 61/158/61 57/159/57
f 57/160/57 62/161/62 58/162/58
f 58/163/58 63/164/63 59/165/59
f 59/166/59 64/167/64 60/168/60
f 64/169/64 65/170/65 61/171/61
f 61/172/61 66/173/66 62/174/62
f 62/175/62 67/176/67 63/177/63
f 63/178/63 68/179/68 64/180/64
f 68/181/68 69/182/69 65/183/65
f 65/184/65 70/185/70 66/186/66
f 66/187/66 71/188/71 67/189/67
f 67/190/67 72/191/72 68/192/68
f 72/193/72 73/194/73 69/195/69
f 69/196/69 74/197/74 70/198/70
f 70/199/70 75/200/75 71/201/71
f 71/202/71 76/203/76 72/204/72
f 76/205/76 77/206/77 73/207/73
f 73/208/73 78/209/78 74/210/74
f 74/211/74 79/212/79 75/213/75
f 75/214/75 80/215/80 76/216/76
f 80/217/80 81/218/81 77/219/77
f 77/220/77 82/221/82 78/222/78
f 78/223/78 83/224/83 79/225/79
f 79/226/79 84/227/84 80/228/80
f 84/229/84 85/230/85 81/231/81
f 81/232/81 86/233/86 82/234/82
f 82/235/82 87/236/87 83/237/83
f 83/238/83 88/239/88 84/240/84
f 92/241/89 93/242/90 89/243/91
f 89/244/91 94/245/92 90/246/93
f 90/247/93 95/248/94 91/249/95
f 91/250/95 96/251/96 92/252/89
f 96/253/96 97/254/97 93/255/90
f 93/256/90 98/257/98 94/258/92
f 94/259/92 99/260/99 95/261/94
f 95/262/94 100/263/100 96/264/96
f 100/265/100 101/266/101 97/267/97
f 97/268/97 102/269/102 98/270/98
f 98/271/98 103/272/103 99/273/99
f 99/274/99 104/275/104 100/276/100
f 104/277/104 105/278/105 101/279/101
f 101/280/101 106/281/106 102/282/102
f 102/283/102 107/284/107 103/285/103
f 103/286/103 108/287/108 104/288/104
f 108/289/108 109/290/109 105/291/105
f 105/292/105 110/293/110 106/294/106
f 106/295/106 111/296/111 107/297/107
f 107/298/107 112/299/112 108/300/108
f 112/301/112 113/302/113 109/303/109
f 109/304/109 114/305/114 110/306/110
f 110/307/110 115/308/115 111/309/111
f 111/310/111 116/311/116 112/312/112
f 116/313/116 117/314/117 113/315/113
f 113/316/113 118/317/118 114/318/114
f 114/319/114 119/320/119 115/321/115
f 115/322/115 120/323/120 116/324/116
f 120/325/120 121/326/121 117/327/117
f 117/328/117 122/329/122 118/330/118
f 118/331/118 123/332/123 119/333/119
f 119/334/119 124/335/124 120/336/120
f 124/337/124 125/338/125 121/339/121
f 121/340/121 126/341/126 122/342/122
f 122/343/122 127/344/127 123/345/123
f 123/346/123 128/347/128 124/348/124
f 128/349/128 129/350/129 125/351/125
f 125/352/125 130/353/130 126/354/126
f 126/355/126 131/356/131 127/357/127
f 127/358/127 132/359/132 128/360/128
f 4/1/1 8/11/8 5/15/2
f 1/4/3 5/2/2 6/18/4
f 2/7/5 6/5/4 7/21/6
f 3/10/7 7/8/6 8/24/8
f 8/13/8 12/23/12 9/27/9
f 5/16/2 9/14/9 10/30/10
f 6/19/4 10/17/10 11/33/11
f 7/22/6 11/20/11 12/36/12
f 12/25/12 16/35/16 13/39/13
f 9/28/9 13/26/13 14/42/14
f 10/31/10 14/29/14 15/45/15
f 11/34/11 15/32/15 16/48/16
f 16/37/16 20/47/20 17/51/17
f 13/40/13 17/38/17 18/54/18
f 14/43/14 18/41/18 19/57/19
f 15/46/15 19/44/19 20/60/20
f 20/49/20 24/59/24 21/63/21
f 17/52/17 21/50/21 22/66/22
f 18/55/18 22/53/22 23/69/23
f 19/58/19 23/56/23 24/72/24
f 24/61/24 28/71/28 25/75/25
f 21/64/21 25/62/25 26/78/26
f 22/67/22 26/65/26 27/81/27
f 23/70/23 27/68/27 28/84/28
f 28/73/28 32/83/32 29/87/29
f 25/76/25 29/74/29 30/90/30
f 26/79/26 30/77/30 31/93/31
f 27/82/27 31/80/31 32/96/32
f 32/85/32 36/95/36 33/99/33
f 29/88/29 33/86/33 34/102/34
f 30/91/30 34/89/34 35/105/35
f 31/94/31 35/92/35 36/108/36
f 36/97/36 40/107/40 37/111/37
f 33/100/33 37/98/37 38/114/38
f 34/103/34 38/101/38 39/117/39
f 35/106/35 39/104/39 40/120/40
f 40/109/40 44/119/44 41/361/41
f 37/112/37 41/110/41 42/362/42
f 38/115/38 42/113/42 43/363/43
f 39/118/39 43/116/43 44/364/44
f 48/121/45 52/131/52 49/135/46
f 45/124/47 49/122/46 50/138/48
f 46/127/49 50/125/48 51/141/50
f 47/130/51 51/128/50 52/144/52
f 52/133/52 56/143/56 53/147/53
f 49/136/46 53/134/53 54/150/54
f 50/139/48 54/137/54 55/153/55
f 51/142/50 55/140/55 56/156/56
f 56/145/56 60/155/60 57/159/57
f 53/148/53 57/146/57 58/162/58
f 54/151/54 58/149/58 59/165/59
f 55/154/55 59/152/59 60/168/60
f 60/157/60 64/167/64 61/171/61
f 57/160/57 61/158/61 62/174/62
f 58/163/58 62/161/62 63/177/63
f 59/166/59 63/164/63 64/180/64
f 64/169/64 68/179/68 65/183/65
f 61/172/61 65/170/65 66/186/66
f 62/175/62 66/173/66 67/189/67
f 63/178/63 67/176/67 68/192/68
f 68/181/68 72/191/72 69/195/69
f 65/184/65 69/182/69 70/198/70
f 66/187/66 70/185/70 71/201/71
f 67/190/67 71/188/71 72/204/72
f 72/193/72 76/203/76 73/207/73
f 69/196/69 73/194/73 74/210/74
f 70/199/70 74/197/74 75/213/75
f 71/202/71 75/200/75 76/216/76
f 76/205/76 80/215/80 77/219/77
f 73/208/73 77/206/77 78/222/78
f 74/211/74 78/209/78 79/225/79
f 75/214/75 79/212/79 80/228/80
f 80/217/80 84/227/84 81/231/81
f 77/220/77 81/218/81 82/234/82
f 78/223/78 82/221/82 83/237/83
f 79/226/79 83/224/83 84/240/84
f 84/229/84 88/239/88 85/365/85
f 81/232/81 85/230/85 86/366/86
f 82/235/82 86/233/86 87/367/87
f 83/238/83 87/236/87 88/368/88
f 92/241/89 96/251/96 93/255/90
f 89/244/91 93/242/90 94/258/92
f 90/247/93 94/245/92 95/261/94
f 91/250/95 95/248/94 96/264/96
f 96/253/96 100/263/100 97/267/97
f 93/256/90 97/254/97 98/270/98
f 94/259/92 98/257/98 99/273/99
f 95/262/94 99/260/99 100/276/100
f 100/265/100 104/275/104 101/279/101
f 97/268/97 101/266/101 102/282/102
f 98/271/98 102/269/102 103/285/103
f 99/274/99 103/272/103 104/288/104
f 104/277/104 108/287/108 105/291/105
f 101/280/101 105/278/105 106/294/106
f 102/283/102 106/281/106 107/297/107
f 103/286/103 107/284/107 108/300/108
f 108/289/108 112/299/112 109/303/109
f 105/292/105 109/290/109 110/306/110
f 106/295/106 110/293/110 111/309/111
f 107/298/107 111/296/111 112/312/112
f 112/301/112 116/311/116 113/315/113
f 109/304/109 113/302/113 114/318/114
f 110/307/110 114/305/114 115/321/115
f 111/310/111 115/308/115 116/324/116
f 116/313/116 120/323/120 117/327/117
f 113/316/113 117/314/117 118/330/118
f 114/319/114 118/317/118 119/333/119
f 115/322/115 119/320/119 120/336/120
f 120/325/120 124/335/124 121/339/121
f 117/328/117 121/326/121 122/342/122
f 118/331/118 122/329/122 123/345/123
f 119/334/119 123/332/123 124/348/124
f 124/337/124 128/347/128 125/351/125
f 121/340/121 125/338/125 126/354/126
f 122/343/122 126/341/126 127/357/127
f 123/346/123 127/344/127 128/360/128
f 128/349/128 132/359/132 129/369/129
f 125/352/125 129/350/129 130/370/130
f 126/355/126 130/353/130 131/371/131
f 127/358/127 131/356/131 132/372/132
