# Blender v2.79 (sub 0) OBJ File: ''
# www.blender.org
mtllib military-net.mtl
o Plane
v -1.108212 -0.050693 1.114765
v 1.038040 -0.147993 1.003217
v -1.050968 -0.141185 -1.005139
v 1.108466 -0.052365 -1.119513
v -1.049063 -0.040557 -0.963126
v -1.062161 0.020955 -0.925406
v -1.062816 0.002133 -0.876863
v -1.074752 0.002182 -0.768191
v -1.081724 0.002292 -0.659095
v -1.083466 0.001639 -0.549759
v -1.082902 0.000719 -0.440379
v -1.081482 -0.000119 -0.330992
v -1.079967 -0.000716 -0.221607
v -1.078647 -0.001045 -0.112233
v -1.077499 -0.001162 -0.002876
v -1.076285 -0.001145 0.106464
v -1.074922 -0.001015 0.215785
v -1.073518 -0.000742 0.325085
v -1.072538 -0.000238 0.434363
v -1.073057 0.000658 0.543609
v -1.075718 0.002237 0.652824
v -1.079533 0.004741 0.762005
v -1.082628 0.007968 0.871179
v -1.080560 0.013778 0.950873
v -1.062920 -0.016753 1.054137
v -1.038724 -0.019500 1.101029
v -0.934193 -0.005578 1.129146
v -0.862509 -0.046192 1.057611
v -0.754342 -0.058228 1.065401
v -0.646383 -0.069802 1.077255
v -0.538028 -0.081009 1.086148
v -0.429504 -0.092132 1.092868
v -0.320832 -0.103555 1.097392
v -0.211788 -0.112412 1.100241
v -0.102312 -0.114899 1.101696
v 0.007258 -0.116422 1.102061
v 0.116839 -0.116618 1.102350
v 0.226394 -0.115494 1.103083
v 0.335529 -0.105871 1.101711
v 0.444564 -0.095487 1.098688
v 0.553370 -0.084645 1.093094
v 0.661741 -0.074003 1.082904
v 0.769550 -0.063178 1.068347
v 0.873670 -0.037796 1.047622
v 0.939338 -0.021671 1.103437
v 1.014050 -0.068657 1.039057
v 1.060878 -0.047537 0.967321
v 1.049956 -0.002668 0.982797
v 1.060509 -0.001554 0.875683
v 1.079725 -0.000884 0.768140
v 1.088819 -0.000326 0.659287
v 1.090945 -0.000910 0.550031
v 1.090242 -0.001961 0.440703
v 1.088390 -0.003026 0.331357
v 1.086214 -0.003871 0.222002
v 1.084182 -0.004424 0.112658
v 1.082503 -0.004703 0.003324
v 1.081120 -0.004768 -0.105991
v 1.079887 -0.004676 -0.215289
v 1.078700 -0.004449 -0.324564
v 1.077870 -0.004031 -0.433819
v 1.078203 -0.003298 -0.543046
v 1.080576 -0.001937 -0.652251
v 1.084534 0.000398 -0.761414
v 1.088842 0.003731 -0.870537
v 1.087559 0.008515 -0.954589
v 1.068720 -0.018310 -1.058681
v 1.040323 -0.018194 -1.108906
v 0.936872 0.001621 -1.137480
v 0.866005 -0.043859 -1.068114
v 0.760980 -0.056838 -1.066252
v 0.652854 -0.069106 -1.075691
v 0.544647 -0.080645 -1.085509
v 0.436184 -0.092211 -1.092838
v 0.327548 -0.104153 -1.097342
v 0.218510 -0.113316 -1.100077
v 0.109000 -0.115550 -1.100975
v -0.000568 -0.116751 -1.101524
v -0.110155 -0.116680 -1.102394
v -0.219733 -0.115449 -1.103316
v -0.328881 -0.105651 -1.101945
v -0.437924 -0.094959 -1.099324
v -0.546740 -0.083780 -1.094355
v -0.655229 -0.072677 -1.085905
v -0.763269 -0.061574 -1.073440
v -0.867975 -0.036452 -1.055395
v -0.938282 -0.022823 -1.091304
v -1.021323 -0.056926 -1.028721
v -1.048719 0.091022 1.083942
v -1.058559 0.120623 0.978679
v -1.055218 0.114542 0.868644
v -1.054482 0.112146 0.760087
v -1.054059 0.110701 0.651633
v -1.054609 0.109827 0.542810
v -1.055165 0.108852 0.433712
v -1.055452 0.108257 0.324576
v -1.055716 0.107631 0.215405
v -1.056071 0.107176 0.106211
v -1.056455 0.106961 -0.003009
v -1.056907 0.106965 -0.112223
v -1.057277 0.107143 -0.221426
v -1.057664 0.107437 -0.330596
v -1.058071 0.107944 -0.439733
v -1.058614 0.108642 -0.548856
v -1.059329 0.109578 -0.657990
v -1.060240 0.111045 -0.767132
v -1.061621 0.114370 -0.876670
v -1.063850 0.117713 -0.990820
v -1.028989 0.011606 -1.014846
v -0.939007 0.087987 1.072198
v -0.952760 0.148714 0.981461
v -0.952168 0.149078 0.869758
v -0.952134 0.149990 0.760692
v -0.952984 0.150772 0.651599
v -0.954112 0.151252 0.542459
v -0.954873 0.151810 0.433292
v -0.955691 0.152421 0.324116
v -0.956453 0.152794 0.214949
v -0.957079 0.152986 0.105770
v -0.957540 0.152844 -0.003410
v -0.957807 0.152599 -0.112560
v -0.958026 0.152361 -0.221696
v -0.958096 0.152023 -0.330842
v -0.958140 0.151618 -0.439990
v -0.958120 0.151116 -0.549147
v -0.958102 0.150314 -0.658313
v -0.958079 0.149373 -0.767465
v -0.959355 0.147195 -0.876499
v -0.959820 0.152088 -0.990029
v -0.968451 0.085362 -1.076312
v -0.850495 0.064479 1.064506
v -0.843032 0.130579 0.979076
v -0.848279 0.112227 0.869178
v -0.849623 0.110836 0.759915
v -0.851163 0.109398 0.650666
v -0.852396 0.109145 0.541428
v -0.853429 0.109296 0.432324
v -0.854361 0.109487 0.323214
v -0.855302 0.109522 0.214133
v -0.856012 0.109654 0.105184
v -0.856321 0.109779 -0.003702
v -0.856598 0.109748 -0.112678
v -0.856635 0.109760 -0.221738
v -0.856640 0.109735 -0.330828
v -0.856547 0.109759 -0.439935
v -0.856441 0.109737 -0.549056
v -0.856257 0.109810 -0.658206
v -0.856116 0.109803 -0.767402
v -0.855998 0.109847 -0.876655
v -0.849994 0.130407 -0.985599
v -0.859951 0.059850 -1.067276
v -0.742103 0.051864 1.065380
v -0.735361 0.116839 0.976094
v -0.740803 0.092690 0.867841
v -0.742532 0.092541 0.758973
v -0.743867 0.092736 0.649900
v -0.744949 0.092908 0.540808
v -0.745904 0.093058 0.431720
v -0.746888 0.093176 0.322661
v -0.748124 0.093454 0.214108
v -0.748160 0.093387 0.105090
v -0.748530 0.093419 -0.003651
v -0.748908 0.093474 -0.112473
v -0.748900 0.093488 -0.221583
v -0.749057 0.093525 -0.330445
v -0.749197 0.093526 -0.439327
v -0.749076 0.093490 -0.548420
v -0.749038 0.093518 -0.657513
v -0.749095 0.093503 -0.766625
v -0.748071 0.093395 -0.874281
v -0.742939 0.112023 -0.982788
v -0.751381 0.047778 -1.070617
v -0.633719 0.038982 1.065563
v -0.627642 0.099442 0.974040
v -0.632910 0.076210 0.866301
v -0.635163 0.076407 0.758167
v -0.636512 0.076601 0.649339
v -0.637801 0.076780 0.540605
v -0.638825 0.076974 0.431593
v -0.639673 0.077154 0.323070
v -0.639949 0.077094 0.213898
v -0.640797 0.077212 0.105647
v -0.641166 0.077286 -0.003259
v -0.642355 0.077480 -0.111758
v -0.641798 0.077296 -0.220748
v -0.642112 0.077419 -0.329448
v -0.642099 0.077383 -0.438300
v -0.642410 0.077471 -0.547122
v -0.642601 0.077512 -0.656163
v -0.641180 0.077327 -0.764144
v -0.640194 0.077248 -0.871979
v -0.635246 0.094586 -0.980422
v -0.642824 0.035656 -1.072003
v -0.525386 0.025773 1.063242
v -0.519941 0.082262 0.971987
v -0.524967 0.060266 0.864549
v -0.528477 0.060397 0.757505
v -0.529409 0.060509 0.649201
v -0.530841 0.060716 0.540547
v -0.531747 0.060811 0.432144
v -0.532368 0.060899 0.323314
v -0.533124 0.061039 0.214963
v -0.533534 0.061096 0.106068
v -0.534382 0.061240 -0.002370
v -0.534227 0.061184 -0.111211
v -0.534715 0.061331 -0.219817
v -0.534824 0.061388 -0.328580
v -0.535155 0.061421 -0.437456
v -0.535613 0.061418 -0.546181
v -0.535287 0.061454 -0.653842
v -0.534450 0.061290 -0.762419
v -0.534559 0.061762 -0.871027
v -0.528760 0.078516 -0.978955
v -0.534415 0.022998 -1.072739
v -0.417122 0.012731 1.063753
v -0.412005 0.066567 0.969899
v -0.417143 0.043779 0.862848
v -0.420509 0.044208 0.757301
v -0.421971 0.044439 0.648587
v -0.423741 0.044712 0.541096
v -0.424287 0.044836 0.432252
v -0.425320 0.044990 0.324255
v -0.425724 0.045049 0.215259
v -0.426689 0.045176 0.106955
v -0.426590 0.045160 -0.001839
v -0.427477 0.045288 -0.110327
v -0.427568 0.045269 -0.219229
v -0.427994 0.045342 -0.327747
v -0.428104 0.045365 -0.436605
v -0.427869 0.045316 -0.544822
v -0.427335 0.045242 -0.652461
v -0.428057 0.045324 -0.760612
v -0.426919 0.045266 -0.867696
v -0.420994 0.061272 -0.975749
v -0.426357 0.010449 -1.072154
v -0.311321 0.001817 1.068905
v -0.309473 0.055222 0.972993
v -0.310997 0.034910 0.865545
v -0.315677 0.030748 0.759233
v -0.315718 0.030782 0.650090
v -0.316977 0.030825 0.542218
v -0.317701 0.030791 0.434057
v -0.318550 0.030804 0.325230
v -0.319561 0.030796 0.216744
v -0.319577 0.030805 0.108317
v -0.320952 0.030772 -0.000732
v -0.321169 0.030777 -0.109532
v -0.321773 0.030792 -0.218338
v -0.321927 0.030789 -0.327287
v -0.322036 0.030776 -0.435923
v -0.322099 0.030787 -0.544492
v -0.321900 0.030782 -0.653500
v -0.322803 0.030766 -0.760934
v -0.324341 0.031838 -0.868913
v -0.317324 0.051131 -0.976373
v -0.318509 -0.000646 -1.073094
v -0.208558 -0.006229 1.072195
v -0.204521 0.047540 0.977313
v -0.206953 0.030843 0.868711
v -0.207062 0.030772 0.759613
v -0.206408 0.030851 0.650154
v -0.208414 0.030774 0.543015
v -0.209021 0.030752 0.434156
v -0.211230 0.030749 0.326240
v -0.210473 0.030788 0.217402
v -0.212139 0.030765 0.108328
v -0.212428 0.030768 -0.000561
v -0.213167 0.030781 -0.109460
v -0.213403 0.030786 -0.218557
v -0.213720 0.030753 -0.327533
v -0.213731 0.030747 -0.436604
v -0.213832 0.030748 -0.545694
v -0.214000 0.030746 -0.654785
v -0.214170 0.030774 -0.763940
v -0.219243 0.030903 -0.872927
v -0.219408 0.048219 -0.981572
v -0.218292 -0.009831 -1.073997
v -0.100114 -0.008357 1.076226
v -0.102362 0.046158 0.981722
v -0.102972 0.031659 0.872890
v -0.101557 0.030814 0.763771
v -0.101957 0.030734 0.654717
v -0.102292 0.030721 0.545588
v -0.103114 0.030807 0.436468
v -0.101981 0.030850 0.327282
v -0.104174 0.030795 0.218155
v -0.104542 0.030816 0.109167
v -0.105683 0.030752 0.000072
v -0.106009 0.030786 -0.108984
v -0.106633 0.030768 -0.218074
v -0.107034 0.030769 -0.327234
v -0.107299 0.030726 -0.436324
v -0.107524 0.030771 -0.545493
v -0.107656 0.030759 -0.654582
v -0.110279 0.030785 -0.763668
v -0.110507 0.030886 -0.872923
v -0.110326 0.048651 -0.981379
v -0.109747 -0.011021 -1.072760
v 0.008160 -0.010488 1.073345
v 0.006364 0.047827 0.981123
v 0.006124 0.030910 0.872614
v 0.005837 0.030781 0.763524
v 0.006793 0.030701 0.654377
v 0.005979 0.030714 0.545279
v 0.005580 0.030680 0.436188
v 0.004228 0.030744 0.327104
v 0.003996 0.030763 0.218015
v 0.002651 0.030779 0.108861
v 0.002195 0.030980 -0.000128
v 0.001664 0.030781 -0.109229
v 0.001296 0.030723 -0.218256
v 0.000996 0.030767 -0.327506
v 0.000590 0.030766 -0.436629
v 0.000460 0.030657 -0.545731
v -0.000928 0.030665 -0.654844
v -0.001289 0.030815 -0.763948
v -0.002033 0.030877 -0.872370
v -0.001118 0.048743 -0.980863
v -0.001309 -0.010938 -1.072217
v 0.116528 -0.011215 1.071609
v 0.115187 0.049304 0.980803
v 0.115003 0.030891 0.872431
v 0.113556 0.030784 0.763874
v 0.113097 0.030758 0.654744
v 0.112137 0.030656 0.545644
v 0.111575 0.030539 0.436560
v 0.111832 0.030689 0.327458
v 0.110738 0.030681 0.218378
v 0.110749 0.030683 0.109281
v 0.109863 0.030702 0.000396
v 0.109346 0.030783 -0.108506
v 0.108619 0.030776 -0.217197
v 0.107906 0.030898 -0.326074
v 0.107409 0.030740 -0.435107
v 0.106652 0.030805 -0.544196
v 0.106245 0.030756 -0.653292
v 0.106175 0.030769 -0.762383
v 0.106895 0.030897 -0.871462
v 0.107661 0.047811 -0.980084
v 0.107150 -0.009413 -1.072981
v 0.225074 -0.010721 1.070973
v 0.224285 0.049874 0.980212
v 0.223653 0.030882 0.872052
v 0.222064 0.030801 0.763569
v 0.219460 0.030820 0.654523
v 0.219519 0.030805 0.545401
v 0.219264 0.030680 0.436393
v 0.218861 0.030756 0.327259
v 0.218707 0.030736 0.218406
v 0.217983 0.030786 0.109584
v 0.217514 0.030807 0.000763
v 0.216965 0.030648 -0.107884
v 0.216385 0.030772 -0.216643
v 0.215850 0.030802 -0.325375
v 0.215070 0.030763 -0.434434
v 0.214686 0.030763 -0.543552
v 0.214335 0.030779 -0.652413
v 0.214605 0.030764 -0.761636
v 0.215979 0.031329 -0.870769
v 0.216405 0.046520 -0.979422
v 0.215721 -0.006847 -1.074568
v 0.325329 -0.000153 1.075562
v 0.332922 0.050881 0.979440
v 0.332801 0.032258 0.871500
v 0.326474 0.030772 0.762592
v 0.327841 0.030788 0.653741
v 0.327117 0.030803 0.545276
v 0.326679 0.030802 0.436452
v 0.327066 0.030777 0.328152
v 0.326323 0.030788 0.219251
v 0.326079 0.030823 0.110290
v 0.325510 0.030808 0.001685
v 0.325108 0.030835 -0.107308
v 0.324482 0.030819 -0.215829
v 0.323495 0.030810 -0.324702
v 0.322824 0.030833 -0.433098
v 0.321880 0.030785 -0.541733
v 0.320805 0.030808 -0.649736
v 0.320457 0.030796 -0.757508
v 0.318430 0.032965 -0.863965
v 0.313132 0.053548 -0.971353
v 0.317769 0.000365 -1.066456
v 0.433229 0.010448 1.073635
v 0.427178 0.061561 0.977437
v 0.432418 0.046092 0.869271
v 0.434484 0.046293 0.761222
v 0.432687 0.046075 0.653394
v 0.433951 0.046226 0.545147
v 0.433773 0.046204 0.437943
v 0.433464 0.046165 0.328844
v 0.432816 0.046077 0.220386
v 0.432580 0.046047 0.111514
v 0.432021 0.045948 0.002678
v 0.431571 0.045900 -0.106181
v 0.430764 0.045754 -0.215043
v 0.430521 0.045709 -0.323572
v 0.429805 0.045616 -0.432067
v 0.429074 0.045510 -0.540770
v 0.428222 0.045357 -0.648862
v 0.427709 0.045281 -0.757059
v 0.423455 0.044729 -0.863499
v 0.418557 0.067294 -0.970779
v 0.423250 0.012525 -1.063236
v 0.541310 0.022234 1.072872
v 0.534787 0.079312 0.980110
v 0.539308 0.063105 0.871984
v 0.540498 0.062231 0.762888
v 0.540819 0.062191 0.655223
v 0.540864 0.062249 0.547638
v 0.540032 0.062195 0.439260
v 0.539602 0.062199 0.330073
v 0.539780 0.062069 0.221264
v 0.539485 0.062011 0.112184
v 0.539046 0.061948 0.003532
v 0.538328 0.061851 -0.105565
v 0.538043 0.061763 -0.214107
v 0.537580 0.061722 -0.322854
v 0.536893 0.061644 -0.431573
v 0.536143 0.061516 -0.540284
v 0.535020 0.061386 -0.648927
v 0.533820 0.061142 -0.757550
v 0.531286 0.060860 -0.864927
v 0.526469 0.083489 -0.972609
v 0.531452 0.026369 -1.063400
v 0.649728 0.034636 1.071586
v 0.641619 0.095985 0.981699
v 0.646426 0.078174 0.873271
v 0.647535 0.078267 0.765555
v 0.648581 0.078387 0.657285
v 0.648095 0.078297 0.548035
v 0.647657 0.078238 0.439336
v 0.647731 0.078257 0.330142
v 0.647030 0.078160 0.221667
v 0.646865 0.078181 0.112698
v 0.645427 0.078101 0.004502
v 0.645628 0.077924 -0.104536
v 0.645385 0.077891 -0.213667
v 0.645034 0.077815 -0.322751
v 0.644231 0.077728 -0.431387
v 0.643467 0.077616 -0.540392
v 0.642403 0.077455 -0.649275
v 0.641352 0.077280 -0.757992
v 0.639205 0.077112 -0.866302
v 0.634402 0.099186 -0.974543
v 0.639699 0.039989 -1.063609
v 0.758296 0.046476 1.069676
v 0.749287 0.113563 0.984009
v 0.754348 0.094280 0.875475
v 0.755393 0.094444 0.767451
v 0.754780 0.094342 0.658351
v 0.754721 0.094365 0.549246
v 0.754597 0.094187 0.440238
v 0.754357 0.094304 0.331340
v 0.754087 0.094271 0.222458
v 0.753856 0.094215 0.113463
v 0.753616 0.094166 0.004408
v 0.753391 0.094157 -0.104719
v 0.752753 0.094084 -0.213499
v 0.752147 0.093958 -0.322333
v 0.751422 0.093795 -0.431356
v 0.750570 0.093724 -0.540461
v 0.749784 0.093635 -0.649572
v 0.748586 0.093461 -0.758681
v 0.747176 0.093256 -0.867740
v 0.742128 0.115586 -0.976385
v 0.747989 0.053254 -1.065837
v 0.866803 0.059365 1.068542
v 0.857123 0.130002 0.986923
v 0.862267 0.110427 0.877547
v 0.862003 0.110508 0.768231
v 0.861961 0.110587 0.658985
v 0.862030 0.110568 0.549785
v 0.862048 0.110549 0.440621
v 0.862012 0.110549 0.331483
v 0.861903 0.110539 0.222363
v 0.861722 0.110523 0.113265
v 0.861466 0.110538 0.004176
v 0.861132 0.110450 -0.104899
v 0.860668 0.110342 -0.213900
v 0.859981 0.110262 -0.322977
v 0.859153 0.110166 -0.432079
v 0.858751 0.109947 -0.541186
v 0.857239 0.109974 -0.650501
v 0.856035 0.110637 -0.759725
v 0.854892 0.111502 -0.869032
v 0.849818 0.129943 -0.978772
v 0.855770 0.066876 -1.064918
v 0.976259 0.082118 1.075847
v 0.967733 0.151991 0.992083
v 0.966312 0.145349 0.877144
v 0.965460 0.146098 0.768085
v 0.965246 0.147348 0.658950
v 0.964929 0.148750 0.549777
v 0.964719 0.149654 0.440582
v 0.964461 0.150385 0.331372
v 0.964217 0.150906 0.222202
v 0.963866 0.151397 0.113042
v 0.963541 0.151541 0.003858
v 0.963120 0.151893 -0.105313
v 0.962589 0.151914 -0.214519
v 0.961960 0.151807 -0.323725
v 0.961245 0.151354 -0.432938
v 0.960596 0.150797 -0.542144
v 0.959810 0.150281 -0.651347
v 0.958880 0.149445 -0.760481
v 0.958954 0.148531 -0.869452
v 0.959690 0.148061 -0.981230
v 0.944207 0.090364 -1.073412
v 1.030255 0.005910 1.008875
v 1.069568 0.111676 0.991435
v 1.067066 0.108894 0.876883
v 1.067819 0.108284 0.767405
v 1.066568 0.107063 0.658201
v 1.065355 0.105844 0.549081
v 1.064089 0.104743 0.439997
v 1.063224 0.104012 0.330890
v 1.062572 0.103661 0.221751
v 1.061928 0.103444 0.112586
v 1.061341 0.103425 0.003417
v 1.060931 0.103590 -0.105796
v 1.060463 0.103865 -0.214976
v 1.060145 0.104286 -0.324140
v 1.059919 0.104840 -0.433265
v 1.059648 0.105690 -0.542356
v 1.059165 0.106623 -0.651186
v 1.059802 0.107978 -0.759665
v 1.060623 0.110153 -0.868207
v 1.063998 0.114977 -0.977817
v 1.053963 0.089791 -1.084401
vt 1.409091 1.409091
vt 1.500000 1.409091
vt 1.500000 1.500000
vt 1.409091 1.500000
vt -0.500000 1.409091
vt -0.409091 1.409091
vt -0.409091 1.500000
vt -0.500000 1.500000
vt -0.318182 1.409091
vt -0.318182 1.500000
vt -0.227273 1.409091
vt -0.227273 1.500000
vt -0.136364 1.409091
vt -0.136364 1.500000
vt -0.045455 1.409091
vt -0.045455 1.500000
vt 0.045454 1.409091
vt 0.045454 1.500000
vt 0.136364 1.409091
vt 0.136364 1.500000
vt 0.227273 1.409091
vt 0.227273 1.500000
vt 0.318182 1.409091
vt 0.318182 1.500000
vt 0.409091 1.409091
vt 0.409091 1.500000
vt 0.500000 1.409091
vt 0.500000 1.500000
vt 0.590909 1.409091
vt 0.590909 1.500000
vt 0.681818 1.409091
vt 0.681818 1.500000
vt 0.772727 1.409091
vt 0.772727 1.500000
vt 0.863636 1.409091
vt 0.863636 1.500000
vt 0.954545 1.409091
vt 0.954545 1.500000
vt 1.045455 1.409091
vt 1.045454 1.500000
vt 1.136364 1.409091
vt 1.136364 1.500000
vt 1.227273 1.409091
vt 1.227273 1.500000
vt 1.318182 1.409091
vt 1.318182 1.500000
vt -0.500000 -0.500000
vt -0.409091 -0.500000
vt -0.409091 -0.409091
vt -0.500000 -0.409091
vt -0.409091 -0.318182
vt -0.500000 -0.318182
vt -0.409091 -0.227273
vt -0.500000 -0.227273
vt -0.409091 -0.136364
vt -0.500000 -0.136364
vt -0.409091 -0.045455
vt -0.500000 -0.045455
vt -0.409091 0.045455
vt -0.500000 0.045454
vt -0.409091 0.136364
vt -0.500000 0.136364
vt -0.409091 0.227273
vt -0.500000 0.227273
vt -0.409091 0.318182
vt -0.500000 0.318182
vt -0.409091 0.409091
vt -0.500000 0.409091
vt -0.409091 0.500000
vt -0.500000 0.500000
vt -0.409091 0.590909
vt -0.500000 0.590909
vt -0.409091 0.681818
vt -0.500000 0.681818
vt -0.409091 0.772727
vt -0.500000 0.772727
vt -0.409091 0.863636
vt -0.500000 0.863636
vt -0.409091 0.954545
vt -0.500000 0.954545
vt -0.409091 1.045455
vt -0.500000 1.045454
vt -0.409091 1.136364
vt -0.500000 1.136364
vt -0.409091 1.227273
vt -0.500000 1.227273
vt -0.409091 1.318182
vt -0.500000 1.318182
vt -0.318182 -0.500000
vt -0.318182 -0.409091
vt -0.318182 -0.318182
vt -0.318182 -0.227273
vt -0.318182 -0.136364
vt -0.318182 -0.045455
vt -0.318182 0.045455
vt -0.318182 0.136364
vt -0.318182 0.227273
vt -0.318182 0.318182
vt -0.318182 0.409091
vt -0.318182 0.500000
vt -0.318182 0.590909
vt -0.318182 0.681818
vt -0.318182 0.772727
vt -0.318182 0.863636
vt -0.318182 0.954545
vt -0.318182 1.045455
vt -0.318182 1.136364
vt -0.318182 1.227273
vt -0.318182 1.318182
vt -0.227273 -0.500000
vt -0.227273 -0.409091
vt -0.227273 -0.318182
vt -0.227273 -0.227273
vt -0.227273 -0.136364
vt -0.227273 -0.045455
vt -0.227273 0.045455
vt -0.227273 0.136364
vt -0.227273 0.227273
vt -0.227273 0.318182
vt -0.227273 0.409091
vt -0.227273 0.500000
vt -0.227273 0.590909
vt -0.227273 0.681818
vt -0.227273 0.772727
vt -0.227273 0.863636
vt -0.227273 0.954545
vt -0.227273 1.045455
vt -0.227273 1.136364
vt -0.227273 1.227273
vt -0.227273 1.318182
vt -0.136364 -0.500000
vt -0.136364 -0.409091
vt -0.136364 -0.318182
vt -0.136364 -0.227273
vt -0.136364 -0.136364
vt -0.136364 -0.045455
vt -0.136364 0.045455
vt -0.136364 0.136364
vt -0.136364 0.227273
vt -0.136364 0.318182
vt -0.136364 0.409091
vt -0.136364 0.500000
vt -0.136364 0.590909
vt -0.136364 0.681818
vt -0.136364 0.772727
vt -0.136364 0.863636
vt -0.136364 0.954545
vt -0.136364 1.045455
vt -0.136364 1.136364
vt -0.136364 1.227273
vt -0.136364 1.318182
vt -0.045455 -0.500000
vt -0.045455 -0.409091
vt -0.045455 -0.318182
vt -0.045455 -0.227273
vt -0.045455 -0.136364
vt -0.045455 -0.045455
vt -0.045455 0.045455
vt -0.045455 0.136364
vt -0.045455 0.227273
vt -0.045455 0.318182
vt -0.045455 0.409091
vt -0.045455 0.500000
vt -0.045455 0.590909
vt -0.045455 0.681818
vt -0.045455 0.772727
vt -0.045455 0.863636
vt -0.045455 0.954545
vt -0.045455 1.045455
vt -0.045455 1.136364
vt -0.045455 1.227273
vt -0.045455 1.318182
vt 0.045455 -0.500000
vt 0.045455 -0.409091
vt 0.045455 -0.318182
vt 0.045455 -0.227273
vt 0.045455 -0.136364
vt 0.045455 -0.045455
vt 0.045455 0.045455
vt 0.045455 0.136364
vt 0.045455 0.227273
vt 0.045455 0.318182
vt 0.045455 0.409091
vt 0.045455 0.500000
vt 0.045454 0.590909
vt 0.045454 0.681818
vt 0.045454 0.772727
vt 0.045454 0.863636
vt 0.045454 0.954545
vt 0.045454 1.045455
vt 0.045454 1.136364
vt 0.045454 1.227273
vt 0.045454 1.318182
vt 0.136364 -0.500000
vt 0.136364 -0.409091
vt 0.136364 -0.318182
vt 0.136364 -0.227273
vt 0.136364 -0.136364
vt 0.136364 -0.045455
vt 0.136364 0.045455
vt 0.136364 0.136364
vt 0.136364 0.227273
vt 0.136364 0.318182
vt 0.136364 0.409091
vt 0.136364 0.500000
vt 0.136364 0.590909
vt 0.136364 0.681818
vt 0.136364 0.772727
vt 0.136364 0.863636
vt 0.136364 0.954545
vt 0.136364 1.045455
vt 0.136364 1.136364
vt 0.136364 1.227273
vt 0.136364 1.318182
vt 0.227273 -0.500000
vt 0.227273 -0.409091
vt 0.227273 -0.318182
vt 0.227273 -0.227273
vt 0.227273 -0.136364
vt 0.227273 -0.045455
vt 0.227273 0.045455
vt 0.227273 0.136364
vt 0.227273 0.227273
vt 0.227273 0.318182
vt 0.227273 0.409091
vt 0.227273 0.500000
vt 0.227273 0.590909
vt 0.227273 0.681818
vt 0.227273 0.772727
vt 0.227273 0.863636
vt 0.227273 0.954545
vt 0.227273 1.045455
vt 0.227273 1.136364
vt 0.227273 1.227273
vt 0.227273 1.318182
vt 0.318182 -0.500000
vt 0.318182 -0.409091
vt 0.318182 -0.318182
vt 0.318182 -0.227273
vt 0.318182 -0.136364
vt 0.318182 -0.045455
vt 0.318182 0.045455
vt 0.318182 0.136364
vt 0.318182 0.227273
vt 0.318182 0.318182
vt 0.318182 0.409091
vt 0.318182 0.500000
vt 0.318182 0.590909
vt 0.318182 0.681818
vt 0.318182 0.772727
vt 0.318182 0.863636
vt 0.318182 0.954545
vt 0.318182 1.045455
vt 0.318182 1.136364
vt 0.318182 1.227273
vt 0.318182 1.318182
vt 0.409091 -0.500000
vt 0.409091 -0.409091
vt 0.409091 -0.318182
vt 0.409091 -0.227273
vt 0.409091 -0.136364
vt 0.409091 -0.045455
vt 0.409091 0.045455
vt 0.409091 0.136364
vt 0.409091 0.227273
vt 0.409091 0.318182
vt 0.409091 0.409091
vt 0.409091 0.500000
vt 0.409091 0.590909
vt 0.409091 0.681818
vt 0.409091 0.772727
vt 0.409091 0.863636
vt 0.409091 0.954545
vt 0.409091 1.045455
vt 0.409091 1.136364
vt 0.409091 1.227273
vt 0.409091 1.318182
vt 0.500000 -0.500000
vt 0.500000 -0.409091
vt 0.500000 -0.318182
vt 0.500000 -0.227273
vt 0.500000 -0.136364
vt 0.500000 -0.045455
vt 0.500000 0.045455
vt 0.500000 0.136364
vt 0.500000 0.227273
vt 0.500000 0.318182
vt 0.500000 0.409091
vt 0.500000 0.500000
vt 0.500000 0.590909
vt 0.500000 0.681818
vt 0.500000 0.772727
vt 0.500000 0.863636
vt 0.500000 0.954545
vt 0.500000 1.045455
vt 0.500000 1.136364
vt 0.500000 1.227273
vt 0.500000 1.318182
vt 0.590909 -0.500000
vt 0.590909 -0.409091
vt 0.590909 -0.318182
vt 0.590909 -0.227273
vt 0.590909 -0.136364
vt 0.590909 -0.045455
vt 0.590909 0.045455
vt 0.590909 0.136364
vt 0.590909 0.227273
vt 0.590909 0.318182
vt 0.590909 0.409091
vt 0.590909 0.500000
vt 0.590909 0.590909
vt 0.590909 0.681818
vt 0.590909 0.772727
vt 0.590909 0.863636
vt 0.590909 0.954545
vt 0.590909 1.045455
vt 0.590909 1.136364
vt 0.590909 1.227273
vt 0.590909 1.318182
vt 0.681818 -0.500000
vt 0.681818 -0.409091
vt 0.681818 -0.318182
vt 0.681818 -0.227273
vt 0.681818 -0.136364
vt 0.681818 -0.045455
vt 0.681818 0.045455
vt 0.681818 0.136364
vt 0.681818 0.227273
vt 0.681818 0.318182
vt 0.681818 0.409091
vt 0.681818 0.500000
vt 0.681818 0.590909
vt 0.681818 0.681818
vt 0.681818 0.772727
vt 0.681818 0.863636
vt 0.681818 0.954545
vt 0.681818 1.045455
vt 0.681818 1.136364
vt 0.681818 1.227273
vt 0.681818 1.318182
vt 0.772727 -0.500000
vt 0.772727 -0.409091
vt 0.772727 -0.318182
vt 0.772727 -0.227273
vt 0.772727 -0.136364
vt 0.772727 -0.045455
vt 0.772727 0.045455
vt 0.772727 0.136364
vt 0.772727 0.227273
vt 0.772727 0.318182
vt 0.772727 0.409091
vt 0.772727 0.500000
vt 0.772727 0.590909
vt 0.772727 0.681818
vt 0.772727 0.772727
vt 0.772727 0.863636
vt 0.772727 0.954545
vt 0.772727 1.045455
vt 0.772727 1.136364
vt 0.772727 1.227273
vt 0.772727 1.318182
vt 0.863636 -0.500000
vt 0.863636 -0.409091
vt 0.863636 -0.318182
vt 0.863636 -0.227273
vt 0.863636 -0.136364
vt 0.863636 -0.045455
vt 0.863636 0.045455
vt 0.863636 0.136364
vt 0.863636 0.227273
vt 0.863636 0.318182
vt 0.863636 0.409091
vt 0.863636 0.500000
vt 0.863636 0.590909
vt 0.863636 0.681818
vt 0.863636 0.772727
vt 0.863636 0.863636
vt 0.863636 0.954545
vt 0.863636 1.045455
vt 0.863636 1.136364
vt 0.863636 1.227273
vt 0.863636 1.318182
vt 0.954545 -0.500000
vt 0.954545 -0.409091
vt 0.954545 -0.318182
vt 0.954545 -0.227273
vt 0.954545 -0.136364
vt 0.954545 -0.045455
vt 0.954545 0.045455
vt 0.954545 0.136364
vt 0.954545 0.227273
vt 0.954545 0.318182
vt 0.954545 0.409091
vt 0.954545 0.500000
vt 0.954545 0.590909
vt 0.954545 0.681818
vt 0.954545 0.772727
vt 0.954545 0.863636
vt 0.954545 0.954545
vt 0.954545 1.045455
vt 0.954545 1.136364
vt 0.954545 1.227273
vt 0.954545 1.318182
vt 1.045455 -0.500000
vt 1.045455 -0.409091
vt 1.045455 -0.318182
vt 1.045455 -0.227273
vt 1.045455 -0.136364
vt 1.045455 -0.045455
vt 1.045455 0.045455
vt 1.045455 0.136364
vt 1.045455 0.227273
vt 1.045455 0.318182
vt 1.045455 0.409091
vt 1.045455 0.500000
vt 1.045455 0.590909
vt 1.045455 0.681818
vt 1.045455 0.772727
vt 1.045455 0.863636
vt 1.045455 0.954545
vt 1.045455 1.045455
vt 1.045455 1.136364
vt 1.045455 1.227273
vt 1.045455 1.318182
vt 1.136364 -0.500000
vt 1.136364 -0.409091
vt 1.136364 -0.318182
vt 1.136364 -0.227273
vt 1.136364 -0.136364
vt 1.136364 -0.045455
vt 1.136364 0.045455
vt 1.136364 0.136364
vt 1.136364 0.227273
vt 1.136364 0.318182
vt 1.136364 0.409091
vt 1.136364 0.500000
vt 1.136364 0.590909
vt 1.136364 0.681818
vt 1.136364 0.772727
vt 1.136364 0.863636
vt 1.136364 0.954545
vt 1.136364 1.045455
vt 1.136364 1.136364
vt 1.136364 1.227273
vt 1.136364 1.318182
vt 1.227273 -0.500000
vt 1.227273 -0.409091
vt 1.227273 -0.318182
vt 1.227273 -0.227273
vt 1.227273 -0.136364
vt 1.227273 -0.045455
vt 1.227273 0.045455
vt 1.227273 0.136364
vt 1.227273 0.227273
vt 1.227273 0.318182
vt 1.227273 0.409091
vt 1.227273 0.500000
vt 1.227273 0.590909
vt 1.227273 0.681818
vt 1.227273 0.772727
vt 1.227273 0.863636
vt 1.227273 0.954545
vt 1.227273 1.045455
vt 1.227273 1.136364
vt 1.227273 1.227273
vt 1.227273 1.318182
vt 1.318182 -0.500000
vt 1.318182 -0.409091
vt 1.318182 -0.318182
vt 1.318182 -0.227273
vt 1.318182 -0.136364
vt 1.318182 -0.045455
vt 1.318182 0.045455
vt 1.318182 0.136364
vt 1.318182 0.227273
vt 1.318182 0.318182
vt 1.318182 0.409091
vt 1.318182 0.500000
vt 1.318182 0.590909
vt 1.318182 0.681818
vt 1.318182 0.772727
vt 1.318182 0.863636
vt 1.318182 0.954545
vt 1.318182 1.045455
vt 1.318182 1.136364
vt 1.318182 1.227273
vt 1.318182 1.318182
vt 1.409091 -0.500000
vt 1.409091 -0.409091
vt 1.409091 -0.318182
vt 1.409091 -0.227273
vt 1.409091 -0.136364
vt 1.409091 -0.045455
vt 1.409091 0.045455
vt 1.409091 0.136364
vt 1.409091 0.227273
vt 1.409091 0.318182
vt 1.409091 0.409091
vt 1.409091 0.500000
vt 1.409091 0.590909
vt 1.409091 0.681818
vt 1.409091 0.772727
vt 1.409091 0.863636
vt 1.409091 0.954545
vt 1.409091 1.045455
vt 1.409091 1.136364
vt 1.409091 1.227273
vt 1.409091 1.318182
vt 1.500000 -0.500000
vt 1.500000 -0.409091
vt 1.500000 -0.318182
vt 1.500000 -0.227273
vt 1.500000 -0.136364
vt 1.500000 -0.045455
vt 1.500000 0.045455
vt 1.500000 0.136364
vt 1.500000 0.227273
vt 1.500000 0.318182
vt 1.500000 0.409091
vt 1.500000 0.500000
vt 1.500000 0.590909
vt 1.500000 0.681818
vt 1.500000 0.772727
vt 1.500000 0.863636
vt 1.500000 0.954545
vt 1.500000 1.045455
vt 1.500000 1.136364
vt 1.500000 1.227273
vt 1.500000 1.318182
vn 0.5540 0.5864 -0.5910
vn 0.8979 0.2944 -0.3273
vn 0.7926 0.4143 -0.4472
vn 0.5348 0.4460 -0.7177
vn -0.9250 0.0007 -0.3798
vn -0.8009 0.0466 -0.5970
vn -0.8310 0.0621 -0.5527
vn -0.9064 0.1044 -0.4093
vn -0.2180 0.3972 -0.8914
vn -0.1758 0.0186 -0.9842
vn 0.1312 0.4179 -0.8990
vn 0.0583 0.0008 -0.9983
vn 0.0168 0.4559 -0.8899
vn -0.0792 0.0270 -0.9965
vn 0.0414 0.5257 -0.8496
vn -0.0392 0.1241 -0.9915
vn 0.0610 0.5732 -0.8171
vn -0.0094 0.1946 -0.9808
vn 0.0620 0.6066 -0.7925
vn 0.0073 0.2399 -0.9707
vn 0.0391 0.6137 -0.7885
vn 0.0117 0.2609 -0.9653
vn 0.0185 0.5949 -0.8035
vn 0.0130 0.2671 -0.9636
vn 0.0073 0.5921 -0.8058
vn 0.0094 0.2686 -0.9632
vn 0.0005 0.5915 -0.8063
vn 0.0010 0.2647 -0.9643
vn -0.0060 0.5958 -0.8031
vn -0.0063 0.2524 -0.9676
vn -0.0017 0.5975 -0.8018
vn 0.0101 0.2517 -0.9677
vn -0.0228 0.6141 -0.7889
vn 0.0165 0.2688 -0.9630
vn -0.0571 0.6009 -0.7973
vn 0.0038 0.2579 -0.9661
vn -0.0574 0.5645 -0.8234
vn 0.0148 0.1986 -0.9799
vn -0.0526 0.5175 -0.8541
vn 0.0258 0.1097 -0.9936
vn -0.0588 0.4723 -0.8795
vn 0.0099 0.0378 -0.9992
vn -0.2398 0.5253 -0.8164
vn -0.2373 0.1307 -0.9626
vn -0.1201 0.6762 -0.7268
vn -0.2203 0.3497 -0.9106
vn -0.7930 0.4273 0.4342
vn -0.5286 0.4276 0.7333
vn -0.5387 0.5684 0.6218
vn -0.9016 0.2936 0.3177
vn -0.6955 0.6974 0.1726
vn -0.9815 0.1805 0.0632
vn -0.7355 0.6771 -0.0233
vn -0.9723 0.2328 -0.0220
vn -0.7505 0.6606 -0.0159
vn -0.9742 0.2243 -0.0230
vn -0.7667 0.6418 -0.0100
vn -0.9804 0.1961 -0.0172
vn -0.7799 0.6258 -0.0031
vn -0.9851 0.1715 -0.0064
vn -0.7878 0.6159 0.0018
vn -0.9869 0.1612 0.0018
vn -0.7900 0.6131 0.0042
vn -0.9863 0.1646 0.0059
vn -0.7902 0.6128 0.0044
vn -0.9847 0.1738 0.0070
vn -0.7892 0.6140 0.0042
vn -0.9831 0.1830 0.0071
vn -0.7872 0.6166 0.0042
vn -0.9816 0.1907 0.0071
vn -0.7843 0.6203 0.0046
vn -0.9802 0.1979 0.0077
vn -0.7802 0.6255 0.0053
vn -0.9784 0.2063 0.0087
vn -0.7751 0.6318 0.0058
vn -0.9763 0.2159 0.0094
vn -0.7697 0.6383 0.0053
vn -0.9747 0.2233 0.0081
vn -0.7666 0.6421 0.0020
vn -0.9753 0.2206 0.0018
vn -0.7704 0.6375 -0.0068
vn -0.9813 0.1920 -0.0146
vn -0.7851 0.6191 -0.0179
vn -0.9921 0.1199 -0.0367
vn -0.8010 0.5986 0.0033
vn -0.9989 0.0406 -0.0225
vn -0.7857 0.5059 -0.3559
vn -0.9877 -0.0645 -0.1426
vn 0.2207 0.2734 0.9362
vn 0.1325 0.6342 0.7617
vn 0.0126 0.9740 0.2261
vn -0.0064 0.9994 -0.0330
vn 0.0068 0.9999 -0.0055
vn 0.0039 1.0000 -0.0029
vn 0.0000 1.0000 -0.0004
vn -0.0037 1.0000 0.0007
vn -0.0079 0.9999 0.0005
vn -0.0114 0.9999 -0.0002
vn -0.0141 0.9999 -0.0004
vn -0.0157 0.9998 -0.0008
vn -0.0155 0.9999 -0.0006
vn -0.0147 0.9999 -0.0004
vn -0.0129 0.9999 -0.0003
vn -0.0103 0.9999 -0.0001
vn -0.0065 1.0000 -0.0003
vn -0.0013 1.0000 -0.0002
vn 0.0081 0.9999 -0.0006
vn -0.0073 0.9991 0.0403
vn -0.0941 0.9331 -0.3470
vn 0.2022 0.0718 0.9767
vn 0.2188 0.4840 0.8472
vn 0.1870 0.9520 0.2423
vn 0.2295 0.9705 -0.0736
vn 0.2628 0.9648 -0.0070
vn 0.2662 0.9639 -0.0049
vn 0.2681 0.9633 -0.0013
vn 0.2700 0.9628 0.0000
vn 0.2719 0.9623 -0.0002
vn 0.2731 0.9620 -0.0007
vn 0.2735 0.9619 -0.0006
vn 0.2729 0.9620 -0.0009
vn 0.2718 0.9623 -0.0009
vn 0.2704 0.9627 -0.0008
vn 0.2688 0.9632 -0.0008
vn 0.2671 0.9637 -0.0009
vn 0.2647 0.9643 -0.0011
vn 0.2615 0.9652 -0.0015
vn 0.2558 0.9667 -0.0036
vn 0.2311 0.9702 0.0727
vn 0.1986 0.9444 -0.2622
vn -0.0459 0.0162 0.9988
vn 0.0363 0.4582 0.8881
vn 0.1410 0.9684 0.2058
vn 0.1551 0.9821 -0.1072
vn 0.1582 0.9874 -0.0049
vn 0.1524 0.9883 -0.0024
vn 0.1495 0.9887 -0.0004
vn 0.1490 0.9888 0.0001
vn 0.1489 0.9888 0.0000
vn 0.1489 0.9888 -0.0002
vn 0.1491 0.9888 -0.0001
vn 0.1491 0.9888 0.0000
vn 0.1492 0.9888 0.0000
vn 0.1492 0.9888 0.0002
vn 0.1493 0.9888 0.0002
vn 0.1494 0.9888 0.0002
vn 0.1505 0.9846 0.0884
vn 0.1424 0.9628 -0.2297
vn -0.0304 0.1095 0.9935
vn 0.0511 0.5137 0.8564
vn 0.1465 0.9716 0.1857
vn 0.1483 0.9829 -0.1092
vn 0.1485 0.9889 -0.0013
vn 0.1486 0.9889 -0.0001
vn 0.1487 0.9889 0.0000
vn 0.1488 0.9889 0.0001
vn 0.1488 0.9889 -0.0001
vn 0.1485 0.9889 0.0001
vn 0.1484 0.9889 0.0001
vn 0.1484 0.9889 -0.0001
vn 0.1484 0.9889 0.0002
vn 0.1479 0.9890 0.0007
vn 0.1471 0.9856 0.0830
vn 0.1396 0.9686 -0.2055
vn -0.0088 0.1997 0.9798
vn 0.0622 0.5688 0.8201
vn 0.1429 0.9748 0.1715
vn 0.1464 0.9835 -0.1064
vn 0.1484 0.9889 -0.0012
vn 0.1482 0.9889 -0.0001
vn 0.1482 0.9890 0.0000
vn 0.1480 0.9890 -0.0001
vn 0.1480 0.9890 0.0000
vn 0.1480 0.9890 0.0002
vn 0.1480 0.9890 0.0001
vn 0.1481 0.9890 -0.0002
vn 0.1481 0.9890 0.0001
vn 0.1483 0.9889 0.0001
vn 0.1484 0.9889 0.0012
vn 0.1475 0.9857 0.0813
vn 0.1418 0.9719 -0.1877
vn -0.0107 0.2525 0.9675
vn 0.0456 0.6036 0.7959
vn 0.1155 0.9810 0.1555
vn 0.1246 0.9864 -0.1071
vn 0.1330 0.9911 -0.0057
vn 0.1379 0.9904 0.0000
vn 0.1384 0.9904 -0.0002
vn 0.1388 0.9903 -0.0002
vn 0.1394 0.9902 -0.0002
vn 0.1399 0.9901 -0.0001
vn 0.1404 0.9901 -0.0002
vn 0.1410 0.9900 -0.0003
vn 0.1414 0.9899 -0.0001
vn 0.1418 0.9899 0.0000
vn 0.1422 0.9898 0.0000
vn 0.1422 0.9898 -0.0001
vn 0.1421 0.9898 0.0000
vn 0.1421 0.9898 0.0015
vn 0.1369 0.9872 0.0817
vn 0.1253 0.9782 -0.1656
vn -0.0115 0.2621 0.9649
vn 0.0259 0.6102 0.7918
vn 0.0752 0.9837 0.1632
vn 0.0711 0.9921 -0.1028
vn 0.0636 0.9979 -0.0103
vn 0.0637 0.9980 0.0001
vn 0.0648 0.9979 -0.0003
vn 0.0656 0.9978 -0.0002
vn 0.0662 0.9978 -0.0002
vn 0.0668 0.9977 -0.0001
vn 0.0667 0.9977 -0.0003
vn 0.0677 0.9977 -0.0003
vn 0.0677 0.9977 -0.0001
vn 0.0681 0.9977 -0.0001
vn 0.0682 0.9977 -0.0001
vn 0.0684 0.9977 -0.0000
vn 0.0686 0.9976 0.0023
vn 0.0706 0.9938 0.0856
vn 0.0686 0.9839 -0.1648
vn -0.0134 0.2514 0.9678
vn 0.0040 0.6044 0.7967
vn 0.0295 0.9832 0.1799
vn 0.0217 0.9962 -0.0841
vn 0.0038 1.0000 -0.0059
vn 0.0002 1.0000 0.0000
vn 0.0003 1.0000 -0.0001
vn 0.0000 1.0000 0.0001
vn -0.0001 1.0000 0.0001
vn -0.0001 1.0000 0.0000
vn 0.0000 1.0000 -0.0001
vn 0.0000 1.0000 -0.0000
vn 0.0001 1.0000 -0.0001
vn 0.0001 1.0000 -0.0002
vn 0.0001 1.0000 0.0000
vn 0.0011 1.0000 0.0017
vn 0.0074 0.9964 0.0847
vn 0.0183 0.9803 -0.1967
vn -0.0020 0.2456 0.9693
vn 0.0003 0.5964 0.8027
vn 0.0021 0.9801 0.1983
vn 0.0009 0.9972 -0.0746
vn 0.0001 1.0000 -0.0023
vn 0.0004 1.0000 -0.0003
vn 0.0004 1.0000 0.0000
vn 0.0002 1.0000 0.0003
vn 0.0001 1.0000 0.0001
vn -0.0002 1.0000 0.0001
vn -0.0005 1.0000 -0.0000
vn -0.0002 1.0000 -0.0002
vn 0.0003 1.0000 -0.0000
vn 0.0002 1.0000 0.0002
vn 0.0000 1.0000 0.0007
vn -0.0008 0.9967 0.0812
vn 0.0014 0.9787 -0.2051
vn 0.0114 0.2588 0.9658
vn 0.0095 0.5940 0.8044
vn 0.0002 0.9794 0.2018
vn -0.0020 0.9970 -0.0775
vn 0.0009 1.0000 -0.0017
vn 0.0004 1.0000 -0.0002
vn 0.0009 1.0000 0.0002
vn 0.0008 1.0000 0.0003
vn 0.0006 1.0000 0.0000
vn 0.0005 1.0000 0.0005
vn 0.0002 1.0000 0.0001
vn 0.0000 1.0000 -0.0005
vn -0.0003 1.0000 0.0000
vn -0.0002 1.0000 -0.0003
vn -0.0001 1.0000 -0.0002
vn 0.0000 1.0000 0.0003
vn 0.0000 1.0000 0.0008
vn 0.0004 0.9967 0.0808
vn 0.0004 0.9789 -0.2042
vn 0.0025 0.2786 0.9604
vn 0.0017 0.5933 0.8049
vn -0.0024 0.9784 0.2065
vn -0.0026 0.9965 -0.0836
vn -0.0001 1.0000 -0.0006
vn -0.0004 1.0000 -0.0003
vn -0.0003 1.0000 -0.0007
vn 0.0000 1.0000 0.0005
vn 0.0002 1.0000 0.0004
vn 0.0005 1.0000 0.0001
vn 0.0000 1.0000 0.0004
vn -0.0002 1.0000 -0.0004
vn -0.0004 1.0000 -0.0000
vn -0.0003 1.0000 0.0001
vn -0.0005 1.0000 0.0012
vn 0.0010 0.9970 0.0772
vn -0.0009 0.9805 -0.1963
vn -0.0210 0.2758 0.9610
vn -0.0270 0.5952 0.8031
vn -0.0196 0.9807 0.1942
vn -0.0054 0.9961 -0.0877
vn -0.0016 1.0000 -0.0019
vn -0.0002 1.0000 -0.0001
vn -0.0007 1.0000 -0.0005
vn -0.0009 1.0000 -0.0001
vn -0.0006 1.0000 0.0002
vn -0.0005 1.0000 0.0001
vn -0.0005 1.0000 0.0002
vn -0.0005 1.0000 -0.0002
vn -0.0028 1.0000 0.0040
vn -0.0162 0.9964 0.0833
vn -0.0214 0.9813 -0.1910
vn -0.0204 0.2499 0.9680
vn -0.0485 0.6045 0.7951
vn -0.0746 0.9818 0.1742
vn -0.0727 0.9937 -0.0853
vn -0.0710 0.9975 -0.0027
vn -0.0722 0.9974 0.0000
vn -0.0717 0.9974 0.0000
vn -0.0716 0.9974 -0.0001
vn -0.0720 0.9974 0.0001
vn -0.0714 0.9974 0.0003
vn -0.0711 0.9975 0.0002
vn -0.0708 0.9975 0.0000
vn -0.0707 0.9975 0.0001
vn -0.0701 0.9975 0.0003
vn -0.0692 0.9976 0.0003
vn -0.0688 0.9976 0.0002
vn -0.0682 0.9977 0.0002
vn -0.0674 0.9977 0.0002
vn -0.0667 0.9977 0.0059
vn -0.0762 0.9924 0.0963
vn -0.0782 0.9841 -0.1594
vn 0.0031 0.2220 0.9750
vn -0.0545 0.5980 0.7996
vn -0.1289 0.9769 0.1704
vn -0.1442 0.9864 -0.0780
vn -0.1461 0.9893 -0.0023
vn -0.1456 0.9893 -0.0001
vn -0.1456 0.9893 0.0003
vn -0.1457 0.9893 0.0002
vn -0.1458 0.9893 -0.0000
vn -0.1452 0.9894 0.0000
vn -0.1446 0.9895 0.0001
vn -0.1443 0.9895 0.0002
vn -0.1439 0.9896 0.0001
vn -0.1434 0.9897 0.0001
vn -0.1429 0.9897 0.0003
vn -0.1424 0.9898 0.0002
vn -0.1419 0.9899 0.0002
vn -0.1414 0.9899 0.0001
vn -0.1383 0.9904 0.0029
vn -0.1334 0.9854 0.1057
vn -0.1288 0.9783 -0.1620
vn 0.0217 0.1788 0.9836
vn -0.0523 0.5602 0.8267
vn -0.1417 0.9701 0.1972
vn -0.1488 0.9856 -0.0806
vn -0.1482 0.9889 -0.0028
vn -0.1481 0.9890 -0.0001
vn -0.1481 0.9890 0.0002
vn -0.1481 0.9890 0.0003
vn -0.1481 0.9890 -0.0002
vn -0.1481 0.9890 -0.0003
vn -0.1484 0.9889 0.0002
vn -0.1485 0.9889 -0.0000
vn -0.1482 0.9889 -0.0003
vn -0.1480 0.9890 -0.0001
vn -0.1480 0.9890 0.0001
vn -0.1481 0.9890 0.0001
vn -0.1481 0.9890 0.0000
vn -0.1482 0.9890 0.0003
vn -0.1454 0.9837 0.1052
vn -0.1409 0.9744 -0.1751
vn 0.0534 0.1010 0.9934
vn -0.0319 0.5049 0.8626
vn -0.1387 0.9661 0.2176
vn -0.1462 0.9856 -0.0846
vn -0.1471 0.9891 -0.0015
vn -0.1485 0.9889 -0.0001
vn -0.1483 0.9889 -0.0000
vn -0.1478 0.9890 0.0002
vn -0.1479 0.9890 0.0001
vn -0.1484 0.9889 -0.0001
vn -0.1485 0.9889 0.0003
vn -0.1486 0.9889 -0.0004
vn -0.1487 0.9889 -0.0001
vn -0.1484 0.9889 0.0001
vn -0.1486 0.9889 0.0000
vn -0.1486 0.9889 0.0004
vn -0.1458 0.9838 0.1039
vn -0.1421 0.9716 -0.1891
vn 0.0938 -0.0183 0.9954
vn -0.0078 0.4252 0.9050
vn -0.1396 0.9607 0.2399
vn -0.1475 0.9850 -0.0887
vn -0.1486 0.9889 0.0001
vn -0.1491 0.9888 0.0000
vn -0.1491 0.9888 -0.0003
vn -0.1490 0.9888 0.0004
vn -0.1490 0.9888 0.0000
vn -0.1488 0.9889 0.0002
vn -0.1487 0.9889 -0.0000
vn -0.1490 0.9888 -0.0002
vn -0.1491 0.9888 -0.0001
vn -0.1492 0.9888 -0.0001
vn -0.1490 0.9888 0.0003
vn -0.1503 0.9886 0.0013
vn -0.1535 0.9881 0.0023
vn -0.1502 0.9836 0.1000
vn -0.1409 0.9688 -0.2038
vn -0.0902 -0.0182 0.9958
vn -0.1559 0.4120 0.8977
vn -0.1900 0.9435 0.2715
vn -0.2177 0.9732 -0.0733
vn -0.2384 0.9711 0.0031
vn -0.2438 0.9698 0.0032
vn -0.2495 0.9684 0.0024
vn -0.2542 0.9671 0.0019
vn -0.2573 0.9663 0.0018
vn -0.2598 0.9656 0.0014
vn -0.2618 0.9651 0.0012
vn -0.2634 0.9647 0.0010
vn -0.2645 0.9644 0.0009
vn -0.2652 0.9642 0.0007
vn -0.2649 0.9642 0.0004
vn -0.2637 0.9646 -0.0004
vn -0.2622 0.9650 0.0003
vn -0.2593 0.9658 0.0024
vn -0.2562 0.9666 0.0033
vn -0.2259 0.9716 0.0697
vn -0.1884 0.9548 -0.2297
vn 0.1749 0.0596 0.9828
vn 0.2484 0.3902 0.8866
vn 0.1254 0.9263 0.3552
vn 0.0323 0.9986 -0.0413
vn 0.0125 0.9999 0.0025
vn 0.0181 0.9998 0.0022
vn 0.0241 0.9997 0.0013
vn 0.0297 0.9995 0.0005
vn 0.0335 0.9994 0.0009
vn 0.0359 0.9993 0.0010
vn 0.0369 0.9993 0.0006
vn 0.0373 0.9993 0.0009
vn 0.0363 0.9993 0.0009
vn 0.0345 0.9994 0.0004
vn 0.0318 0.9995 -0.0001
vn 0.0279 0.9996 -0.0009
vn 0.0237 0.9997 -0.0002
vn 0.0194 0.9998 0.0015
vn 0.0135 0.9999 0.0034
vn 0.0264 0.9991 0.0308
vn 0.0093 0.9771 -0.2125
vn 0.7904 0.0174 0.6123
vn 0.7433 0.0270 0.6684
vn 0.8150 0.4601 0.3522
vn 0.8335 0.5519 0.0259
vn 0.7945 0.6061 0.0370
vn 0.7709 0.6369 0.0094
vn 0.7659 0.6429 -0.0040
vn 0.7698 0.6382 -0.0085
vn 0.7768 0.6297 -0.0086
vn 0.7838 0.6210 -0.0079
vn 0.7896 0.6135 -0.0070
vn 0.7938 0.6081 -0.0054
vn 0.7968 0.6041 -0.0044
vn 0.7985 0.6020 -0.0042
vn 0.7989 0.6015 -0.0034
vn 0.7971 0.6037 -0.0013
vn 0.7909 0.6118 0.0030
vn 0.7786 0.6273 0.0100
vn 0.7625 0.6467 0.0174
vn 0.7459 0.6656 0.0234
vn 0.7104 0.6853 -0.1601
vn 0.8342 0.0219 0.5510
vn 0.8257 -0.0030 0.5640
vn 0.8956 -0.1357 0.4236
vn 0.9968 -0.0469 0.0643
vn 0.9939 0.0903 0.0634
vn 0.9821 0.1871 0.0186
vn 0.9739 0.2268 -0.0044
vn 0.9720 0.2344 -0.0125
vn 0.9737 0.2275 -0.0139
vn 0.9765 0.2150 -0.0132
vn 0.9792 0.2027 -0.0116
vn 0.9813 0.1923 -0.0092
vn 0.9829 0.1836 -0.0077
vn 0.9844 0.1759 -0.0068
vn 0.9856 0.1688 -0.0051
vn 0.9862 0.1653 -0.0013
vn 0.9849 0.1729 0.0059
vn 0.9807 0.1945 0.0173
vn 0.9742 0.2240 0.0266
vn 0.9707 0.2390 0.0256
vn 0.9791 0.1924 -0.0654
usemtl None
s 1
f 529/1/1 67/2/2 4/3/3 68/4/4
f 5/5/5 109/6/6 88/7/7 3/8/8
f 109/6/6 130/9/9 87/10/10 88/7/7
f 130/9/9 151/11/11 86/12/12 87/10/10
f 151/11/11 172/13/13 85/14/14 86/12/12
f 172/13/13 193/15/15 84/16/16 85/14/14
f 193/15/15 214/17/17 83/18/18 84/16/16
f 214/17/17 235/19/19 82/20/20 83/18/18
f 235/19/19 256/21/21 81/22/22 82/20/20
f 256/21/21 277/23/23 80/24/24 81/22/22
f 277/23/23 298/25/25 79/26/26 80/24/24
f 298/25/25 319/27/27 78/28/28 79/26/26
f 319/27/27 340/29/29 77/30/30 78/28/28
f 340/29/29 361/31/31 76/32/32 77/30/30
f 361/31/31 382/33/33 75/34/34 76/32/32
f 382/33/33 403/35/35 74/36/36 75/34/34
f 403/35/35 424/37/37 73/38/38 74/36/36
f 424/37/37 445/39/39 72/40/40 73/38/38
f 445/39/39 466/41/41 71/42/42 72/40/40
f 466/41/41 487/43/43 70/44/44 71/42/42
f 487/43/43 508/45/45 69/46/46 70/44/44
f 508/45/45 529/1/1 68/4/4 69/46/46
f 1/47/47 26/48/48 89/49/49 25/50/50
f 25/50/50 89/49/49 90/51/51 24/52/52
f 24/52/52 90/51/51 91/53/53 23/54/54
f 23/54/54 91/53/53 92/55/55 22/56/56
f 22/56/56 92/55/55 93/57/57 21/58/58
f 21/58/58 93/57/57 94/59/59 20/60/60
f 20/60/60 94/59/59 95/61/61 19/62/62
f 19/62/62 95/61/61 96/63/63 18/64/64
f 18/64/64 96/63/63 97/65/65 17/66/66
f 17/66/66 97/65/65 98/67/67 16/68/68
f 16/68/68 98/67/67 99/69/69 15/70/70
f 15/70/70 99/69/69 100/71/71 14/72/72
f 14/72/72 100/71/71 101/73/73 13/74/74
f 13/74/74 101/73/73 102/75/75 12/76/76
f 12/76/76 102/75/75 103/77/77 11/78/78
f 11/78/78 103/77/77 104/79/79 10/80/80
f 10/80/80 104/79/79 105/81/81 9/82/82
f 9/82/82 105/81/81 106/83/83 8/84/84
f 8/84/84 106/83/83 107/85/85 7/86/86
f 7/86/86 107/85/85 108/87/87 6/88/88
f 6/88/88 108/87/87 109/6/6 5/5/5
f 26/48/48 27/89/89 110/90/90 89/49/49
f 89/49/49 110/90/90 111/91/91 90/51/51
f 90/51/51 111/91/91 112/92/92 91/53/53
f 91/53/53 112/92/92 113/93/93 92/55/55
f 92/55/55 113/93/93 114/94/94 93/57/57
f 93/57/57 114/94/94 115/95/95 94/59/59
f 94/59/59 115/95/95 116/96/96 95/61/61
f 95/61/61 116/96/96 117/97/97 96/63/63
f 96/63/63 117/97/97 118/98/98 97/65/65
f 97/65/65 118/98/98 119/99/99 98/67/67
f 98/67/67 119/99/99 120/100/100 99/69/69
f 99/69/69 120/100/100 121/101/101 100/71/71
f 100/71/71 121/101/101 122/102/102 101/73/73
f 101/73/73 122/102/102 123/103/103 102/75/75
f 102/75/75 123/103/103 124/104/104 103/77/77
f 103/77/77 124/104/104 125/105/105 104/79/79
f 104/79/79 125/105/105 126/106/106 105/81/81
f 105/81/81 126/106/106 127/107/107 106/83/83
f 106/83/83 127/107/107 128/108/108 107/85/85
f 107/85/85 128/108/108 129/109/109 108/87/87
f 108/87/87 129/109/109 130/9/9 109/6/6
f 27/89/89 28/110/110 131/111/111 110/90/90
f 110/90/90 131/111/111 132/112/112 111/91/91
f 111/91/91 132/112/112 133/113/113 112/92/92
f 112/92/92 133/113/113 134/114/114 113/93/93
f 113/93/93 134/114/114 135/115/115 114/94/94
f 114/94/94 135/115/115 136/116/116 115/95/95
f 115/95/95 136/116/116 137/117/117 116/96/96
f 116/96/96 137/117/117 138/118/118 117/97/97
f 117/97/97 138/118/118 139/119/119 118/98/98
f 118/98/98 139/119/119 140/120/120 119/99/99
f 119/99/99 140/120/120 141/121/121 120/100/100
f 120/100/100 141/121/121 142/122/122 121/101/101
f 121/101/101 142/122/122 143/123/123 122/102/102
f 122/102/102 143/123/123 144/124/124 123/103/103
f 123/103/103 144/124/124 145/125/125 124/104/104
f 124/104/104 145/125/125 146/126/126 125/105/105
f 125/105/105 146/126/126 147/127/127 126/106/106
f 126/106/106 147/127/127 148/128/128 127/107/107
f 127/107/107 148/128/128 149/129/129 128/108/108
f 128/108/108 149/129/129 150/130/130 129/109/109
f 129/109/109 150/130/130 151/11/11 130/9/9
f 28/110/110 29/131/131 152/132/132 131/111/111
f 131/111/111 152/132/132 153/133/133 132/112/112
f 132/112/112 153/133/133 154/134/134 133/113/113
f 133/113/113 154/134/134 155/135/135 134/114/114
f 134/114/114 155/135/135 156/136/136 135/115/115
f 135/115/115 156/136/136 157/137/137 136/116/116
f 136/116/116 157/137/137 158/138/138 137/117/117
f 137/117/117 158/138/138 159/139/139 138/118/118
f 138/118/118 159/139/139 160/140/140 139/119/119
f 139/119/119 160/140/140 161/141/141 140/120/120
f 140/120/120 161/141/141 162/142/142 141/121/121
f 141/121/121 162/142/142 163/143/141 142/122/122
f 142/122/122 163/143/141 164/144/143 143/123/123
f 143/123/123 164/144/143 165/145/142 144/124/124
f 144/124/124 165/145/142 166/146/142 145/125/125
f 145/125/125 166/146/142 167/147/144 146/126/126
f 146/126/126 167/147/144 168/148/145 147/127/127
f 147/127/127 168/148/145 169/149/146 148/128/128
f 148/128/128 169/149/146 170/150/147 149/129/129
f 149/129/129 170/150/147 171/151/148 150/130/130
f 150/130/130 171/151/148 172/13/13 151/11/11
f 29/131/131 30/152/149 173/153/150 152/132/132
f 152/132/132 173/153/150 174/154/151 153/133/133
f 153/133/133 174/154/151 175/155/152 154/134/134
f 154/134/134 175/155/152 176/156/153 155/135/135
f 155/135/135 176/156/153 177/157/154 156/136/136
f 156/136/136 177/157/154 178/158/155 157/137/137
f 157/137/137 178/158/155 179/159/156 158/138/138
f 158/138/138 179/159/156 180/160/139 159/139/139
f 159/139/139 180/160/139 181/161/140 160/140/140
f 160/140/140 181/161/140 182/162/157 161/141/141
f 161/141/141 182/162/157 183/163/155 162/142/142
f 162/142/142 183/163/155 184/164/154 163/143/141
f 163/143/141 184/164/154 185/165/158 164/144/143
f 164/144/143 185/165/158 186/166/159 165/145/142
f 165/145/142 186/166/159 187/167/160 166/146/142
f 166/146/142 187/167/160 188/168/161 167/147/144
f 167/147/144 188/168/161 189/169/161 168/148/145
f 168/148/145 189/169/161 190/170/162 169/149/146
f 169/149/146 190/170/162 191/171/163 170/150/147
f 170/150/147 191/171/163 192/172/164 171/151/148
f 171/151/148 192/172/164 193/15/15 172/13/13
f 30/152/149 31/173/165 194/174/166 173/153/150
f 173/153/150 194/174/166 195/175/167 174/154/151
f 174/154/151 195/175/167 196/176/168 175/155/152
f 175/155/152 196/176/168 197/177/169 176/156/153
f 176/156/153 197/177/169 198/178/170 177/157/154
f 177/157/154 198/178/170 199/179/171 178/158/155
f 178/158/155 199/179/171 200/180/171 179/159/156
f 179/159/156 200/180/171 201/181/171 180/160/139
f 180/160/139 201/181/171 202/182/172 181/161/140
f 181/161/140 202/182/172 203/183/173 182/162/157
f 182/162/157 203/183/173 204/184/173 183/163/155
f 183/163/155 204/184/173 205/185/173 184/164/154
f 184/164/154 205/185/173 206/186/174 185/165/158
f 185/165/158 206/186/174 207/187/175 186/166/159
f 186/166/159 207/187/175 208/188/176 187/167/160
f 187/167/160 208/188/176 209/189/177 188/168/161
f 188/168/161 209/189/177 210/190/178 189/169/161
f 189/169/161 210/190/178 211/191/179 190/170/162
f 190/170/162 211/191/179 212/192/180 191/171/163
f 191/171/163 212/192/180 213/193/181 192/172/164
f 192/172/164 213/193/181 214/17/17 193/15/15
f 31/173/165 32/194/182 215/195/183 194/174/166
f 194/174/166 215/195/183 216/196/184 195/175/167
f 195/175/167 216/196/184 217/197/185 196/176/168
f 196/176/168 217/197/185 218/198/186 197/177/169
f 197/177/169 218/198/186 219/199/187 198/178/170
f 198/178/170 219/199/187 220/200/188 199/179/171
f 199/179/171 220/200/188 221/201/189 200/180/171
f 200/180/171 221/201/189 222/202/190 201/181/171
f 201/181/171 222/202/190 223/203/191 202/182/172
f 202/182/172 223/203/191 224/204/192 203/183/173
f 203/183/173 224/204/192 225/205/193 204/184/173
f 204/184/173 225/205/193 226/206/194 205/185/173
f 205/185/173 226/206/194 227/207/195 206/186/174
f 206/186/174 227/207/195 228/208/196 207/187/175
f 207/187/175 228/208/196 229/209/197 208/188/176
f 208/188/176 229/209/197 230/210/198 209/189/177
f 209/189/177 230/210/198 231/211/197 210/190/178
f 210/190/178 231/211/197 232/212/199 211/191/179
f 211/191/179 232/212/199 233/213/200 212/192/180
f 212/192/180 233/213/200 234/214/201 213/193/181
f 213/193/181 234/214/201 235/19/19 214/17/17
f 32/194/182 33/215/202 236/216/203 215/195/183
f 215/195/183 236/216/203 237/217/204 216/196/184
f 216/196/184 237/217/204 238/218/205 217/197/185
f 217/197/185 238/218/205 239/219/206 218/198/186
f 218/198/186 239/219/206 240/220/207 219/199/187
f 219/199/187 240/220/207 241/221/208 220/200/188
f 220/200/188 241/221/208 242/222/209 221/201/189
f 221/201/189 242/222/209 243/223/210 222/202/190
f 222/202/190 243/223/210 244/224/211 223/203/191
f 223/203/191 244/224/211 245/225/212 224/204/192
f 224/204/192 245/225/212 246/226/213 225/205/193
f 225/205/193 246/226/213 247/227/214 226/206/194
f 226/206/194 247/227/214 248/228/215 227/207/195
f 227/207/195 248/228/215 249/229/216 228/208/196
f 228/208/196 249/229/216 250/230/217 229/209/197
f 229/209/197 250/230/217 251/231/217 230/210/198
f 230/210/198 251/231/217 252/232/215 231/211/197
f 231/211/197 252/232/215 253/233/218 232/212/199
f 232/212/199 253/233/218 254/234/219 233/213/200
f 233/213/200 254/234/219 255/235/220 234/214/201
f 234/214/201 255/235/220 256/21/21 235/19/19
f 33/215/202 34/236/221 257/237/222 236/216/203
f 236/216/203 257/237/222 258/238/223 237/217/204
f 237/217/204 258/238/223 259/239/224 238/218/205
f 238/218/205 259/239/224 260/240/225 239/219/206
f 239/219/206 260/240/225 261/241/226 240/220/207
f 240/220/207 261/241/226 262/242/227 241/221/208
f 241/221/208 262/242/227 263/243/228 242/222/209
f 242/222/209 263/243/228 264/244/229 243/223/210
f 243/223/210 264/244/229 265/245/230 244/224/211
f 244/224/211 265/245/230 266/246/231 245/225/212
f 245/225/212 266/246/231 267/247/232 246/226/213
f 246/226/213 267/247/232 268/248/228 247/227/214
f 247/227/214 268/248/228 269/249/233 248/228/215
f 248/228/215 269/249/233 270/250/234 249/229/216
f 249/229/216 270/250/234 271/251/226 250/230/217
f 250/230/217 271/251/226 272/252/235 251/231/217
f 251/231/217 272/252/235 273/253/232 252/232/215
f 252/232/215 273/253/232 274/254/236 253/233/218
f 253/233/218 274/254/236 275/255/237 254/234/219
f 254/234/219 275/255/237 276/256/238 255/235/220
f 255/235/220 276/256/238 277/23/23 256/21/21
f 34/236/221 35/257/239 278/258/240 257/237/222
f 257/237/222 278/258/240 279/259/241 258/238/223
f 258/238/223 279/259/241 280/260/242 259/239/224
f 259/239/224 280/260/242 281/261/243 260/240/225
f 260/240/225 281/261/243 282/262/244 261/241/226
f 261/241/226 282/262/244 283/263/245 262/242/227
f 262/242/227 283/263/245 284/264/246 263/243/228
f 263/243/228 284/264/246 285/265/247 264/244/229
f 264/244/229 285/265/247 286/266/232 265/245/230
f 265/245/230 286/266/232 287/267/248 266/246/231
f 266/246/231 287/267/248 288/268/249 267/247/232
f 267/247/232 288/268/249 289/269/250 268/248/228
f 268/248/228 289/269/250 290/270/233 269/249/233
f 269/249/233 290/270/233 291/271/231 270/250/234
f 270/250/234 291/271/231 292/272/231 271/251/226
f 271/251/226 292/272/231 293/273/251 272/252/235
f 272/252/235 293/273/251 294/274/252 273/253/232
f 273/253/232 294/274/252 295/275/253 274/254/236
f 274/254/236 295/275/253 296/276/254 275/255/237
f 275/255/237 296/276/254 297/277/255 276/256/238
f 276/256/238 297/277/255 298/25/25 277/23/23
f 35/257/239 36/278/256 299/279/257 278/258/240
f 278/258/240 299/279/257 300/280/258 279/259/241
f 279/259/241 300/280/258 301/281/259 280/260/242
f 280/260/242 301/281/259 302/282/260 281/261/243
f 281/261/243 302/282/260 303/283/95 282/262/244
f 282/262/244 303/283/95 304/284/261 283/263/245
f 283/263/245 304/284/261 305/285/262 284/264/246
f 284/264/246 305/285/262 306/286/263 285/265/247
f 285/265/247 306/286/263 307/287/264 286/266/232
f 286/266/232 307/287/264 308/288/265 287/267/248
f 287/267/248 308/288/265 309/289/266 288/268/249
f 288/268/249 309/289/266 310/290/267 289/269/250
f 289/269/250 310/290/267 311/291/248 290/270/233
f 290/270/233 311/291/248 312/292/268 291/271/231
f 291/271/231 312/292/268 313/293/269 292/272/231
f 292/272/231 313/293/269 314/294/270 293/273/251
f 293/273/251 314/294/270 315/295/271 294/274/252
f 294/274/252 315/295/271 316/296/272 295/275/253
f 295/275/253 316/296/272 317/297/273 296/276/254
f 296/276/254 317/297/273 318/298/274 297/277/255
f 297/277/255 318/298/274 319/27/27 298/25/25
f 36/278/256 37/299/275 320/300/276 299/279/257
f 299/279/257 320/300/276 321/301/277 300/280/258
f 300/280/258 321/301/277 322/302/278 301/281/259
f 301/281/259 322/302/278 323/303/279 302/282/260
f 302/282/260 323/303/279 324/304/280 303/283/95
f 303/283/95 324/304/280 325/305/281 304/284/261
f 304/284/261 325/305/281 326/306/230 305/285/262
f 305/285/262 326/306/230 327/307/282 306/286/263
f 306/286/263 327/307/282 328/308/232 307/287/264
f 307/287/264 328/308/232 329/309/283 308/288/265
f 308/288/265 329/309/283 330/310/284 309/289/266
f 309/289/266 330/310/284 331/311/261 310/290/267
f 310/290/267 331/311/261 332/312/285 311/291/248
f 311/291/248 332/312/285 333/313/230 312/292/268
f 312/292/268 333/313/230 334/314/286 313/293/269
f 313/293/269 334/314/286 335/315/287 314/294/270
f 314/294/270 335/315/287 336/316/288 315/295/271
f 315/295/271 336/316/288 337/317/289 316/296/272
f 316/296/272 337/317/289 338/318/290 317/297/273
f 317/297/273 338/318/290 339/319/291 318/298/274
f 318/298/274 339/319/291 340/29/29 319/27/27
f 37/299/275 38/320/292 341/321/293 320/300/276
f 320/300/276 341/321/293 342/322/294 321/301/277
f 321/301/277 342/322/294 343/323/295 322/302/278
f 322/302/278 343/323/295 344/324/296 323/303/279
f 323/303/279 344/324/296 345/325/297 324/304/280
f 324/304/280 345/325/297 346/326/298 325/305/281
f 325/305/281 346/326/298 347/327/299 326/306/230
f 326/306/230 347/327/299 348/328/300 327/307/282
f 327/307/282 348/328/300 349/329/301 328/308/232
f 328/308/232 349/329/301 350/330/302 329/309/283
f 329/309/283 350/330/302 351/331/303 330/310/284
f 330/310/284 351/331/303 352/332/268 331/311/261
f 331/311/261 352/332/268 353/333/285 332/312/285
f 332/312/285 353/333/285 354/334/232 333/313/230
f 333/313/230 354/334/232 355/335/270 334/314/286
f 334/314/286 355/335/270 356/336/230 335/315/287
f 335/315/287 356/336/230 357/337/230 336/316/288
f 336/316/288 357/337/230 358/338/304 337/317/289
f 337/317/289 358/338/304 359/339/305 338/318/290
f 338/318/290 359/339/305 360/340/306 339/319/291
f 339/319/291 360/340/306 361/31/31 340/29/29
f 38/320/292 39/341/307 362/342/308 341/321/293
f 341/321/293 362/342/308 363/343/309 342/322/294
f 342/322/294 363/343/309 364/344/310 343/323/295
f 343/323/295 364/344/310 365/345/311 344/324/296
f 344/324/296 365/345/311 366/346/312 345/325/297
f 345/325/297 366/346/312 367/347/313 346/326/298
f 346/326/298 367/347/313 368/348/314 347/327/299
f 347/327/299 368/348/314 369/349/315 348/328/300
f 348/328/300 369/349/315 370/350/316 349/329/301
f 349/329/301 370/350/316 371/351/317 350/330/302
f 350/330/302 371/351/317 372/352/318 351/331/303
f 351/331/303 372/352/318 373/353/319 352/332/268
f 352/332/268 373/353/319 374/354/320 353/333/285
f 353/333/285 374/354/320 375/355/321 354/334/232
f 354/334/232 375/355/321 376/356/322 355/335/270
f 355/335/270 376/356/322 377/357/323 356/336/230
f 356/336/230 377/357/323 378/358/324 357/337/230
f 357/337/230 378/358/324 379/359/325 358/338/304
f 358/338/304 379/359/325 380/360/326 359/339/305
f 359/339/305 380/360/326 381/361/327 360/340/306
f 360/340/306 381/361/327 382/33/33 361/31/31
f 39/341/307 40/362/328 383/363/329 362/342/308
f 362/342/308 383/363/329 384/364/330 363/343/309
f 363/343/309 384/364/330 385/365/331 364/344/310
f 364/344/310 385/365/331 386/366/332 365/345/311
f 365/345/311 386/366/332 387/367/333 366/346/312
f 366/346/312 387/367/333 388/368/334 367/347/313
f 367/347/313 388/368/334 389/369/335 368/348/314
f 368/348/314 389/369/335 390/370/336 369/349/315
f 369/349/315 390/370/336 391/371/337 370/350/316
f 370/350/316 391/371/337 392/372/338 371/351/317
f 371/351/317 392/372/338 393/373/339 372/352/318
f 372/352/318 393/373/339 394/374/340 373/353/319
f 373/353/319 394/374/340 395/375/341 374/354/320
f 374/354/320 395/375/341 396/376/342 375/355/321
f 375/355/321 396/376/342 397/377/343 376/356/322
f 376/356/322 397/377/343 398/378/344 377/357/323
f 377/357/323 398/378/344 399/379/345 378/358/324
f 378/358/324 399/379/345 400/380/346 379/359/325
f 379/359/325 400/380/346 401/381/347 380/360/326
f 380/360/326 401/381/347 402/382/348 381/361/327
f 381/361/327 402/382/348 403/35/35 382/33/33
f 40/362/328 41/383/349 404/384/350 383/363/329
f 383/363/329 404/384/350 405/385/351 384/364/330
f 384/364/330 405/385/351 406/386/352 385/365/331
f 385/365/331 406/386/352 407/387/353 386/366/332
f 386/366/332 407/387/353 408/388/354 387/367/333
f 387/367/333 408/388/354 409/389/355 388/368/334
f 388/368/334 409/389/355 410/390/356 389/369/335
f 389/369/335 410/390/356 411/391/357 390/370/336
f 390/370/336 411/391/357 412/392/358 391/371/337
f 391/371/337 412/392/358 413/393/359 392/372/338
f 392/372/338 413/393/359 414/394/360 393/373/339
f 393/373/339 414/394/360 415/395/361 394/374/340
f 394/374/340 415/395/361 416/396/362 395/375/341
f 395/375/341 416/396/362 417/397/363 396/376/342
f 396/376/342 417/397/363 418/398/364 397/377/343
f 397/377/343 418/398/364 419/399/365 398/378/344
f 398/378/344 419/399/365 420/400/354 399/379/345
f 399/379/345 420/400/354 421/401/366 400/380/346
f 400/380/346 421/401/366 422/402/367 401/381/347
f 401/381/347 422/402/367 423/403/368 402/382/348
f 402/382/348 423/403/368 424/37/37 403/35/35
f 41/383/349 42/404/369 425/405/370 404/384/350
f 404/384/350 425/405/370 426/406/371 405/385/351
f 405/385/351 426/406/371 427/407/372 406/386/352
f 406/386/352 427/407/372 428/408/373 407/387/353
f 407/387/353 428/408/373 429/409/374 408/388/354
f 408/388/354 429/409/374 430/410/375 409/389/355
f 409/389/355 430/410/375 431/411/376 410/390/356
f 410/390/356 431/411/376 432/412/377 411/391/357
f 411/391/357 432/412/377 433/413/378 412/392/358
f 412/392/358 433/413/378 434/414/379 413/393/359
f 413/393/359 434/414/379 435/415/374 414/394/360
f 414/394/360 435/415/374 436/416/380 415/395/361
f 415/395/361 436/416/380 437/417/381 416/396/362
f 416/396/362 437/417/381 438/418/360 417/397/363
f 417/397/363 438/418/360 439/419/382 418/398/364
f 418/398/364 439/419/382 440/420/382 419/399/365
f 419/399/365 440/420/382 441/421/383 420/400/354
f 420/400/354 441/421/383 442/422/384 421/401/366
f 421/401/366 442/422/384 443/423/385 422/402/367
f 422/402/367 443/423/385 444/424/386 423/403/368
f 423/403/368 444/424/386 445/39/39 424/37/37
f 42/404/369 43/425/387 446/426/388 425/405/370
f 425/405/370 446/426/388 447/427/389 426/406/371
f 426/406/371 447/427/389 448/428/390 427/407/372
f 427/407/372 448/428/390 449/429/391 428/408/373
f 428/408/373 449/429/391 450/430/392 429/409/374
f 429/409/374 450/430/392 451/431/393 430/410/375
f 430/410/375 451/431/393 452/432/392 431/411/376
f 431/411/376 452/432/392 453/433/394 432/412/377
f 432/412/377 453/433/394 454/434/395 433/413/378
f 433/413/378 454/434/395 455/435/396 434/414/379
f 434/414/379 455/435/396 456/436/397 435/415/374
f 435/415/374 456/436/397 457/437/398 436/416/380
f 436/416/380 457/437/398 458/438/399 437/417/381
f 437/417/381 458/438/399 459/439/400 438/418/360
f 438/418/360 459/439/400 460/440/399 439/419/382
f 439/419/382 460/440/399 461/441/401 440/420/382
f 440/420/382 461/441/401 462/442/402 441/421/383
f 441/421/383 462/442/402 463/443/403 442/422/384
f 442/422/384 463/443/403 464/444/404 443/423/385
f 443/423/385 464/444/404 465/445/405 444/424/386
f 444/424/386 465/445/405 466/41/41 445/39/39
f 43/425/387 44/446/406 467/447/407 446/426/388
f 446/426/388 467/447/407 468/448/408 447/427/389
f 447/427/389 468/448/408 469/449/409 448/428/390
f 448/428/390 469/449/409 470/450/410 449/429/391
f 449/429/391 470/450/410 471/451/411 450/430/392
f 450/430/392 471/451/411 472/452/412 451/431/393
f 451/431/393 472/452/412 473/453/413 452/432/392
f 452/432/392 473/453/413 474/454/414 453/433/394
f 453/433/394 474/454/414 475/455/415 454/434/395
f 454/434/395 475/455/415 476/456/416 455/435/396
f 455/435/396 476/456/416 477/457/417 456/436/397
f 456/436/397 477/457/417 478/458/418 457/437/398
f 457/437/398 478/458/418 479/459/419 458/438/399
f 458/438/399 479/459/419 480/460/420 459/439/400
f 459/439/400 480/460/420 481/461/421 460/440/399
f 460/440/399 481/461/421 482/462/422 461/441/401
f 461/441/401 482/462/422 483/463/423 462/442/402
f 462/442/402 483/463/423 484/464/424 463/443/403
f 463/443/403 484/464/424 485/465/425 464/444/404
f 464/444/404 485/465/425 486/466/426 465/445/405
f 465/445/405 486/466/426 487/43/43 466/41/41
f 44/446/406 45/467/427 488/468/428 467/447/407
f 467/447/407 488/468/428 489/469/429 468/448/408
f 468/448/408 489/469/429 490/470/430 469/449/409
f 469/449/409 490/470/430 491/471/431 470/450/410
f 470/450/410 491/471/431 492/472/432 471/451/411
f 471/451/411 492/472/432 493/473/433 472/452/412
f 472/452/412 493/473/433 494/474/434 473/453/413
f 473/453/413 494/474/434 495/475/435 474/454/414
f 474/454/414 495/475/435 496/476/436 475/455/415
f 475/455/415 496/476/436 497/477/437 476/456/416
f 476/456/416 497/477/437 498/478/438 477/457/417
f 477/457/417 498/478/438 499/479/439 478/458/418
f 478/458/418 499/479/439 500/480/440 479/459/419
f 479/459/419 500/480/440 501/481/441 480/460/420
f 480/460/420 501/481/441 502/482/442 481/461/421
f 481/461/421 502/482/442 503/483/443 482/462/422
f 482/462/422 503/483/443 504/484/444 483/463/423
f 483/463/423 504/484/444 505/485/445 484/464/424
f 484/464/424 505/485/445 506/486/446 485/465/425
f 485/465/425 506/486/446 507/487/447 486/466/426
f 486/466/426 507/487/447 508/45/45 487/43/43
f 45/467/427 46/488/448 509/489/449 488/468/428
f 488/468/428 509/489/449 510/490/450 489/469/429
f 489/469/429 510/490/450 511/491/451 490/470/430
f 490/470/430 511/491/451 512/492/452 491/471/431
f 491/471/431 512/492/452 513/493/453 492/472/432
f 492/472/432 513/493/453 514/494/454 493/473/433
f 493/473/433 514/494/454 515/495/455 494/474/434
f 494/474/434 515/495/455 516/496/456 495/475/435
f 495/475/435 516/496/456 517/497/457 496/476/436
f 496/476/436 517/497/457 518/498/458 497/477/437
f 497/477/437 518/498/458 519/499/459 498/478/438
f 498/478/438 519/499/459 520/500/460 499/479/439
f 499/479/439 520/500/460 521/501/461 500/480/440
f 500/480/440 521/501/461 522/502/462 501/481/441
f 501/481/441 522/502/462 523/503/463 502/482/442
f 502/482/442 523/503/463 524/504/464 503/483/443
f 503/483/443 524/504/464 525/505/465 504/484/444
f 504/484/444 525/505/465 526/506/466 505/485/445
f 505/485/445 526/506/466 527/507/467 506/486/446
f 506/486/446 527/507/467 528/508/468 507/487/447
f 507/487/447 528/508/468 529/1/1 508/45/45
f 46/488/448 2/509/469 47/510/470 509/489/449
f 509/489/449 47/510/470 48/511/471 510/490/450
f 510/490/450 48/511/471 49/512/472 511/491/451
f 511/491/451 49/512/472 50/513/473 512/492/452
f 512/492/452 50/513/473 51/514/474 513/493/453
f 513/493/453 51/514/474 52/515/475 514/494/454
f 514/494/454 52/515/475 53/516/476 515/495/455
f 515/495/455 53/516/476 54/517/477 516/496/456
f 516/496/456 54/517/477 55/518/478 517/497/457
f 517/497/457 55/518/478 56/519/479 518/498/458
f 518/498/458 56/519/479 57/520/480 519/499/459
f 519/499/459 57/520/480 58/521/481 520/500/460
f 520/500/460 58/521/481 59/522/482 521/501/461
f 521/501/461 59/522/482 60/523/483 522/502/462
f 522/502/462 60/523/483 61/524/484 523/503/463
f 523/503/463 61/524/484 62/525/485 524/504/464
f 524/504/464 62/525/485 63/526/486 525/505/465
f 525/505/465 63/526/486 64/527/487 526/506/466
f 526/506/466 64/527/487 65/528/488 527/507/467
f 527/507/467 65/528/488 66/529/489 528/508/468
f 528/508/468 66/529/489 67/2/2 529/1/1
