# Blender v2.79 (sub 0) OBJ File: ''
# www.blender.org
mtllib cat_detail.mtl
o cat_detail
v -0.646717 0.267878 -0.070000
v -0.360031 0.360030 -0.070000
v -0.416401 0.208857 -0.070000
v -0.503847 0.162893 -0.070000
v 0.267878 -0.646716 -0.070000
v 0.000000 -0.700000 -0.070000
v 0.000000 -0.630000 -0.070000
v 0.267878 -0.646716 0.070000
v 0.162892 -0.503846 -0.070000
v 0.162892 -0.503846 0.070000
v 0.208857 -0.416401 -0.070000
v 0.630000 0.000000 -0.070000
v -0.494976 -0.494975 -0.070000
v -0.360031 -0.360030 -0.070000
v -0.158777 -0.499731 -0.070000
v 0.699999 0.000000 0.070000
v 0.646716 0.267878 0.070000
v 0.630000 0.000000 0.070000
v -0.267879 0.646716 -0.070000
v 0.646716 -0.267878 -0.070000
v -0.646717 -0.267879 0.070000
v 0.503846 -0.162893 0.070000
v 0.593969 0.593970 0.182000
v 0.712764 0.712764 0.182000
v 0.000000 -0.840000 -0.182000
v -0.385746 -0.931271 -0.182000
v -0.776060 -0.321454 0.182000
v -0.931271 -0.385745 0.182000
v -0.712765 -0.712764 0.182000
v 0.593969 0.593970 -0.182000
v 0.321454 0.776059 -0.182000
v 0.712764 0.712764 -0.182000
v 0.000000 0.840000 0.182000
v 0.000000 1.008000 0.182000
v 0.321454 -0.776059 -0.182000
v 0.385745 -0.931271 -0.182000
v 0.000000 1.008000 -0.182000
v -0.321455 0.776059 0.182000
v -0.385746 0.931271 0.182000
v 0.593969 -0.593970 -0.182000
v 0.712764 -0.712764 -0.182000
v -0.385746 0.931271 -0.182000
v 0.776059 -0.321454 0.182000
v 0.931271 -0.385745 0.182000
v 0.776059 -0.321454 -0.182000
v -0.321455 0.776059 0.140001
v -0.593970 0.593970 0.182000
v 0.000000 0.700000 -0.070000
v 0.385745 0.931271 0.182000
v 0.385745 0.931271 -0.182000
v -0.267879 -0.646716 -0.070000
v -0.267879 0.646716 0.070000
v 0.000000 0.700000 0.070000
v 0.000000 0.700000 0.140001
v 0.000000 0.840000 -0.140000
v -0.321455 0.776059 -0.182000
v 0.000000 0.840000 -0.182000
v 0.000000 -0.700000 0.070000
v -0.267879 -0.646716 0.070000
v 0.000000 -0.700000 0.140000
v 0.267878 0.646716 -0.140000
v 0.321454 0.776059 -0.140000
v 0.321454 0.776059 0.140001
v 0.321454 0.776059 0.182000
v -0.494976 -0.494975 0.070000
v 0.494975 0.494975 -0.140000
v 0.931271 0.385745 0.182000
v 0.494975 0.494975 0.070000
v 0.494975 0.494975 0.140001
v 0.593969 0.593970 -0.140000
v 0.593969 0.593970 0.140001
v 0.646716 0.267878 -0.070000
v 0.646716 0.267878 -0.140000
v 0.646716 0.267878 0.140000
v 1.007999 0.000000 0.182000
v 1.007999 0.000000 -0.182000
v 0.776059 0.321454 -0.140000
v 0.776059 0.321454 -0.182000
v -0.646717 -0.267879 -0.070000
v -0.646717 -0.267879 -0.140000
v 0.699999 0.000000 -0.070000
v -0.360031 -0.360030 0.070000
v -0.158777 -0.499731 0.070000
v 0.000000 -0.630000 0.070000
v -0.494976 0.494975 0.070000
v -0.360031 0.360030 0.070000
v 0.503846 -0.162893 -0.070000
v 0.158776 0.499731 0.070000
v 0.000000 0.630000 0.070000
v -0.162893 0.503846 0.070000
v -0.162893 0.503846 -0.070000
v 0.000000 0.630000 -0.070000
v -0.630001 0.000000 0.070000
v -0.499732 -0.158777 0.070000
v -0.499732 -0.158777 -0.070000
v -0.630001 0.000000 -0.070000
v 0.158776 0.499731 -0.070000
v 0.267878 0.646716 -0.070000
v 0.494975 0.494975 -0.070000
v 0.360030 0.360030 -0.070000
v 0.179053 0.411920 -0.070000
v 0.416400 -0.208857 0.070000
v 0.494975 -0.494975 -0.070000
v 0.360030 -0.360030 -0.070000
v -0.208858 0.416401 -0.070000
v -0.646717 0.267878 0.070000
v -0.503847 0.162893 0.070000
v -0.411921 -0.179054 0.070000
v 0.499731 0.158777 -0.070000
v 0.499731 0.158777 0.070000
v 0.267879 0.646716 0.070000
v -0.416401 0.208857 0.070000
v 0.360030 -0.360030 0.070000
v 0.208857 -0.416401 0.070000
v 0.360030 0.360030 0.070000
v 0.179053 0.411920 0.070000
v -0.091813 -0.177047 -0.070000
v 0.177846 -0.101880 0.070000
v 0.177846 -0.101880 -0.070000
v 0.091812 0.177047 0.070000
v 0.091812 0.177047 -0.070000
v -0.177847 0.101880 0.070000
v 0.416400 -0.208857 -0.070000
v 0.101880 -0.177847 0.070000
v 0.101880 -0.177847 -0.070000
v -0.177847 0.101880 -0.070000
v -0.101881 0.177847 0.070000
v -0.101881 0.177847 -0.070000
v -0.208858 0.416401 0.070000
v -0.179054 -0.411920 0.070000
v -0.179054 -0.411920 -0.070000
v -0.091813 -0.177047 0.070000
v -0.177047 -0.091812 0.070000
v -0.177047 -0.091812 -0.070000
v -0.411921 -0.179054 -0.070000
v 0.177046 0.091812 -0.070000
v 0.177046 0.091812 0.070000
v 0.411920 0.179054 -0.070000
v 0.411920 0.179054 0.070000
v 0.699999 0.000000 0.140000
v 0.646716 -0.267878 0.140000
v 0.840000 0.000000 0.140000
v -0.646717 -0.267879 0.140000
v -0.700000 0.000000 0.140000
v -0.840001 0.000000 0.140000
v -0.776060 -0.321454 0.140000
v 0.646716 -0.267878 -0.140000
v 0.699999 0.000000 -0.140000
v 0.776059 -0.321454 -0.140000
v -0.776060 -0.321455 -0.140000
v -0.840001 0.000000 -0.140000
v -0.267879 -0.646716 0.140000
v -0.321455 -0.776059 0.140000
v -0.267879 0.646716 0.140001
v 0.000000 0.840000 0.140001
v -0.267879 -0.646716 -0.140000
v 0.000000 -0.700000 -0.140000
v 0.000000 0.700000 -0.140000
v -0.267879 0.646716 -0.140000
v -0.321455 0.776059 -0.140000
v 0.776059 0.321454 0.140000
v -0.494976 -0.494975 0.140000
v -0.494976 -0.494975 -0.140000
v -0.593970 -0.593970 -0.140000
v 0.267878 -0.646716 0.140000
v -0.593970 0.593970 0.140001
v 0.267878 -0.646716 -0.140000
v 0.321454 -0.776059 -0.140000
v -0.494976 0.494975 -0.140000
v -0.593970 0.593970 -0.140000
v 0.593969 -0.593970 0.140000
v -0.646717 0.267878 0.140000
v 0.494975 -0.494975 -0.140000
v 0.593969 -0.593970 -0.140000
v -0.646717 0.267878 -0.140000
v -0.776060 0.321454 -0.140000
v 0.267879 0.646716 0.140001
v 0.776059 0.321454 0.182000
v -0.494976 0.494975 0.140001
v 0.931271 -0.385745 -0.182000
v -0.494976 0.494975 -0.070000
v 0.840000 0.000000 -0.140000
v 0.840000 0.000000 -0.182000
v 0.494975 -0.494975 0.070000
v 0.494975 -0.494975 0.140000
v 0.712764 -0.712764 0.182000
v 0.646716 -0.267878 0.070000
v 0.776059 -0.321454 0.140000
v -0.700000 0.000000 0.070000
v 0.385745 -0.931270 0.182000
v -0.700000 0.000000 -0.070000
v -0.700000 0.000000 -0.140000
v 0.593969 -0.593970 0.182000
v 0.000000 -1.008000 0.182000
v 0.000000 -1.008000 -0.182000
v -1.008000 0.000000 -0.182000
v -0.321455 -0.776059 0.182000
v 0.931271 0.385745 -0.182000
v -0.840001 0.000000 0.182000
v -1.008000 0.000000 0.182000
v -0.931272 0.385745 -0.182000
v -0.776060 0.321454 0.182000
v -0.931272 0.385745 0.182000
v 0.840000 0.000000 0.182000
v -0.593970 0.593970 -0.182000
v -0.712765 0.712764 -0.182000
v -0.776060 0.321454 0.140000
v -0.776060 0.321454 -0.182000
v -0.712765 0.712764 0.182000
v -0.593970 -0.593970 0.140000
v -0.593970 -0.593970 0.182000
v -0.840001 0.000000 -0.182000
v -0.321455 -0.776059 -0.140000
v -0.321455 -0.776059 -0.182000
v -0.593970 -0.593970 -0.182000
v 0.000000 -0.840000 0.140000
v 0.000000 -0.840000 0.182000
v -0.776060 -0.321455 -0.182000
v 0.000000 -0.840000 -0.140000
v -0.385746 -0.931271 0.182000
v -0.712765 -0.712764 -0.182000
v 0.321454 -0.776059 0.140000
v 0.321454 -0.776059 0.182000
v -0.931271 -0.385745 -0.182000
vt 0.104977 0.414074
vt 0.126650 0.360136
vt 0.160703 0.382822
vt 0.155336 0.416989
vt 0.138858 0.430402
vt 0.334412 0.566659
vt 0.280514 0.589005
vt 0.277630 0.574590
vt 0.306289 0.541716
vt 0.079671 0.054188
vt 0.060337 0.054188
vt 0.060337 0.026789
vt 0.079671 0.026789
vt 0.865623 0.684690
vt 0.866008 0.742907
vt 0.840837 0.732865
vt 0.851128 0.687633
vt 0.702344 0.026789
vt 0.702344 0.054187
vt 0.683010 0.054187
vt 0.683010 0.026789
vt 0.375098 0.359602
vt 0.397219 0.413558
vt 0.382813 0.416476
vt 0.349006 0.388743
vt 0.222219 0.589467
vt 0.168275 0.567672
vt 0.191147 0.533320
vt 0.231122 0.536622
vt 0.239026 0.554129
vt 0.748811 0.859789
vt 0.690464 0.860079
vt 0.707332 0.824723
vt 0.745959 0.845282
vt 0.168011 0.319300
vt 0.221909 0.296953
vt 0.224793 0.311368
vt 0.196134 0.344243
vt 0.573548 0.742851
vt 0.573163 0.684635
vt 0.598335 0.694676
vt 0.588042 0.739908
vt 0.843482 0.630688
vt 0.817315 0.659812
vt 0.127326 0.526357
vt 0.105205 0.472401
vt 0.119611 0.469483
vt 0.153417 0.497216
vt 0.397446 0.471885
vt 0.363566 0.455557
vt 0.690359 0.567754
vt 0.748705 0.567463
vt 0.731837 0.602819
vt 0.693211 0.582261
vt 0.802733 0.837787
vt 0.783820 0.818410
vt 0.546306 0.829901
vt 0.603840 0.887559
vt 0.580650 0.921189
vt 0.511954 0.852036
vt 0.211042 0.647848
vt 0.292438 0.647335
vt 0.299905 0.687488
vt 0.202642 0.687842
vt 0.835328 0.539982
vt 0.760020 0.509115
vt 0.768528 0.469178
vt 0.858517 0.506351
vt 0.366826 0.268852
vt 0.291381 0.238109
vt 0.299781 0.198115
vt 0.389990 0.235143
vt 0.924346 0.754208
vt 0.923993 0.672873
vt 0.964163 0.665497
vt 0.964302 0.762685
vt 0.077958 0.559443
vt 0.135598 0.617105
vt 0.112435 0.650814
vt 0.043582 0.581611
vt 0.515178 0.754666
vt 0.475009 0.762041
vt 0.367554 0.616016
vt 0.389745 0.650312
vt 0.209984 0.238623
vt 0.202517 0.198470
vt 0.893475 0.829584
vt 0.927137 0.852788
vt 0.514827 0.673333
vt 0.474872 0.664855
vt 0.425116 0.558445
vt 0.458749 0.581570
vt 0.134868 0.269943
vt 0.112677 0.235647
vt 0.835768 0.887147
vt 0.857895 0.921523
vt 0.545698 0.597959
vt 0.512037 0.574755
vt 0.455837 0.483149
vt 0.495765 0.491625
vt 0.554372 0.603660
vt 0.525018 0.675259
vt 0.158998 0.305983
vt 0.218602 0.281175
vt 0.500000 0.105313
vt 0.500000 0.160841
vt 0.440003 0.160841
vt 0.440003 0.105313
vt 0.283821 0.604783
vt 0.219274 0.605291
vt 0.557756 0.746126
vt 0.557351 0.681658
vt 0.212114 0.248774
vt 0.140698 0.278521
vt 0.856801 0.621698
vt 0.881415 0.681414
vt 0.525331 0.752560
vt 0.280205 0.296491
vt 0.283149 0.280667
vt 0.380006 0.160841
vt 0.380006 0.105314
vt 0.159506 0.581076
vt 0.595688 0.796853
vt 0.582369 0.805842
vt 0.289473 0.248308
vt 0.554898 0.824084
vt 0.802596 0.589338
vt 0.811381 0.575951
vt 0.334148 0.318286
vt 0.342918 0.304882
vt 0.320009 0.160841
vt 0.320009 0.105314
vt 0.636573 0.838204
vt 0.627788 0.851590
vt 0.361135 0.277536
vt 0.609537 0.878892
vt 0.388410 0.350603
vt 0.687484 0.875900
vt 0.260011 0.160841
vt 0.260011 0.105314
vt 0.415871 0.332339
vt 0.424466 0.326516
vt 0.114014 0.535355
vt 0.413009 0.410301
vt 0.751685 0.551643
vt 0.779679 0.623652
vt 0.739737 0.620326
vt 0.782858 0.054187
vt 0.742665 0.054187
vt 0.742665 0.026789
vt 0.782858 0.026789
vt 0.595094 0.630709
vt 0.629491 0.653681
vt 0.623973 0.687604
vt 0.540321 0.054187
vt 0.500000 0.054187
vt 0.500000 0.026789
vt 0.540321 0.026789
vt 0.459807 0.054187
vt 0.459807 0.026789
vt 0.302875 0.054187
vt 0.262681 0.054187
vt 0.262681 0.026789
vt 0.302875 0.026789
vt 0.222360 0.054187
vt 0.222360 0.026789
vt 0.020016 0.054188
vt 0.020016 0.026789
vt 0.979984 0.054187
vt 0.939790 0.054187
vt 0.939790 0.026789
vt 0.979984 0.026789
vt 0.320512 0.026789
vt 0.320512 0.054187
vt 0.311276 0.352638
vt 0.271301 0.349336
vt 0.263397 0.331829
vt 0.559655 0.054187
vt 0.559655 0.026789
vt 0.190131 0.364650
vt 0.375774 0.525823
vt 0.341720 0.503137
vt 0.347087 0.468970
vt 0.329789 0.388225
vt 0.203027 0.054187
vt 0.203027 0.026789
vt 0.312292 0.521309
vt 0.636438 0.589756
vt 0.655351 0.609133
vt 0.922153 0.054187
vt 0.922153 0.026789
vt 0.442170 0.054187
vt 0.442170 0.026789
vt 0.621855 0.767729
vt 0.172634 0.497734
vt 0.800495 0.026789
vt 0.800495 0.054187
vt 0.658695 0.635562
vt 0.844078 0.796834
vt 0.809680 0.773862
vt 0.815198 0.739938
vt 0.659491 0.803890
vt 0.699433 0.807217
vt 0.780476 0.791981
vt 0.641067 0.768293
vt 0.798103 0.659248
vt 0.752699 0.687236
vt 0.731353 0.673005
vt 0.218092 0.469608
vt 0.239477 0.483826
vt 0.748247 0.746626
vt 0.760933 0.727602
vt 0.279961 0.475859
vt 0.292664 0.456760
vt 0.686472 0.740305
vt 0.707817 0.754538
vt 0.284331 0.416350
vt 0.262947 0.402131
vt 0.690924 0.680917
vt 0.678238 0.699940
vt 0.222463 0.410100
vt 0.209760 0.429200
vt 0.610820 0.026789
vt 0.610820 0.054187
vt 0.631845 0.026789
vt 0.631845 0.054187
vt 0.130836 0.026789
vt 0.130836 0.054187
vt 0.151861 0.026789
vt 0.151861 0.054187
vt 0.849529 0.026789
vt 0.849529 0.054187
vt 0.873119 0.026789
vt 0.873119 0.054187
vt 0.369546 0.026789
vt 0.369546 0.054187
vt 0.393136 0.026789
vt 0.393136 0.054187
vt 0.752052 0.875585
vt 0.811714 0.851095
vt 0.829956 0.878550
vt 0.758424 0.908026
vt 0.687118 0.551958
vt 0.680746 0.519518
vt 0.758088 0.519302
vt 0.413283 0.474847
vt 0.445424 0.403893
vt 0.445652 0.481228
vt 0.089415 0.475658
vt 0.086553 0.553619
vt 0.057001 0.482067
vt 0.884271 0.603456
vt 0.913840 0.674980
vt 0.290308 0.637184
vt 0.212950 0.637650
vt 0.681080 0.908241
vt 0.829631 0.548649
vt 0.141288 0.608422
vt 0.881821 0.745884
vt 0.914154 0.752282
vt 0.581693 0.621919
vt 0.343424 0.579976
vt 0.361725 0.607438
vt 0.113269 0.351382
vt 0.085977 0.333197
vt 0.857479 0.805624
vt 0.884800 0.823883
vt 0.627457 0.576448
vt 0.609215 0.548994
vt 0.389154 0.534577
vt 0.416446 0.552763
vt 0.089141 0.411112
vt 0.056772 0.404731
vt 0.679147 0.918428
vt 0.200014 0.160841
vt 0.200014 0.105313
vt 0.455581 0.401793
vt 0.760519 0.918184
vt 0.140017 0.160841
vt 0.140017 0.105313
vt 0.080020 0.160840
vt 0.080020 0.105313
vt 0.020023 0.160840
vt 0.020023 0.105313
vt 0.046843 0.484167
vt 0.006658 0.491514
vt 0.892863 0.597639
vt 0.927215 0.575503
vt 0.458843 0.304348
vt 0.678651 0.509361
vt 0.671327 0.469178
vt 0.670640 0.958366
vt 0.046587 0.402810
vt 0.006658 0.394335
vt 0.495766 0.394445
vt 0.603403 0.540398
vt 0.581277 0.506022
vt 0.767842 0.958368
vt 0.077307 0.327514
vt 0.043674 0.304390
vt 0.559997 0.105313
vt 0.559997 0.160841
vt 0.619994 0.105313
vt 0.619994 0.160841
vt 0.679991 0.105313
vt 0.679991 0.160840
vt 0.739988 0.105313
vt 0.739988 0.160840
vt 0.919980 0.105313
vt 0.919980 0.160840
vt 0.859983 0.160840
vt 0.859983 0.105313
vt 0.799986 0.105313
vt 0.799986 0.160840
vt 0.979977 0.105313
vt 0.979977 0.160840
vn 0.0000 0.0000 -1.0000
vn 0.4653 -0.8852 -0.0000
vn 0.6426 -0.7662 -0.0000
vn 0.0000 -0.0000 1.0000
vn -0.7662 0.6426 0.0000
vn -0.8852 0.4653 0.0000
vn 0.7071 -0.7071 0.0000
vn 0.3827 -0.9239 0.0000
vn -0.0000 -1.0000 0.0000
vn 0.0000 1.0000 0.0000
vn 0.3827 0.9239 0.0000
vn -0.3827 -0.9239 -0.0000
vn 0.7071 0.7071 0.0000
vn -0.7071 -0.7071 -0.0000
vn 0.9239 0.3827 0.0000
vn -0.9239 -0.3827 -0.0000
vn 1.0000 0.0000 0.0000
vn -1.0000 -0.0000 0.0000
vn 0.6343 0.7731 0.0000
vn -0.6123 0.7906 0.0000
vn -0.6426 0.7662 0.0000
vn -0.7906 0.6123 0.0000
vn -0.7731 -0.6343 -0.0000
vn -0.6343 -0.7731 0.0000
vn 0.6123 -0.7906 0.0000
vn 0.7662 -0.6426 0.0000
vn 0.7906 -0.6123 -0.0000
vn 0.7731 0.6343 0.0000
vn -0.9744 -0.2250 0.0000
vn -0.4653 0.8852 0.0000
vn 0.8852 -0.4653 0.0000
vn 0.2250 0.9744 0.0000
vn -0.2250 -0.9744 -0.0000
vn 0.9744 0.2250 0.0000
vn 0.4092 0.9125 0.0000
vn -0.7071 0.7071 0.0000
vn -0.9125 -0.4092 0.0000
vn -0.4092 -0.9125 -0.0000
vn 0.9125 0.4092 0.0000
vn 0.9374 -0.3482 0.0000
vn -0.3482 0.9374 0.0000
vn -0.9374 0.3482 0.0000
vn 0.3482 -0.9374 -0.0000
vn -0.3827 0.9239 0.0000
vn 0.9239 -0.3827 -0.0000
vn -0.9239 0.3827 0.0000
usemtl Material.001
s 1
f 1/1/1 181/2/1 2/3/1 3/4/1 4/5/1
f 5/6/1 6/7/1 7/8/1 9/9/1
f 112/10/2 107/11/3 4/12/3 3/13/2
f 58/14/4 8/15/4 10/16/4 84/17/4
f 9/18/5 10/19/5 114/20/6 11/21/6
f 72/22/1 81/23/1 12/24/1 109/25/1
f 51/26/1 13/27/1 14/28/1 131/29/1 15/30/1
f 16/31/4 17/32/4 110/33/4 18/34/4
f 19/35/1 48/36/1 92/37/1 91/38/1
f 6/7/1 51/26/1 15/30/1 7/8/1
f 53/39/4 52/40/4 90/41/4 89/42/4
f 59/43/4 58/14/4 84/17/4 83/44/4
f 79/45/1 191/46/1 96/47/1 95/48/1
f 81/23/1 20/49/1 87/50/1 12/24/1
f 189/51/4 21/52/4 94/53/4 93/54/4
f 187/55/4 16/31/4 18/34/4 22/56/4
f 64/57/4 23/58/4 24/59/4 49/60/4
f 214/61/1 25/62/1 195/63/1 26/64/1
f 211/65/4 27/66/4 28/67/4 29/68/4
f 30/69/1 31/70/1 50/71/1 32/72/1
f 223/73/4 217/74/4 194/75/4 190/76/4
f 218/77/1 215/78/1 221/79/1 224/80/1
f 33/81/4 64/57/4 49/60/4 34/82/4
f 25/62/1 35/83/1 36/84/1 195/63/1
f 31/70/1 57/85/1 37/86/1 50/71/1
f 193/87/4 223/73/4 190/76/4 186/88/4
f 38/89/4 33/81/4 34/82/4 39/90/4
f 35/83/1 40/91/1 41/92/1 36/84/1
f 57/85/1 56/93/1 42/94/1 37/86/1
f 43/95/4 193/87/4 186/88/4 44/96/4
f 47/97/4 38/89/4 39/90/4 209/98/4
f 40/91/1 45/99/1 180/100/1 41/92/1
f 166/101/7 46/102/8 38/89/8 47/97/7
f 48/36/9 19/35/8 159/103/8 158/104/9
f 37/105/10 34/106/10 49/107/11 50/108/11
f 51/26/11 6/7/10 157/109/10 156/110/11
f 52/40/8 53/39/9 54/111/9 154/112/8
f 55/113/9 160/114/8 56/93/8 57/85/9
f 58/14/10 59/43/11 152/115/11 60/116/10
f 46/102/8 155/117/9 33/81/9 38/89/8
f 98/118/12 48/36/9 158/104/9 61/119/12
f 50/108/11 49/107/11 24/120/13 32/121/13
f 13/27/13 51/26/11 156/110/11 163/122/13
f 53/39/9 111/123/12 177/124/12 54/111/9
f 62/125/12 55/113/9 57/85/9 31/70/12
f 155/117/9 63/126/12 64/57/12 33/81/9
f 59/43/11 65/127/13 162/128/13 152/115/11
f 99/129/14 98/118/12 61/119/12 66/130/14
f 32/121/13 24/120/13 67/131/15 198/132/15
f 111/123/12 68/133/14 69/134/14 177/124/12
f 70/135/14 62/125/12 31/70/12 30/69/14
f 63/126/12 71/136/14 23/58/14 64/57/12
f 72/22/16 99/129/14 66/130/14 73/137/16
f 68/133/14 17/32/16 74/138/16 69/134/14
f 198/132/15 67/131/15 75/139/17 76/140/17
f 77/141/16 70/135/14 30/69/14 78/142/16
f 79/45/15 13/27/13 163/122/13 80/143/15
f 81/23/18 72/22/16 73/137/16 148/144/18
f 65/127/13 21/52/15 143/145/15 162/128/13
f 21/52/4 65/127/4 82/146/4 108/147/4 94/53/4
f 83/148/19 84/149/19 7/150/19 15/151/19
f 84/149/20 10/19/5 9/18/5 7/150/20
f 52/40/4 85/152/4 86/153/4 129/154/4 90/41/4
f 22/155/21 18/156/22 12/157/22 87/158/21
f 18/156/23 110/159/23 109/160/23 12/157/23
f 88/161/24 89/162/24 92/163/24 97/164/24
f 89/162/25 90/165/26 91/166/26 92/163/25
f 107/11/3 93/167/27 96/168/27 4/12/3
f 93/169/28 94/170/28 95/171/28 96/172/28
f 88/161/29 97/164/29 101/173/29 116/174/29
f 98/118/1 99/129/1 100/175/1 101/176/1 97/177/1
f 102/178/30 22/155/21 87/158/21 123/179/30
f 181/2/1 19/35/1 91/38/1 105/180/1 2/3/1
f 20/49/1 103/181/1 104/182/1 123/183/1 87/50/1
f 99/129/1 72/22/1 109/25/1 138/184/1 100/175/1
f 91/166/26 90/165/26 129/185/31 105/186/31
f 103/181/1 5/6/1 9/9/1 11/187/1 104/182/1
f 106/188/4 189/51/4 93/54/4 107/189/4
f 108/190/32 135/191/32 95/171/32 94/170/32
f 109/160/33 110/159/33 139/192/33 138/193/33
f 191/46/1 1/1/1 4/5/1 96/47/1
f 111/123/4 53/39/4 89/42/4 88/194/4
f 13/27/1 79/45/1 95/48/1 135/195/1 14/28/1
f 48/36/1 98/118/1 97/177/1 92/37/1
f 83/148/34 15/151/34 131/196/34 130/197/34
f 85/152/4 106/188/4 107/189/4 112/198/4 86/153/4
f 8/15/4 184/199/4 113/200/4 114/201/4 10/16/4
f 17/32/4 68/133/4 115/202/4 139/203/4 110/33/4
f 184/199/4 187/55/4 22/56/4 102/204/4 113/200/4
f 68/133/4 111/123/4 88/194/4 116/205/4 115/202/4
f 130/206/4 132/207/4 82/146/4
f 132/207/4 133/208/4 82/146/4
f 133/208/4 108/147/4 82/146/4
f 135/195/1 134/209/1 14/28/1
f 134/209/1 117/210/1 14/28/1
f 117/210/1 131/29/1 14/28/1
f 102/204/4 118/211/4 113/200/4
f 118/211/4 124/212/4 113/200/4
f 124/212/4 114/201/4 113/200/4
f 11/187/1 125/213/1 104/182/1
f 125/213/1 119/214/1 104/182/1
f 119/214/1 123/183/1 104/182/1
f 116/205/4 120/215/4 115/202/4
f 120/215/4 137/216/4 115/202/4
f 137/216/4 139/203/4 115/202/4
f 138/184/1 136/217/1 100/175/1
f 136/217/1 121/218/1 100/175/1
f 121/218/1 101/176/1 100/175/1
f 112/198/4 122/219/4 86/153/4
f 122/219/4 127/220/4 86/153/4
f 127/220/4 129/154/4 86/153/4
f 105/180/1 128/221/1 2/3/1
f 128/221/1 126/222/1 2/3/1
f 126/222/1 3/4/1 2/3/1
f 102/178/35 123/179/35 119/223/35 118/224/35
f 118/224/36 119/223/36 125/225/36 124/226/36
f 124/226/37 125/225/37 11/21/37 114/20/37
f 112/10/38 3/13/38 126/227/38 122/228/38
f 122/228/7 126/227/7 128/229/7 127/230/7
f 127/230/39 128/229/39 105/186/39 129/185/39
f 130/197/40 131/196/40 117/231/40 132/232/40
f 132/232/13 117/231/13 134/233/13 133/234/13
f 133/234/41 134/233/41 135/191/41 108/190/41
f 116/174/42 101/173/42 121/235/42 120/236/42
f 120/236/14 121/235/14 136/237/14 137/238/14
f 137/238/43 136/237/43 138/193/43 139/192/43
f 65/127/4 59/43/4 83/44/4 130/206/4 82/146/4
f 140/239/4 141/240/4 188/241/4 142/242/4
f 143/145/4 144/243/4 145/244/4 146/245/4
f 147/246/1 148/144/1 182/247/1 149/248/1
f 192/249/1 80/143/1 150/250/1 151/251/1
f 60/116/4 152/115/4 153/252/4 216/253/4
f 154/112/4 54/111/4 155/117/4 46/102/4
f 156/110/1 157/109/1 219/254/1 213/255/1
f 158/104/1 159/103/1 160/114/1 55/113/1
f 74/138/4 140/239/4 142/242/4 161/256/4
f 162/128/4 143/145/4 146/245/4 210/257/4
f 148/144/1 73/137/1 77/141/1 182/247/1
f 80/143/1 163/122/1 164/258/1 150/250/1
f 165/259/4 60/116/4 216/253/4 222/260/4
f 179/261/4 154/112/4 46/102/4 166/101/4
f 157/109/1 167/262/1 168/263/1 219/254/1
f 159/103/1 169/264/1 170/265/1 160/114/1
f 69/134/4 74/138/4 161/256/4 71/136/4
f 73/137/1 66/130/1 70/135/1 77/141/1
f 185/266/4 165/259/4 222/260/4 171/267/4
f 172/268/4 179/261/4 166/101/4 207/269/4
f 167/262/1 173/270/1 174/271/1 168/263/1
f 169/264/1 175/272/1 176/273/1 170/265/1
f 177/124/4 69/134/4 71/136/4 63/126/4
f 66/130/1 61/119/1 62/125/1 70/135/1
f 141/240/4 185/266/4 171/267/4 188/241/4
f 144/243/4 172/268/4 207/269/4 145/244/4
f 152/115/4 162/128/4 210/257/4 153/252/4
f 173/270/1 147/246/1 149/248/1 174/271/1
f 175/272/1 192/249/1 151/251/1 176/273/1
f 54/111/4 177/124/4 63/126/4 155/117/4
f 163/122/1 156/110/1 213/255/1 164/258/1
f 61/119/1 158/104/1 55/113/1 62/125/1
f 8/15/44 58/14/10 60/116/10 165/259/44
f 71/136/14 161/256/16 178/274/16 23/58/14
f 85/152/7 52/40/8 154/112/8 179/261/7
f 6/7/10 5/6/44 167/262/44 157/109/10
f 76/140/17 75/139/17 44/275/45 180/276/45
f 19/35/8 181/2/7 169/264/7 159/103/8
f 182/247/18 77/141/16 78/142/16 183/277/18
f 184/199/36 8/15/44 165/259/44 185/266/36
f 161/256/16 142/242/18 204/278/18 178/274/16
f 106/188/45 85/152/7 179/261/7 172/268/45
f 5/6/44 103/181/36 173/270/36 167/262/44
f 180/276/45 44/275/45 186/279/7 41/280/7
f 181/2/7 1/1/45 175/272/45 169/264/7
f 149/248/46 182/247/18 183/277/18 45/99/46
f 187/55/46 184/199/36 185/266/36 141/240/46
f 142/242/18 188/241/46 43/95/46 204/278/18
f 189/51/17 106/188/45 172/268/45 144/243/17
f 103/181/36 20/49/46 147/246/46 173/270/36
f 41/280/7 186/279/7 190/281/8 36/282/8
f 1/1/45 191/46/17 192/249/17 175/272/45
f 174/271/36 149/248/46 45/99/46 40/91/36
f 16/31/18 187/55/46 141/240/46 140/239/18
f 21/52/15 189/51/17 144/243/17 143/145/15
f 20/49/46 81/23/18 148/144/18 147/246/46
f 188/241/46 171/267/36 193/87/36 43/95/46
f 191/46/17 79/45/15 80/143/15 192/249/17
f 36/282/8 190/281/8 194/283/9 195/284/9
f 17/32/16 16/31/18 140/239/18 74/138/16
f 212/285/1 218/77/1 224/80/1 196/286/1
f 217/74/4 197/287/4 220/288/4 194/75/4
f 78/142/1 30/69/1 32/72/1 198/289/1
f 27/66/4 199/290/4 200/291/4 28/67/4
f 215/78/1 214/61/1 26/64/1 221/79/1
f 23/58/4 178/274/4 67/292/4 24/59/4
f 208/293/1 212/285/1 196/286/1 201/294/1
f 197/287/4 211/65/4 29/68/4 220/288/4
f 183/277/1 78/142/1 198/289/1 76/295/1
f 199/290/4 202/296/4 203/297/4 200/291/4
f 178/274/4 204/278/4 75/298/4 67/292/4
f 205/299/1 208/293/1 201/294/1 206/300/1
f 45/99/1 183/277/1 76/295/1 180/100/1
f 202/296/4 47/97/4 209/98/4 203/297/4
f 204/278/4 43/95/4 44/96/4 75/298/4
f 56/93/1 205/299/1 206/300/1 42/94/1
f 160/114/8 170/265/7 205/299/7 56/93/8
f 42/301/44 39/302/44 34/106/10 37/105/10
f 207/269/45 166/101/7 47/97/7 202/296/45
f 170/265/7 176/273/45 208/293/45 205/299/7
f 206/303/36 209/304/36 39/302/44 42/301/44
f 145/244/17 207/269/45 202/296/45 199/290/17
f 153/252/11 210/257/13 211/65/13 197/287/11
f 176/273/45 151/251/17 212/285/17 208/293/45
f 164/258/13 213/255/11 214/61/11 215/78/13
f 201/305/46 203/306/46 209/304/36 206/303/36
f 146/245/15 145/244/17 199/290/17 27/66/15
f 216/253/10 153/252/11 197/287/11 217/74/10
f 151/251/17 150/250/15 218/77/15 212/285/17
f 213/255/11 219/254/10 25/62/10 214/61/11
f 196/307/18 200/308/18 203/306/46 201/305/46
f 210/257/13 146/245/15 27/66/15 211/65/13
f 26/309/12 220/310/12 29/311/14 221/312/14
f 222/260/44 216/253/10 217/74/10 223/73/44
f 150/250/15 164/258/13 215/78/13 218/77/15
f 219/254/10 168/263/44 35/83/44 25/62/10
f 224/313/16 28/314/16 200/308/18 196/307/18
f 195/315/9 194/316/9 220/310/12 26/309/12
f 171/267/36 222/260/44 223/73/44 193/87/36
f 168/263/44 174/271/36 40/91/36 35/83/44
f 221/312/14 29/311/14 28/314/16 224/313/16
