# Blender v2.79 (sub 0) OBJ File: ''
# www.blender.org
mtllib sci-building1.mtl
o sci-building1_Cube
v -1.390871 -0.000000 0.700000
v -1.390872 1.400000 0.700000
v 1.409129 -0.000000 0.700000
v -0.457538 1.400000 0.700000
v -1.390871 6.300000 -0.874999
v 0.475796 9.800000 -0.699998
v 0.475796 9.800000 -0.874998
v 0.164685 9.800000 -0.874998
v -1.390872 1.400000 0.388889
v -1.390871 2.800000 -0.700000
v -1.390871 2.800000 -0.875000
v 0.786907 3.500000 -0.699999
v 0.786907 3.500000 -1.574999
v 1.409129 0.000000 -1.575000
v 1.409128 2.800000 0.388889
v 1.409130 2.800000 -0.700000
v -1.390871 1.400000 -1.575000
v 0.164684 2.800000 0.700000
v 1.409130 4.900000 -0.699999
v 1.409130 3.500000 -0.699999
v 1.409130 3.500000 -1.574999
v 1.409130 4.900001 -1.574999
v -0.146426 9.660000 -0.874998
v 1.409128 2.800000 0.700000
v -0.457538 1.400000 0.388889
v 0.164684 9.800000 -0.077776
v 0.475795 9.800000 -0.077776
v 0.164684 4.900000 -0.077777
v 0.164684 4.900000 0.077779
v 0.786907 9.597777 -0.077775
v 0.786907 9.597777 -0.699998
v 1.098018 9.131111 -0.077776
v -0.457538 6.300000 -0.699999
v -0.768649 6.300000 -0.699999
v -0.768649 6.300000 -0.874999
v -0.457538 6.300000 -0.874999
v 0.475795 7.700000 -0.077777
v 0.164684 8.400000 -0.077777
v 0.164685 2.800000 -0.700000
v 0.164685 2.800000 -0.875000
v 1.409129 4.900000 -0.077776
v 1.409129 4.900000 0.077779
v -0.457538 9.660000 -0.874998
v -0.146427 5.600000 0.388890
v 0.786907 6.300000 -0.699999
v 1.098018 6.300000 -0.699999
v 0.475795 6.300000 -0.077777
v 0.164685 3.500000 -0.699999
v -0.457538 3.500000 0.388890
v 0.164684 2.800000 0.388889
v 0.164684 3.500000 0.388890
v 1.409128 3.500000 0.388890
v 1.409129 3.500000 0.077779
v 0.164684 3.500000 0.700001
v -0.457538 3.500000 0.700001
v -1.390871 3.500000 -0.699999
v 0.786907 2.800000 -0.700000
v -1.390871 6.300000 -0.077777
v -1.390872 6.300000 0.388890
v -1.390871 8.960000 -0.874999
v -0.768649 6.300000 -0.077777
v -0.768649 7.700000 -0.077777
v -0.768649 6.300000 0.388890
v -0.768649 7.700000 0.388890
v -0.768649 9.582223 -0.874998
v -1.079760 4.900000 0.388890
v -1.390872 4.900000 0.388890
v 0.164684 3.500000 0.077779
v 0.786907 2.800000 -0.875000
v -0.146427 4.900000 0.388890
v 1.409130 1.400000 -1.575000
v -1.390871 3.500000 -1.574999
v -1.390872 5.600000 0.388890
v -1.079760 5.600000 0.388890
v 1.098018 9.131111 -0.699998
v 1.098018 9.176953 -0.874999
v 1.098018 6.300000 -0.077776
v 1.409129 6.300000 -0.077776
v 0.786907 6.300000 -0.874999
v 1.098018 6.300000 -0.874999
v 1.409130 2.800000 -0.875000
v -1.390871 0.000000 -1.575000
v 0.164685 3.500000 -1.574999
v -1.390871 4.900001 -1.574999
v 1.098018 7.700000 -0.077776
v -0.457538 7.700000 0.388890
v -0.768649 4.900000 -0.699999
v -0.457538 4.900000 -0.699999
v -0.457538 4.900001 -1.574999
v -0.768649 4.900001 -1.574999
v 1.098018 7.280000 -0.210679
v 0.475795 7.280000 -0.210679
v 0.164684 8.400000 0.388890
v 0.786907 4.900000 -0.699999
v 0.786907 4.900001 -1.574999
v -0.457538 8.400000 0.388890
v -0.457538 7.700000 -0.077777
v -0.457538 8.400000 -0.077777
v -0.457538 9.660000 -0.077776
v -0.768649 9.582223 -0.077776
v 1.409130 8.820000 -0.699999
v 0.786907 9.621351 -0.874998
v -0.146427 9.660000 -0.077776
v 1.409129 8.820000 -0.077776
v -1.390871 8.960000 -0.077777
v -0.146426 9.660000 -0.544442
v -0.146427 9.660000 -0.388887
v -0.457538 9.660000 -0.544442
v -0.457538 9.660000 -0.388887
v -0.146427 10.360000 -0.388887
v -0.457538 10.360000 -0.388887
v -0.457538 5.600000 0.672035
v -0.146427 5.600000 0.563890
v -1.079760 5.600000 0.563890
v -0.768649 5.600000 0.672035
v -0.457538 4.900000 0.672035
v -0.146427 4.900000 0.563890
v -1.079760 4.900000 0.563890
v -0.768649 4.900000 0.672035
v 1.098018 6.720000 -0.210679
v 0.475795 6.720000 -0.210679
v -0.146426 10.360000 -0.544442
v -0.457538 10.360000 -0.544442
vt 0.789749 0.417452
vt 0.789749 0.531703
vt 0.718108 0.531703
vt 0.775421 0.417452
vt 0.934623 0.757065
vt 0.960096 0.757065
vt 0.960096 0.870493
vt 0.934623 0.870493
vt 0.086073 0.054439
vt 0.086073 0.285481
vt 0.071745 0.285481
vt 0.071745 0.050698
vt 0.769053 0.162959
vt 0.819997 0.162959
vt 0.819997 0.208659
vt 0.769053 0.208659
vt 0.819972 0.843533
vt 0.845444 0.843528
vt 0.845450 0.868901
vt 0.819977 0.868906
vt 0.169272 0.926558
vt 0.169272 0.977306
vt 0.143799 0.977305
vt 0.143799 0.926558
vt 0.086073 0.079829
vt 0.137018 0.079829
vt 0.137018 0.285481
vt 0.137018 0.399732
vt 0.149754 0.399732
vt 0.149754 0.513984
vt 0.175227 0.513984
vt 0.175227 0.571109
vt 0.200699 0.571109
vt 0.200699 0.799612
vt 0.014432 0.799612
vt 0.014432 0.685361
vt 0.071745 0.571109
vt 0.086073 0.571109
vt 0.086073 0.513984
vt 0.014432 0.513984
vt 0.014432 0.399732
vt 0.086073 0.399732
vt 0.934623 0.870493
vt 0.960096 0.870494
vt 0.960096 0.971988
vt 0.934623 0.971987
vt 0.960096 0.585689
vt 0.960096 0.757065
vt 0.934623 0.757065
vt 0.934623 0.585689
vt 0.780171 0.843540
vt 0.807236 0.843535
vt 0.807241 0.868909
vt 0.780177 0.868914
vt 0.780174 0.894688
vt 0.845447 0.894675
vt 0.845452 0.920049
vt 0.794507 0.920058
vt 0.780179 0.920061
vt 0.827958 0.417452
vt 0.840694 0.417452
vt 0.840694 0.518947
vt 0.827958 0.518946
vt 0.845470 0.944844
vt 0.794525 0.944854
vt 0.565273 0.127859
vt 0.616218 0.127859
vt 0.616218 0.248135
vt 0.565273 0.248135
vt 0.086073 0.016356
vt 0.137018 0.016356
vt 0.137018 0.054439
vt 0.845470 0.953881
vt 0.845470 0.928492
vt 0.859798 0.928492
vt 0.859798 0.953881
vt 0.870942 0.928492
vt 0.845470 0.903286
vt 0.845470 0.585688
vt 0.896415 0.585688
vt 0.896415 0.699116
vt 0.870942 0.699116
vt 0.315325 0.517138
vt 0.329653 0.517138
vt 0.386966 0.631389
vt 0.386966 0.745640
vt 0.200699 0.745640
vt 0.200699 0.631389
vt 0.226171 0.631389
vt 0.226171 0.345761
vt 0.226171 0.288635
vt 0.226171 0.231509
vt 0.264380 0.231509
vt 0.264380 0.014432
vt 0.329653 0.014432
vt 0.329653 0.231509
vt 0.386966 0.345761
vt 0.386966 0.460012
vt 0.315325 0.460012
vt 0.985568 0.585689
vt 0.985568 0.687183
vt 0.960096 0.687183
vt 0.960096 0.585688
vt 0.827957 0.417452
vt 0.827957 0.531703
vt 0.789749 0.531703
vt 0.789749 0.417452
vt 0.200699 0.745640
vt 0.386966 0.745640
vt 0.386966 0.974143
vt 0.200699 0.974143
vt 0.616218 0.892352
vt 0.616218 0.765406
vt 0.687859 0.765406
vt 0.687859 0.892352
vt 0.769053 0.242935
vt 0.819997 0.242935
vt 0.143386 0.799612
vt 0.143386 0.901169
vt 0.086073 0.901169
vt 0.086073 0.799612
vt 0.463383 0.817332
vt 0.463383 0.645955
vt 0.386966 0.645955
vt 0.386966 0.531703
vt 0.616218 0.531703
vt 0.616218 0.760206
vt 0.514328 0.760206
vt 0.514328 0.817332
vt 0.616218 0.892352
vt 0.641690 0.892353
vt 0.641690 0.968473
vt 0.616218 0.968473
vt 0.406071 0.888739
vt 0.444279 0.888739
vt 0.444279 0.945864
vt 0.406071 0.945864
vt 0.086073 0.799612
vt 0.086073 0.913863
vt 0.071745 0.913863
vt 0.014432 0.799612
vt 0.444279 0.888739
vt 0.386966 0.888739
vt 0.386966 0.874457
vt 0.444279 0.817332
vt 0.718108 0.531703
vt 0.616218 0.531703
vt 0.616218 0.417452
vt 0.718108 0.417452
vt 0.649650 0.943099
vt 0.649650 0.892352
vt 0.687859 0.892353
vt 0.687859 0.943100
vt 0.780170 0.817944
vt 0.780197 0.765418
vt 0.845470 0.765406
vt 0.845443 0.817932
vt 0.769053 0.128683
vt 0.819997 0.128683
vt 0.882086 0.953881
vt 0.882086 0.928492
vt 0.896415 0.928492
vt 0.896415 0.953881
vt 0.558905 0.888739
vt 0.501592 0.888739
vt 0.501592 0.817332
vt 0.558905 0.874457
vt 0.921887 0.699940
vt 0.934623 0.699940
vt 0.934623 0.985568
vt 0.896415 0.985568
vt 0.896415 0.585688
vt 0.921887 0.585689
vt 0.450647 0.888739
vt 0.501592 0.888739
vt 0.501592 0.945452
vt 0.450647 0.945452
vt 0.578009 0.964906
vt 0.552552 0.964907
vt 0.552552 0.893500
vt 0.578009 0.893499
vt 0.708587 0.879659
vt 0.759500 0.879657
vt 0.759500 0.951064
vt 0.708587 0.951066
vt 0.845470 0.334336
vt 0.819997 0.359725
vt 0.794525 0.397809
vt 0.769053 0.414311
vt 0.845470 0.128683
vt 0.444279 0.817332
vt 0.495224 0.817332
vt 0.495224 0.888739
vt 0.444279 0.888739
vt 0.780170 0.765406
vt 0.780170 0.892274
vt 0.765842 0.892274
vt 0.765842 0.765406
vt 0.175242 0.926558
vt 0.200699 0.926558
vt 0.200699 0.964642
vt 0.175242 0.964642
vt 0.071745 0.014432
vt 0.616218 0.944247
vt 0.578009 0.944246
vt 0.578009 0.893499
vt 0.616218 0.893500
vt 0.780195 0.944924
vt 0.759500 0.765406
vt 0.759500 0.879657
vt 0.687859 0.879657
vt 0.745172 0.765406
vt 0.616218 0.345761
vt 0.616218 0.128683
vt 0.667163 0.128683
vt 0.667163 0.242935
vt 0.692635 0.242935
vt 0.692635 0.300060
vt 0.743580 0.300060
vt 0.743580 0.014432
vt 0.845470 0.014432
vt 0.743580 0.414311
vt 0.718108 0.402886
vt 0.692635 0.402886
vt 0.667163 0.396539
vt 0.039904 0.970989
vt 0.014432 0.970989
vt 0.014432 0.913863
vt 0.039904 0.913863
vt 0.039904 0.913863
vt 0.054233 0.913864
vt 0.054233 0.964611
vt 0.039904 0.964610
vt 0.845470 0.531703
vt 0.845470 0.645131
vt 0.616218 0.645131
vt 0.616218 0.531703
vt 0.845470 0.765406
vt 0.718108 0.765406
vt 0.667163 0.765406
vt 0.616218 0.765406
vt 0.200699 0.926558
vt 0.143799 0.926558
vt 0.143799 0.799612
vt 0.200699 0.799612
vt 0.437911 0.127859
vt 0.539801 0.127859
vt 0.539801 0.248135
vt 0.437911 0.248135
vt 0.501592 0.888739
vt 0.552537 0.888739
vt 0.552537 0.945864
vt 0.501592 0.945864
vt 0.972832 0.185809
vt 0.972832 0.585688
vt 0.921887 0.585688
vt 0.921887 0.528563
vt 0.896415 0.528563
vt 0.896415 0.414311
vt 0.845470 0.414311
vt 0.845470 0.357186
vt 0.870942 0.357186
vt 0.947359 0.357186
vt 0.947359 0.300060
vt 0.870942 0.300060
vt 0.845470 0.300060
vt 0.845470 0.014432
vt 0.921887 0.014432
vt 0.921887 0.185809
vt 0.616218 0.463647
vt 0.565273 0.514059
vt 0.539801 0.520361
vt 0.514328 0.520361
vt 0.488856 0.531703
vt 0.463383 0.531703
vt 0.437911 0.517229
vt 0.412439 0.481224
vt 0.412439 0.248135
vt 0.086073 0.901169
vt 0.100401 0.901169
vt 0.109256 0.926543
vt 0.109256 0.951916
vt 0.100401 0.977290
vt 0.086073 0.977289
vt 0.488856 0.014432
vt 0.616218 0.014432
vt 0.386966 0.127859
vt 0.386966 0.014432
vt 0.437911 0.014432
vt 0.616218 0.868110
vt 0.616218 0.893499
vt 0.558905 0.893499
vt 0.558905 0.868110
vt 0.616218 0.817332
vt 0.616218 0.842721
vt 0.558905 0.842721
vt 0.558905 0.817332
vt 0.060601 0.913863
vt 0.086073 0.913863
vt 0.086073 0.970989
vt 0.060601 0.970989
vt 0.120203 0.977336
vt 0.120203 0.901169
vt 0.134532 0.901169
vt 0.143386 0.926558
vt 0.143386 0.951947
vt 0.134532 0.977336
vt 0.708587 0.879657
vt 0.708587 0.936783
vt 0.694258 0.936783
vt 0.694258 0.879657
vt 0.406071 0.888739
vt 0.406071 0.945864
vt 0.391742 0.945864
vt 0.391742 0.888739
vt 0.970977 0.928031
vt 0.970977 0.813779
vt 0.981859 0.848055
vt 0.981859 0.893755
vt 0.970977 0.813779
vt 0.970977 0.928031
vt 0.960096 0.893755
vt 0.960096 0.848055
vt 0.869350 0.953865
vt 0.869350 0.928492
vt 0.882086 0.928492
vt 0.882086 0.953866
vt 0.960096 0.757065
vt 0.985568 0.757065
vt 0.985568 0.813779
vt 0.960096 0.813779
vt 0.960096 0.687183
vt 0.972832 0.687183
vt 0.972832 0.744309
vt 0.960096 0.744309
vt 0.767434 0.892274
vt 0.780170 0.892274
vt 0.780170 0.949400
vt 0.767434 0.949400
vn 1.0000 0.0000 0.0000
vn 0.0000 0.0000 -1.0000
vn 0.0000 -0.0000 1.0000
vn 0.0000 1.0000 0.0000
vn -1.0000 -0.0000 0.0000
vn 0.5450 0.8384 0.0000
vn 0.0000 0.4472 -0.8944
vn 0.8321 0.5547 0.0000
vn 0.0000 -1.0000 0.0000
vn -0.0000 -0.3017 0.9534
vn -0.7071 0.7071 0.0000
vn -0.0000 0.3017 0.9534
vn 0.7071 0.7071 0.0000
vn 0.8207 0.5605 0.1112
vn 0.5212 0.8515 0.0574
vn -0.2425 0.9701 0.0000
vn 0.0000 -0.7071 -0.7071
vn 0.3283 -0.0000 0.9446
vn -0.3283 -0.0000 0.9446
vn -0.4104 0.9119 -0.0000
usemtl sci-building1
s off
f 34/1/1 87/2/1 90/3/1 35/4/1
f 88/5/2 87/6/2 34/7/2 33/8/2
f 75/9/1 46/10/1 80/11/1 76/12/1
f 121/13/3 120/14/3 91/15/3 92/16/3
f 109/17/4 99/18/4 103/19/4 107/20/4
f 51/21/4 49/22/4 55/23/4 54/24/4
f 101/25/1 104/26/1 78/27/1 41/28/1 42/29/1 53/30/1 52/31/1 15/32/1 24/33/1 3/34/1 14/35/1 71/36/1 81/37/1 16/38/1 20/39/1 21/40/1 22/41/1 19/42/1
f 52/43/4 53/44/4 68/45/4 51/46/4
f 49/47/5 25/48/5 4/49/5 55/50/5
f 43/51/4 108/52/4 106/53/4 23/54/4
f 8/55/4 26/56/4 27/57/4 6/58/4 7/59/4
f 28/60/4 29/61/4 42/62/4 41/63/4
f 6/58/6 27/57/6 30/64/6 31/65/6
f 90/66/7 84/67/7 5/68/7 35/69/7
f 75/9/8 31/70/8 30/71/8 32/72/8
f 33/73/9 34/74/9 35/75/9 36/76/9
f 75/77/2 101/78/2 19/79/2 94/80/2 45/81/2 46/82/2
f 10/83/5 11/84/5 17/85/5 82/86/5 1/87/5 2/88/5 9/89/5 67/90/5 73/91/5 59/92/5 58/93/5 105/94/5 60/95/5 5/96/5 84/97/5 72/98/5 56/99/5
f 15/100/4 50/101/4 18/102/4 24/103/4
f 63/104/5 64/105/5 62/106/5 61/107/5
f 14/108/9 3/109/9 1/110/9 82/111/9
f 48/112/9 56/113/9 72/114/9 83/115/9
f 37/116/10 92/16/10 91/15/10 85/117/10
f 50/118/3 15/119/3 52/120/3 51/121/3
f 55/122/3 4/123/3 2/124/3 1/125/3 3/126/3 24/127/3 18/128/3 54/129/3
f 9/130/4 2/131/4 4/132/4 25/133/4
f 97/134/5 86/135/5 96/136/5 98/137/5
f 88/138/5 33/139/5 36/140/5 89/141/5
f 12/142/1 57/143/1 69/144/1 13/145/1
f 68/146/3 53/147/3 42/148/3 29/149/3
f 59/150/4 63/151/4 61/152/4 58/153/4
f 65/154/11 60/155/11 105/156/11 100/157/11
f 47/158/12 77/159/12 120/14/12 121/13/12
f 46/160/9 45/161/9 79/162/9 80/163/9
f 39/164/5 48/165/5 83/166/5 40/167/5
f 29/168/1 28/169/1 38/170/1 93/171/1 51/172/1 68/173/1
f 16/174/2 57/175/2 12/176/2 20/177/2
f 87/178/4 88/179/4 89/180/4 90/181/4
f 94/182/4 19/183/4 22/184/4 95/185/4
f 104/186/3 32/187/3 30/188/3 27/189/3 37/116/3 85/117/3 77/159/3 78/190/3
f 75/9/13 32/72/13 104/26/13 101/25/13
f 20/191/9 12/192/9 13/193/9 21/194/9
f 10/195/4 39/196/4 40/197/4 11/198/4
f 64/199/4 86/200/4 97/201/4 62/202/4
f 31/70/14 75/9/14 76/12/14 102/203/14
f 93/204/4 38/205/4 98/206/4 96/207/4
f 6/58/15 31/65/15 102/208/15 7/59/15
f 45/209/1 94/210/1 95/211/1 79/212/1
f 105/213/3 58/214/3 61/215/3 62/216/3 97/217/3 98/218/3 38/219/3 28/220/3 41/221/3 78/190/3 77/159/3 47/158/3 37/116/3 27/189/3 26/222/3 103/223/3 99/224/3 100/225/3
f 109/226/3 107/227/3 110/228/3 111/229/3
f 65/154/16 100/157/16 99/18/16 109/17/16 108/52/16 43/51/16
f 16/230/4 81/231/4 69/232/4 57/233/4
f 82/234/2 17/235/2 71/236/2 14/237/2
f 17/235/7 11/238/7 40/239/7 69/240/7 81/241/7 71/236/7
f 10/242/2 56/243/2 48/244/2 39/245/2
f 95/246/7 89/247/7 36/248/7 79/249/7
f 69/250/17 40/251/17 83/252/17 13/253/17
f 51/254/3 93/255/3 96/256/3 86/257/3 64/258/3 63/259/3 59/260/3 73/261/3 74/262/3 44/263/3 70/264/3 66/265/3 67/266/3 9/267/3 25/268/3 49/269/3
f 36/248/2 35/69/2 5/68/2 60/270/2 65/271/2 43/272/2 23/273/2 8/274/2 7/275/2 102/276/2 76/277/2 80/278/2 79/249/2
f 74/279/4 114/280/4 115/281/4 112/282/4 113/283/4 44/284/4
f 67/266/3 66/265/3 74/262/3 73/261/3
f 83/285/2 72/286/2 84/67/2 90/66/2 89/247/2 95/246/2 22/287/2 21/288/2 13/289/2
f 116/290/18 117/291/18 113/292/18 112/293/18
f 118/294/19 119/295/19 115/296/19 114/297/19
f 119/295/3 116/290/3 112/293/3 115/296/3
f 18/298/1 50/299/1 51/300/1 54/301/1
f 66/302/9 70/303/9 117/304/9 116/305/9 119/306/9 118/307/9
f 74/308/5 66/309/5 118/310/5 114/311/5
f 70/312/1 44/313/1 113/314/1 117/315/1
f 37/316/1 47/317/1 121/318/1 92/319/1
f 77/320/5 85/321/5 91/322/5 120/323/5
f 122/324/4 123/325/4 111/326/4 110/327/4
f 106/328/2 108/329/2 123/330/2 122/331/2
f 107/332/1 106/333/1 122/334/1 110/335/1
f 108/336/5 109/337/5 111/338/5 123/339/5
f 107/20/20 103/19/20 26/56/20 8/55/20 23/54/20 106/53/20
