# Blender v2.79 (sub 0) OBJ File: ''
# www.blender.org
mtllib lazerwall2.mtl
o lazerwall2
v 2.000000 -2.000000 -0.200000
v 2.000000 -2.000000 0.200000
v -2.000000 -2.000000 0.200000
v -1.999999 -2.000000 -0.200000
v 2.000001 2.000000 -0.200000
v 1.999999 2.000000 0.200000
v -2.000001 2.000000 0.200000
v -2.000000 2.000000 -0.200000
vt 1.000000 0.250000
vt 1.000000 0.750000
vt 0.000000 0.750000
vt -0.000000 0.250000
vt 0.700000 -0.000000
vt 0.700000 1.000000
vt 0.300000 1.000000
vt 0.300000 0.000000
vt 0.600000 -0.000000
vt 0.600000 1.000000
vt 0.400000 1.000000
vt 0.400000 0.000000
vt 1.500000 -0.000000
vt 1.500000 1.000000
vt -0.500000 1.000000
vt -0.500000 0.000000
vt 0.600000 -0.000000
vt 0.600000 1.000000
vt 0.400000 1.000000
vt 0.400000 0.000000
vt -0.500000 1.000000
vt -0.500000 0.000000
vt 1.500000 -0.000000
vt 1.500000 1.000000
vn 0.0000 -1.0000 0.0000
vn 0.0000 1.0000 0.0000
vn 1.0000 0.0000 0.0000
vn -0.0000 -0.0000 1.0000
vn -1.0000 -0.0000 -0.0000
vn 0.0000 0.0000 -1.0000
usemtl Material
s off
f 1/1/1 2/2/1 3/3/1 4/4/1
f 5/5/2 8/6/2 7/7/2 6/8/2
f 1/9/3 5/10/3 6/11/3 2/12/3
f 2/13/4 6/14/4 7/15/4 3/16/4
f 3/17/5 7/18/5 8/19/5 4/20/5
f 5/21/6 1/22/6 4/23/6 8/24/6
