# Blender v2.79 (sub 0) OBJ File: ''
# www.blender.org
mtllib institutescroll.mtl
g cloud
v -3.000000 0.020000 1.000000
v 3.000000 0.020000 1.000000
v -3.000000 0.020000 -1.000000
v 3.000000 0.020000 -1.000000
vt -0.499800 0.000100
vt 1.499800 0.000100
vt 1.499800 0.999900
vt -0.499800 0.999900
vn 0.0000 1.0000 0.0000
usemtl None
s off
f 1/1/1 2/2/1 4/3/1 3/4/1
g street
v -3.000000 0.040000 1.000000
v 3.000000 0.040000 1.000000
v -3.000000 0.040000 -1.000000
v 3.000000 0.040000 -1.000000
vt -0.999700 0.000100
vt 1.999700 0.000100
vt 1.999700 0.999900
vt -0.999700 0.999900
vn 0.0000 1.0000 0.0000
usemtl None_scrollstreet.png
s off
f 5/5/2 6/6/2 8/7/2 7/8/2
g Plane.002_building
v -3.000000 0.030000 1.000000
v 3.000000 0.030000 1.000000
v -3.000000 0.030000 -1.000000
v 3.000000 0.030000 -1.000000
vt -0.499800 0.000100
vt 1.499800 0.000100
vt 1.499800 0.999900
vt -0.499800 0.999900
vn 0.0000 1.0000 0.0000
usemtl None_scrollbuilding.png
s off
f 9/9/3 10/10/3 12/11/3 11/12/3
g sun
v -1.000000 0.010000 1.000000
v 1.000000 0.010000 1.000000
v -1.000000 0.010000 -1.000000
v 1.000000 0.010000 -1.000000
vt 0.000100 0.000100
vt 0.999900 0.000100
vt 0.999900 0.999900
vt 0.000100 0.999900
vn 0.0000 1.0000 0.0000
usemtl None_scrollsun.png
s off
f 13/13/4 14/14/4 16/15/4 15/16/4
g background
v -3.000000 0.000000 1.000000
v 3.000000 0.000000 1.000000
v -3.000000 0.000000 -1.000000
v 3.000000 0.000000 -1.000000
vt 0.000100 0.000100
vt 0.999900 0.000100
vt 0.999900 0.999900
vt 0.000100 0.999900
vn 0.0000 1.0000 0.0000
usemtl None_scrollbk.png
s off
f 17/17/5 18/18/5 20/19/5 19/20/5
