# Blender v2.82 (sub 6) OBJ File: 'disco_ball.blend'
# www.blender.org
g lod_mesh.003
v 0.653281 0.707481 -0.270598
v 0.366814 0.921474 -0.151939
v 0.151939 0.921474 -0.366814
v 0.270598 0.707481 -0.653281
v 0.280747 0.921474 -0.280747
v 0.500000 0.707481 -0.500000
v 0.653281 0.382886 -0.653281
v 0.353553 0.382886 -0.853553
v 0.382683 0.000000 -0.923880
v 0.853553 0.382886 -0.353553
v 0.923880 0.000000 -0.382683
v 0.707107 0.000000 -0.707107
v 0.853553 -0.382886 -0.353553
v 0.653281 -0.382886 -0.653282
v 0.353553 -0.382886 -0.853553
v 0.270598 -0.707481 -0.653282
v 0.653281 -0.707481 -0.270598
v 0.500000 -0.707481 -0.500000
v 0.366814 -0.921474 -0.151939
v 0.280747 -0.921474 -0.280747
v 0.151939 -0.921474 -0.366814
v -0.653281 0.707481 -0.270598
v -0.366814 0.921474 -0.151939
v 0.000000 0.921474 -0.397036
v -0.151939 0.921474 -0.366814
v -0.270598 0.707481 -0.653281
v 0.000000 0.707481 -0.707107
v -0.280747 0.921474 -0.280747
v 0.000000 0.382886 -0.923879
v -0.500000 0.707481 -0.500000
v -0.653281 0.382886 -0.653281
v -0.353553 0.382886 -0.853553
v -0.382683 0.000000 -0.923880
v 0.000000 0.000000 -1.000000
v -0.853553 0.382886 -0.353553
v -0.923880 0.000000 -0.382683
v -0.707107 0.000000 -0.707107
v -0.853553 -0.382886 -0.353553
v 0.000000 -0.382886 -0.923880
v -0.653281 -0.382886 -0.653282
v -0.353553 -0.382886 -0.853553
v -0.270598 -0.707481 -0.653282
v 0.000000 -0.707481 -0.707107
v -0.653281 -0.707481 -0.270598
v -0.500000 -0.707481 -0.500000
v -0.366814 -0.921474 -0.151939
v 0.000000 -0.921474 -0.397037
v -0.280747 -0.921474 -0.280747
v -0.151939 -0.921474 -0.366814
v 0.397037 0.921474 0.000000
v 0.707107 0.707481 0.000000
v 0.653281 0.707481 0.270598
v 0.366814 0.921474 0.151939
v 0.151939 0.921474 0.366814
v 0.270598 0.707481 0.653281
v 0.280747 0.921474 0.280747
v 0.500000 0.707481 0.500000
v 0.653281 0.382886 0.653281
v 0.353553 0.382886 0.853553
v 1.000000 0.000000 0.000000
v 0.923880 0.382886 0.000000
v 0.382683 0.000000 0.923880
v 0.853553 0.382886 0.353553
v 0.923880 0.000000 0.382683
v 0.707107 0.000000 0.707107
v 0.923880 -0.382886 0.000000
v 0.853553 -0.382886 0.353553
v 0.653281 -0.382886 0.653282
v 0.353553 -0.382886 0.853553
v 0.270598 -0.707481 0.653282
v 0.653281 -0.707481 0.270598
v 0.500000 -0.707481 0.500000
v 0.397037 -0.921474 0.000000
v 0.707107 -0.707481 0.000000
v 0.366814 -0.921474 0.151939
v 0.280747 -0.921474 0.280747
v 0.151939 -0.921474 0.366814
v -0.397037 0.921474 0.000000
v -0.707107 0.707481 0.000000
v -0.653281 0.707481 0.270598
v -0.366814 0.921474 0.151939
v 0.000000 0.921474 0.397036
v -0.151939 0.921474 0.366814
v -0.270598 0.707481 0.653281
v 0.000000 0.707481 0.707107
v -0.280747 0.921474 0.280747
v 0.000000 0.382886 0.923879
v -0.500000 0.707481 0.500000
v -0.653281 0.382886 0.653281
v -0.353553 0.382886 0.853553
v -1.000000 0.000000 0.000000
v -0.923880 0.382886 0.000000
v -0.382683 0.000000 0.923880
v 0.000000 0.000000 1.000000
v -0.853553 0.382886 0.353553
v -0.923880 0.000000 0.382683
v -0.707107 0.000000 0.707107
v -0.923880 -0.382886 0.000000
v -0.853553 -0.382886 0.353553
v 0.000000 -0.382886 0.923880
v -0.653281 -0.382886 0.653282
v -0.353553 -0.382886 0.853553
v -0.270598 -0.707481 0.653282
v 0.000000 -0.707481 0.707107
v -0.653281 -0.707481 0.270598
v -0.500000 -0.707481 0.500000
v -0.397037 -0.921474 0.000000
v -0.707107 -0.707481 0.000000
v -0.366814 -0.921474 0.151939
v 0.000000 -0.921474 0.397037
v -0.280747 -0.921474 0.280747
v -0.151939 -0.921474 0.366814
v 0.000000 1.000000 0.000000
v 0.000000 -1.000000 0.000000
vt 0.156738 0.799316
vt 0.123535 0.691895
vt 0.276855 0.672363
vt 0.292480 0.732910
vt 0.642090 0.334473
vt 0.652832 0.193848
vt 0.808105 0.219238
vt 0.798340 0.334473
vt 0.758301 0.985840
vt 0.640137 0.980957
vt 0.656738 0.920410
vt 0.497559 0.173340
vt 0.525879 0.013184
vt 0.684082 0.052246
vt 0.497559 0.495605
vt 0.486816 0.334473
vt 0.652832 0.474121
vt 0.320801 0.052246
vt 0.289551 0.193848
vt 0.134277 0.173340
vt 0.163574 0.013184
vt 0.278809 0.334473
vt 0.289551 0.475098
vt 0.134277 0.495605
vt 0.123535 0.334473
vt 0.444824 0.449707
vt 0.474121 0.561035
vt 0.320801 0.616699
vt 0.444824 0.219238
vt 0.435059 0.334473
vt 0.327637 0.783691
vt 0.222168 0.890137
vt 0.837402 0.106934
vt 0.691895 0.870605
vt 0.807129 0.937988
vt 0.741699 0.835449
vt 0.802246 0.819824
vt 0.443848 0.716309
vt 0.395020 0.667480
vt 0.808105 0.449707
vt 0.526855 0.653809
vt 0.684082 0.615723
vt 0.163574 0.654785
vt 0.474121 0.107910
vt 0.520020 0.854004
vt 0.585449 0.763184
vt 0.312988 0.954590
vt 0.378418 0.817871
vt 0.837402 0.562012
vt 0.677246 0.698730
vt 0.784668 0.666504
vt 0.486816 0.961426
vt 0.438965 0.833496
vt 0.420410 0.986816
vt 0.156738 0.799316
vt 0.292480 0.732910
vt 0.642090 0.334473
vt 0.798340 0.334473
vt 0.808105 0.219238
vt 0.652832 0.193848
vt 0.656738 0.920410
vt 0.497559 0.173340
vt 0.497559 0.495605
vt 0.652832 0.474121
vt 0.486816 0.334473
vt 0.320801 0.052246
vt 0.163574 0.013184
vt 0.134277 0.173340
vt 0.289551 0.193848
vt 0.278809 0.334473
vt 0.123535 0.334473
vt 0.134277 0.495605
vt 0.289551 0.475098
vt 0.444824 0.449707
vt 0.444824 0.219238
vt 0.435059 0.334473
vt 0.222168 0.890137
vt 0.327637 0.783691
vt 0.691895 0.870605
vt 0.802246 0.819824
vt 0.741699 0.835449
vt 0.808105 0.449707
vt 0.526855 0.653809
vt 0.684082 0.615723
vt 0.474121 0.107910
vt 0.585449 0.763184
vt 0.520020 0.854004
vt 0.312988 0.954590
vt 0.378418 0.817871
vt 0.837402 0.562012
vt 0.784668 0.666504
vt 0.677246 0.698730
vt 0.438965 0.833496
vt 0.420410 0.986816
vt 0.156738 0.799316
vt 0.292480 0.732910
vt 0.276855 0.672363
vt 0.123535 0.691895
vt 0.642090 0.334473
vt 0.798340 0.334473
vt 0.808105 0.219238
vt 0.652832 0.193848
vt 0.656738 0.920410
vt 0.640137 0.980957
vt 0.497559 0.173340
vt 0.684082 0.052246
vt 0.525879 0.013184
vt 0.497559 0.495605
vt 0.652832 0.474121
vt 0.486816 0.334473
vt 0.134277 0.173340
vt 0.289551 0.193848
vt 0.278809 0.334473
vt 0.123535 0.334473
vt 0.134277 0.495605
vt 0.289551 0.475098
vt 0.444824 0.449707
vt 0.320801 0.616699
vt 0.474121 0.561035
vt 0.444824 0.219238
vt 0.435059 0.334473
vt 0.222168 0.890137
vt 0.327637 0.783691
vt 0.837402 0.106934
vt 0.691895 0.870605
vt 0.741699 0.835449
vt 0.808105 0.449707
vt 0.163574 0.654785
vt 0.585449 0.763184
vt 0.520020 0.854004
vt 0.312988 0.954590
vt 0.378418 0.817871
vt 0.677246 0.698730
vt 0.486816 0.961426
vt 0.156738 0.799316
vt 0.292480 0.732910
vt 0.642090 0.334473
vt 0.652832 0.193848
vt 0.808105 0.219238
vt 0.798340 0.334473
vt 0.656738 0.920410
vt 0.497559 0.173340
vt 0.497559 0.495605
vt 0.486816 0.334473
vt 0.652832 0.474121
vt 0.289551 0.193848
vt 0.134277 0.173340
vt 0.278809 0.334473
vt 0.289551 0.475098
vt 0.134277 0.495605
vt 0.123535 0.334473
vt 0.444824 0.449707
vt 0.444824 0.219238
vt 0.435059 0.334473
vt 0.327637 0.783691
vt 0.222168 0.890137
vt 0.691895 0.870605
vt 0.741699 0.835449
vt 0.808105 0.449707
vt 0.520020 0.854004
vt 0.585449 0.763184
vt 0.312988 0.954590
vt 0.378418 0.817871
vt 0.677246 0.698730
vn 0.2769 0.6902 -0.6686
vn 0.0000 0.6902 -0.7236
vn 0.0000 0.9120 -0.4102
vn 0.1570 0.9120 -0.3790
vn 0.6557 0.3742 -0.6557
vn 0.3549 0.3742 -0.8568
vn 0.5117 0.6902 -0.5117
vn -0.0000 -1.0000 0.0000
vn 0.0000 -0.9120 -0.4102
vn 0.1570 -0.9120 -0.3790
vn 0.3827 0.0000 -0.9239
vn 0.0000 0.0000 -1.0000
vn 0.0000 0.3742 -0.9273
vn 0.9239 0.0000 -0.3827
vn 0.7071 0.0000 -0.7071
vn 0.8568 0.3742 -0.3549
vn 0.9273 -0.3742 0.0000
vn 0.8568 -0.3742 -0.3549
vn 1.0000 0.0000 0.0000
vn 0.6557 -0.3742 -0.6557
vn 0.3549 -0.3742 -0.8568
vn 0.2769 -0.6902 -0.6686
vn 0.0000 -0.6902 -0.7236
vn 0.0000 -0.3742 -0.9273
vn 0.6686 -0.6902 -0.2769
vn 0.5117 -0.6902 -0.5117
vn 0.2901 0.9120 -0.2901
vn 0.2901 -0.9120 -0.2901
vn 0.3790 -0.9120 -0.1570
vn 0.4102 -0.9120 0.0000
vn 0.0000 1.0000 0.0000
vn 0.6686 0.6902 -0.2769
vn 0.9273 0.3742 -0.0000
vn 0.7236 -0.6902 0.0000
vn 0.3790 0.9120 -0.1570
vn 0.7236 0.6902 -0.0000
vn 0.4102 0.9120 -0.0000
vn -0.2769 0.6902 -0.6686
vn -0.1570 0.9120 -0.3790
vn -0.6557 0.3742 -0.6557
vn -0.5117 0.6902 -0.5117
vn -0.3549 0.3742 -0.8568
vn -0.1570 -0.9120 -0.3790
vn -0.3827 0.0000 -0.9239
vn -0.9239 0.0000 -0.3827
vn -0.8568 0.3742 -0.3549
vn -0.7071 0.0000 -0.7071
vn -0.9273 -0.3742 0.0000
vn -1.0000 0.0000 -0.0000
vn -0.8568 -0.3742 -0.3549
vn -0.6557 -0.3742 -0.6557
vn -0.3549 -0.3742 -0.8568
vn -0.2769 -0.6902 -0.6686
vn -0.6686 -0.6902 -0.2769
vn -0.5117 -0.6902 -0.5117
vn -0.2901 0.9120 -0.2901
vn -0.2901 -0.9120 -0.2901
vn -0.4102 -0.9120 -0.0000
vn -0.3790 -0.9120 -0.1570
vn -0.6686 0.6902 -0.2769
vn -0.9273 0.3742 0.0000
vn -0.7236 -0.6902 0.0000
vn -0.3790 0.9120 -0.1570
vn -0.7236 0.6902 0.0000
vn -0.4102 0.9120 0.0000
vn 0.2769 0.6902 0.6686
vn 0.1570 0.9120 0.3790
vn 0.0000 0.9120 0.4102
vn -0.0000 0.6902 0.7236
vn 0.6557 0.3742 0.6557
vn 0.5117 0.6902 0.5117
vn 0.3549 0.3742 0.8568
vn 0.1570 -0.9120 0.3790
vn 0.0000 -0.9120 0.4102
vn 0.3827 0.0000 0.9239
vn -0.0000 0.3742 0.9273
vn -0.0000 0.0000 1.0000
vn 0.9239 0.0000 0.3827
vn 0.8568 0.3742 0.3549
vn 0.7071 0.0000 0.7071
vn 0.8568 -0.3742 0.3549
vn 0.6557 -0.3742 0.6557
vn 0.3549 -0.3742 0.8568
vn 0.2769 -0.6902 0.6686
vn -0.0000 -0.3742 0.9273
vn -0.0000 -0.6902 0.7236
vn 0.6686 -0.6902 0.2769
vn 0.5117 -0.6902 0.5117
vn 0.2901 0.9120 0.2901
vn 0.2901 -0.9120 0.2901
vn 0.3790 -0.9120 0.1570
vn 0.6686 0.6902 0.2769
vn 0.3790 0.9120 0.1570
vn -0.2769 0.6902 0.6686
vn -0.1570 0.9120 0.3790
vn -0.6557 0.3742 0.6557
vn -0.3549 0.3742 0.8568
vn -0.5117 0.6902 0.5117
vn -0.1570 -0.9120 0.3790
vn -0.3827 0.0000 0.9239
vn -0.9239 0.0000 0.3827
vn -0.7071 0.0000 0.7071
vn -0.8568 0.3742 0.3549
vn -0.8568 -0.3742 0.3549
vn -0.6557 -0.3742 0.6557
vn -0.3549 -0.3742 0.8568
vn -0.2769 -0.6902 0.6686
vn -0.6686 -0.6902 0.2769
vn -0.5117 -0.6902 0.5117
vn -0.2901 0.9120 0.2901
vn -0.2901 -0.9120 0.2901
vn -0.3790 -0.9120 0.1570
vn -0.6686 0.6902 0.2769
vn -0.3790 0.9120 0.1570
s 1
f 4/1/1 27/2/2 24/3/3 3/4/4
f 7/5/5 8/6/6 4/7/1 6/8/7
f 114/9/8 47/10/9 21/11/10
f 9/12/11 34/13/12 29/14/13 8/6/6
f 11/15/14 12/16/15 7/5/5 10/17/16
f 66/18/17 13/19/18 11/20/14 60/21/19
f 14/22/20 15/23/21 9/24/11 12/25/15
f 16/26/22 43/27/23 39/28/24 15/23/21
f 17/29/25 18/30/26 14/22/20 13/19/18
f 4/1/1 3/4/4 5/31/27 6/32/7
f 29/14/13 27/33/2 4/7/1 8/6/6
f 114/9/8 21/11/10 20/34/28
f 114/35/8 19/36/29 73/37/30
f 113/38/31 5/31/27 3/4/4
f 113/39/31 3/4/4 24/3/3
f 7/5/5 6/8/7 1/40/32 10/17/16
f 60/41/19 11/15/14 10/17/16 61/42/33
f 9/12/11 8/6/6 7/5/5 12/16/15
f 39/28/24 34/43/12 9/24/11 15/23/21
f 13/19/18 14/22/20 12/25/15 11/20/14
f 17/29/25 13/19/18 66/18/17 74/44/34
f 20/34/28 21/11/10 16/45/22 18/46/26
f 1/47/32 6/32/7 5/31/27 2/48/35
f 61/42/33 10/17/16 1/40/32 51/49/36
f 114/9/8 20/34/28 19/36/29
f 16/26/22 15/23/21 14/22/20 18/30/26
f 73/37/30 19/36/29 17/50/25 74/51/34
f 47/10/9 43/52/23 16/45/22 21/11/10
f 19/36/29 20/34/28 18/46/26 17/50/25
f 113/38/31 50/53/37 2/48/35
f 113/38/31 2/48/35 5/31/27
f 50/53/37 51/54/36 1/47/32 2/48/35
f 26/55/38 25/56/39 24/3/3 27/2/2
f 31/57/40 30/58/41 26/59/38 32/60/42
f 114/9/8 49/61/43 47/10/9
f 33/62/44 32/60/42 29/14/13 34/13/12
f 36/63/45 35/64/46 31/57/40 37/65/47
f 98/66/48 91/67/49 36/68/45 38/69/50
f 40/70/51 37/71/47 33/72/44 41/73/52
f 42/74/53 41/73/52 39/28/24 43/27/23
f 44/75/54 38/69/50 40/70/51 45/76/55
f 26/55/38 30/77/41 28/78/56 25/56/39
f 29/14/13 32/60/42 26/59/38 27/33/2
f 114/9/8 48/79/57 49/61/43
f 114/35/8 107/80/58 46/81/59
f 113/38/31 25/56/39 28/78/56
f 113/39/31 24/3/3 25/56/39
f 31/57/40 35/64/46 22/82/60 30/58/41
f 91/83/49 92/84/61 35/64/46 36/63/45
f 33/62/44 37/65/47 31/57/40 32/60/42
f 39/28/24 41/73/52 33/72/44 34/43/12
f 38/69/50 36/68/45 37/71/47 40/70/51
f 44/75/54 108/85/62 98/66/48 38/69/50
f 48/79/57 45/86/55 42/87/53 49/61/43
f 22/88/60 23/89/63 28/78/56 30/77/41
f 92/84/61 79/90/64 22/82/60 35/64/46
f 114/9/8 46/81/59 48/79/57
f 42/74/53 45/76/55 40/70/51 41/73/52
f 107/80/58 108/91/62 44/92/54 46/81/59
f 47/10/9 49/61/43 42/87/53 43/52/23
f 46/81/59 44/92/54 45/86/55 48/79/57
f 113/38/31 23/89/63 78/93/65
f 113/38/31 28/78/56 23/89/63
f 78/93/65 23/89/63 22/88/60 79/94/64
f 55/95/66 54/96/67 82/97/68 85/98/69
f 58/99/70 57/100/71 55/101/66 59/102/72
f 114/9/8 77/103/73 110/104/74
f 62/105/75 59/102/72 87/106/76 94/107/77
f 64/108/78 63/109/79 58/99/70 65/110/80
f 66/18/17 60/21/19 64/111/78 67/112/81
f 68/113/82 65/114/80 62/115/75 69/116/83
f 70/117/84 69/116/83 100/118/85 104/119/86
f 71/120/87 67/112/81 68/113/82 72/121/88
f 55/95/66 57/122/71 56/123/89 54/96/67
f 87/106/76 59/102/72 55/101/66 85/124/69
f 114/9/8 76/125/90 77/103/73
f 114/35/8 73/37/30 75/126/91
f 113/38/31 54/96/67 56/123/89
f 113/39/31 82/97/68 54/96/67
f 58/99/70 63/109/79 52/127/92 57/100/71
f 60/41/19 61/42/33 63/109/79 64/108/78
f 62/105/75 65/110/80 58/99/70 59/102/72
f 100/118/85 69/116/83 62/115/75 94/128/77
f 67/112/81 64/111/78 65/114/80 68/113/82
f 71/120/87 74/44/34 66/18/17 67/112/81
f 76/125/90 72/129/88 70/130/84 77/103/73
f 52/131/92 53/132/93 56/123/89 57/122/71
f 61/42/33 51/49/36 52/127/92 63/109/79
f 114/9/8 75/126/91 76/125/90
f 70/117/84 72/121/88 68/113/82 69/116/83
f 73/37/30 74/51/34 71/133/87 75/126/91
f 110/104/74 77/103/73 70/130/84 104/134/86
f 75/126/91 71/133/87 72/129/88 76/125/90
f 113/38/31 53/132/93 50/53/37
f 113/38/31 56/123/89 53/132/93
f 50/53/37 53/132/93 52/131/92 51/54/36
f 84/135/94 85/98/69 82/97/68 83/136/95
f 89/137/96 90/138/97 84/139/94 88/140/98
f 114/9/8 110/104/74 112/141/99
f 93/142/100 94/107/77 87/106/76 90/138/97
f 96/143/101 97/144/102 89/137/96 95/145/103
f 98/66/48 99/146/104 96/147/101 91/67/49
f 101/148/105 102/149/106 93/150/100 97/151/102
f 103/152/107 104/119/86 100/118/85 102/149/106
f 105/153/108 106/154/109 101/148/105 99/146/104
f 84/135/94 83/136/95 86/155/110 88/156/98
f 87/106/76 85/124/69 84/139/94 90/138/97
f 114/9/8 112/141/99 111/157/111
f 114/35/8 109/158/112 107/80/58
f 113/38/31 86/155/110 83/136/95
f 113/39/31 83/136/95 82/97/68
f 89/137/96 88/140/98 80/159/113 95/145/103
f 91/83/49 96/143/101 95/145/103 92/84/61
f 93/142/100 90/138/97 89/137/96 97/144/102
f 100/118/85 94/128/77 93/150/100 102/149/106
f 99/146/104 101/148/105 97/151/102 96/147/101
f 105/153/108 99/146/104 98/66/48 108/85/62
f 111/157/111 112/141/99 103/160/107 106/161/109
f 80/162/113 88/156/98 86/155/110 81/163/114
f 92/84/61 95/145/103 80/159/113 79/90/64
f 114/9/8 111/157/111 109/158/112
f 103/152/107 102/149/106 101/148/105 106/154/109
f 107/80/58 109/158/112 105/164/108 108/91/62
f 110/104/74 104/134/86 103/160/107 112/141/99
f 109/158/112 111/157/111 106/161/109 105/164/108
f 113/38/31 78/93/65 81/163/114
f 113/38/31 81/163/114 86/155/110
f 78/93/65 79/94/64 80/162/113 81/163/114
